<?xml version="1.0" encoding="UTF-8"?>
<svg version="1.1" xmlns="http://www.w3.org/2000/svg" width="512" height="512">
<path d="M0 0 C0.85407944 -0.00540298 1.70815887 -0.01080597 2.58811951 -0.01637268 C5.4092786 -0.02887319 8.2294199 -0.01236173 11.05053711 0.00561523 C13.01061558 0.00546029 14.97069435 0.00397209 16.93077087 0.00120544 C21.03731846 -0.00017909 25.14351701 0.01238987 29.25 0.03515625 C34.51848198 0.06355969 39.78638474 0.06079918 45.05490971 0.04806614 C49.10148584 0.04111793 53.14792763 0.04888811 57.19448662 0.06132317 C59.13738935 0.0658447 61.08030647 0.06616836 63.02321053 0.06225777 C65.73582763 0.05935348 68.44764065 0.07581408 71.16015625 0.09765625 C72.36884872 0.09090378 72.36884872 0.09090378 73.60195923 0.08401489 C79.01345702 0.15656457 79.01345702 0.15656457 81.48937988 1.8591156 C83.06815544 4.38668267 83.38781173 6.78327981 83.88647461 9.72045898 C84.00437851 10.39935181 84.12228241 11.07824463 84.24375916 11.77770996 C84.6835006 14.34995364 85.10013709 16.92539576 85.51538086 19.50170898 C85.69562805 20.60546875 85.87587524 21.70922852 86.06158447 22.84643555 C87.82453124 33.65526894 89.54355519 44.47104393 91.25683594 55.2878418 C91.80846237 58.76917976 92.36353783 62.2499544 92.92062187 65.73042297 C93.23011784 67.67080909 93.53565104 69.61182596 93.84107971 71.55285645 C94.81482077 77.63467511 95.96180504 83.54451585 97.51538086 89.50170898 C97.97300767 91.94455672 98.40271456 94.39279893 98.80444336 96.84545898 C98.96666885 97.82730164 98.96666885 97.82730164 99.13217163 98.82897949 C99.47133601 100.88606176 99.80594311 102.94385358 100.14038086 105.00170898 C100.3718483 106.41061303 100.60361663 107.81946767 100.83569336 109.22827148 C101.39906079 112.65218784 101.95834847 116.07675558 102.51538086 119.50170898 C106.62246575 99.69153302 110.19702118 79.79957114 113.71014404 59.87768555 C114.85250472 53.40306589 115.9999517 46.92934538 117.14707565 40.45556831 C117.66396512 37.5352849 118.1786684 34.61461749 118.69345665 31.69396305 C119.05534136 29.6532893 119.42368477 27.61385584 119.7925415 25.57443237 C120.30163005 22.74886512 120.77284456 19.91955274 121.22601318 17.08450317 C121.46734224 15.64745669 121.70881294 14.21043399 121.95043945 12.7734375 C122.15575287 11.4967067 122.36106628 10.21997589 122.57260132 8.90455627 C123.65696853 4.99066562 124.37534395 3.10916721 127.51538086 0.50170898 C130.76137791 -0.22723708 133.93821824 -0.17100522 137.25341797 -0.12939453 C138.24083481 -0.13654984 139.22825165 -0.14370514 140.24559021 -0.15107727 C143.51177139 -0.16799491 146.77658585 -0.14854148 150.04272461 -0.12719727 C152.31189589 -0.12802574 154.58106712 -0.13048432 156.85023499 -0.13450623 C161.60753429 -0.13736643 166.36436336 -0.12264188 171.12158203 -0.09521484 C177.21949764 -0.06115168 183.31657117 -0.06714205 189.41452694 -0.08587742 C194.10115066 -0.09644732 198.78757852 -0.08750922 203.47418404 -0.0724926 C205.7224526 -0.06730899 207.97074162 -0.06779475 210.21900749 -0.07403755 C213.36243514 -0.07948864 216.50465874 -0.05911604 219.64794922 -0.03173828 C221.04222137 -0.0415271 221.04222137 -0.0415271 222.46466064 -0.05151367 C226.26397107 0.00474388 228.97475181 0.2582827 232.46466064 1.82966614 C235.70551347 6.05242532 236.25935942 10.62171493 237.19433594 15.7878418 C237.53192932 17.51509995 237.53192932 17.51509995 237.87634277 19.2772522 C238.61520289 23.08300625 239.32510667 26.89356354 240.03491211 30.70483398 C240.53939907 33.34548745 241.05000035 35.98494825 241.56047058 38.62445068 C242.76307418 44.8615717 243.9448966 51.10244166 245.11927575 57.34493136 C246.4575757 64.45318057 247.81902601 71.55693198 249.18242419 78.66040277 C251.9858359 93.26931853 254.76017458 107.88361896 257.51538086 122.50170898 C257.71695801 121.26606201 257.91853516 120.03041504 258.1262207 118.75732422 C258.87871994 114.15149036 259.63667527 109.54656797 260.39624023 104.94189453 C260.72356494 102.95287944 261.04943059 100.96362365 261.3737793 98.97412109 C261.84157497 96.10636141 262.3146966 93.23952247 262.78881836 90.37280273 C263.00300919 89.04894814 263.00300919 89.04894814 263.2215271 87.698349 C264.03016638 82.84433188 265.13875771 78.23279309 266.51538086 73.50170898 C266.94593319 71.18953284 267.33539458 68.86941944 267.6887207 66.54418945 C267.78987686 65.88795593 267.89103302 65.23172241 267.99525452 64.55560303 C268.21254156 63.14437772 268.42798456 61.73286744 268.64173508 60.32110214 C268.98169465 58.08351011 269.32912151 55.84719726 269.67886353 53.6111145 C270.67217185 47.25821805 271.66002645 40.90457406 272.6237793 34.54711914 C273.21563601 30.64653472 273.82274276 26.74858411 274.43974686 22.85190201 C274.67108004 21.37206689 274.8967158 19.89132906 275.116436 18.40972519 C275.42432 16.33742866 275.75156536 14.26904035 276.08325195 12.20043945 C276.26375092 11.02464325 276.44424988 9.84884705 276.63021851 8.63742065 C277.68300499 4.90789595 278.57549715 3.0537594 281.51538086 0.50170898 C284.53331027 0.01370673 286.98475647 -0.1533052 290 -0.09765625 C291.28111916 -0.10357033 291.28111916 -0.10357033 292.58811951 -0.10960388 C295.40952314 -0.1163136 298.22930684 -0.08715488 301.05053711 -0.05688477 C303.01061184 -0.05263472 304.9706916 -0.0503061 306.93077087 -0.04981995 C311.03741279 -0.04365374 315.14350944 -0.0209485 319.25 0.01464844 C324.51840886 0.05995079 329.78632407 0.07467583 335.05490971 0.07838535 C339.10148503 0.08281032 343.14795638 0.09810728 347.19448662 0.11726189 C349.13738587 0.1261513 351.08029625 0.1328778 353.02321053 0.13742256 C355.73571624 0.14644862 358.44777203 0.16882434 361.16015625 0.1953125 C362.36884872 0.19630951 362.36884872 0.19630951 363.60195923 0.19732666 C367.42842396 0.24899159 369.25590716 0.32872652 372.51538086 2.50170898 C374.78548666 11.38923136 372.019144 20.08907829 370.03491211 28.81030273 C369.66068542 30.50282477 369.28771761 32.19562559 368.91593933 33.88868713 C367.93536724 38.33809323 366.93785398 42.78353124 365.93664551 47.22833252 C364.9337854 51.69414679 363.94691314 56.16348573 362.95874023 60.63256836 C361.32945146 67.99124769 359.691704 75.3479696 358.03741169 82.70107174 C357.15813132 86.61304391 356.28975203 90.52701536 355.43807983 94.44509888 C355.26091525 95.25571557 355.08375067 96.06633226 354.90121746 96.9015131 C354.5655756 98.43919591 354.23245621 99.97743249 353.90240955 101.51632595 C353.00489407 105.61642529 351.86143226 109.53023475 350.51538086 113.50170898 C350.0161876 115.52174808 349.54771374 117.54955064 349.10522461 119.58276367 C348.71111137 121.38180649 348.71111137 121.38180649 348.30903625 123.2171936 C348.02359619 124.53597851 347.73821303 125.85477573 347.45288086 127.17358398 C347.1464271 128.578301 346.83967128 129.98295214 346.53263855 131.38754272 C345.87103717 134.41692303 345.21143709 137.44672981 344.55331421 140.47686768 C343.50617146 145.29709424 342.45321303 150.11603937 341.39941406 154.93481445 C338.06253241 170.19976064 334.73845915 185.4674711 331.42549324 200.73762512 C329.78710847 208.28783084 328.14384384 215.83696579 326.49755669 223.38545227 C325.30647032 228.84857003 324.12179364 234.31302715 322.94178295 239.77854729 C322.20204682 243.19771761 321.4564337 246.61558685 320.70922279 250.03313065 C320.36332119 251.62090642 320.01983654 253.20921101 319.67897606 254.79807663 C319.21062205 256.97957216 318.73355211 259.15899061 318.25439453 261.33813477 C317.98954758 262.55912872 317.72470062 263.78012268 317.451828 265.03811646 C316.43775328 268.78882643 315.21506097 272.01026059 313.51538086 275.50170898 C311.18043583 276.6691815 309.80339397 276.6347953 307.20169067 276.64888 C305.84314468 276.65961296 305.84314468 276.65961296 304.45715332 276.67056274 C303.46074829 276.67325165 302.46434326 276.67594055 301.43774414 276.67871094 C299.86686539 276.68856773 299.86686539 276.68856773 298.26425171 276.69862366 C294.78806493 276.71838447 291.31192137 276.73002433 287.83569336 276.73999023 C286.05865839 276.74610353 286.05865839 276.74610353 284.24572372 276.75234032 C277.97770104 276.77321109 271.70970033 276.78750951 265.44165039 276.796875 C258.95582473 276.80795267 252.47034091 276.84236571 245.98463631 276.8820467 C241.00730739 276.90814268 236.03006085 276.91656051 231.05266953 276.92015648 C228.66119956 276.92503915 226.26973367 276.93670053 223.87833023 276.95519447 C220.53587679 276.97944027 217.19432037 276.97864746 213.85180664 276.97167969 C212.36327179 276.99089478 212.36327179 276.99089478 210.84466553 277.01049805 C204.16883555 276.9596324 204.16883555 276.9596324 200.91769409 274.68132019 C198.95222354 271.62639527 198.64643348 268.52385109 198.14038086 265.00170898 C196.26493243 254.38057 191.26477929 245.24614094 186.29125977 235.81030273 C185.67943848 234.64756836 185.06761719 233.48483398 184.43725586 232.28686523 C183.87619141 231.24409424 183.31512695 230.20132324 182.73706055 229.12695312 C181.51538086 226.50170898 181.51538086 226.50170898 181.51538086 223.50170898 C180.85538086 223.50170898 180.19538086 223.50170898 179.51538086 223.50170898 C178.19538086 220.86170898 176.87538086 218.22170898 175.51538086 215.50170898 C172.77188722 218.61777374 172.13777265 220.57024489 172.11474609 224.69750977 C172.10140732 225.73183136 172.08806854 226.76615295 172.07432556 227.83181763 C172.07420975 228.9423349 172.07409393 230.05285217 172.07397461 231.19702148 C172.06076675 232.34081268 172.0475589 233.48460388 172.03395081 234.66305542 C171.99302706 238.31763155 171.97136831 241.97195535 171.95288086 245.62670898 C171.92913397 249.28852763 171.9010941 252.95010721 171.86109924 256.61178589 C171.83664639 258.89093691 171.821866 261.17021541 171.81748962 263.44949341 C171.80730301 264.47751068 171.79711639 265.50552795 171.78662109 266.56469727 C171.78020851 267.92559982 171.78020851 267.92559982 171.77366638 269.31399536 C171.51538086 271.50170898 171.51538086 271.50170898 169.51538086 273.50170898 C166.80053711 273.84545898 166.80053711 273.84545898 163.57788086 274.00170898 C158.74035189 274.21275097 158.74035189 274.21275097 154.51538086 276.50170898 C152.4707346 276.75618458 152.4707346 276.75618458 150.08143616 276.7624054 C149.17436417 276.7694902 148.26729218 276.77657501 147.33273315 276.78387451 C146.3399234 276.78139709 145.34711365 276.77891968 144.32421875 276.77636719 C143.27682022 276.78147812 142.22942169 276.78658905 141.15028381 276.79185486 C137.67947718 276.80578301 134.2088684 276.80479166 130.73803711 276.80249023 C128.33051987 276.80637535 125.92300332 276.81070963 123.51548767 276.81547546 C118.46570617 276.82294459 113.41599458 276.82264133 108.36621094 276.81738281 C101.88830432 276.81158689 95.41068349 276.82851905 88.93282413 276.85172749 C83.95977601 276.86644416 78.98679704 276.86733934 74.013731 276.86421776 C71.6250699 276.864732 69.23640502 276.86998884 66.84776497 276.88002968 C63.51029906 276.89233668 60.17339412 276.88563658 56.8359375 276.87402344 C55.84515198 276.88166718 54.85436646 276.88931091 53.83355713 276.89718628 C52.92366531 276.89017197 52.0137735 276.88315765 51.0763092 276.87593079 C50.28746369 276.87609853 49.49861818 276.87626627 48.68586826 276.87643909 C45.92972889 276.4005974 44.55604981 275.38560333 42.51538086 273.50170898 C41.56053162 270.91493225 41.56053162 270.91493225 40.90771484 267.74023438 C40.65103531 266.53177353 40.39435577 265.32331268 40.12989807 264.07823181 C39.86094983 262.7311709 39.59231999 261.38404638 39.32397461 260.03686523 C39.0280974 258.61291979 38.73081206 257.18926633 38.43223572 255.7658844 C37.61449305 251.84669748 36.81721348 247.92358152 36.02309418 243.99954987 C35.15885034 239.74765512 34.27552242 235.49972144 33.39477539 231.2512207 C31.29455065 221.09981098 29.22350049 210.9425448 27.15692139 200.78424072 C26.1978368 196.07191754 25.23642046 191.36007032 24.27514648 186.64819336 C23.89276958 184.77332597 23.5103945 182.89845822 23.12802124 181.02359009 C22.37291443 177.32150094 21.61735646 173.61950425 20.86148071 169.91757202 C20.48842743 168.0899937 20.11541095 166.26240787 19.74243164 164.43481445 C19.5589599 163.53584127 19.37548817 162.6368681 19.18645668 161.71065331 C18.05182951 156.14636741 16.92463746 150.58062572 15.80255604 145.01379681 C15.07014792 141.38335178 14.33414761 137.75364024 13.59756279 134.1240406 C13.25207483 132.41690135 12.90826452 130.7094216 12.56624031 129.00158501 C12.09579769 126.65316354 11.61959368 124.30597866 11.14208984 121.95898438 C11.00622152 121.27292933 10.8703532 120.58687428 10.73036766 119.88002968 C10.17857258 117.19197701 9.58166458 114.664024 8.54264832 112.11968994 C7.01948887 108.23793314 6.28893438 104.23410654 5.45239258 100.15673828 C5.25702911 99.22276215 5.06166565 98.28878601 4.86038208 97.32650757 C4.21708457 94.24396919 3.58072591 91.16004998 2.94506836 88.07592773 C2.49969928 85.9274382 2.05415018 83.77898597 1.60842896 81.63056946 C0.67558106 77.12807191 -0.25356695 72.62482901 -1.18041992 68.12109375 C-2.36669269 62.3593716 -3.56440366 56.60009496 -4.76521492 50.84138775 C-5.6886337 46.40462545 -6.60476805 41.96638213 -7.51885605 37.52768898 C-7.95730327 35.40417491 -8.39826915 33.28117922 -8.84183121 31.15872765 C-9.46227155 28.18560952 -10.07256566 25.21057647 -10.68041992 22.23486328 C-10.8642926 21.36445908 -11.04816528 20.49405487 -11.23760986 19.59727478 C-13.82756366 6.75742467 -13.82756366 6.75742467 -11.01490784 2.0330658 C-7.41753434 -0.14410174 -4.08148725 -0.04909322 0 0 Z " fill="#FD4040" transform="translate(75.484619140625,117.498291015625)"/>
<path d="M0 0 C27.06 0 54.12 0 82 0 C89.56144465 42.12804878 89.56144465 42.12804878 91.33203125 56.078125 C92.01554394 61.33269425 92.93518865 66.53607815 93.875 71.75 C95.62945406 81.49328892 97.09179857 91.26473333 98.5 101.0625 C100.02694965 111.6839904 101.68672012 122.25808361 103.68261719 132.8034668 C105.06872708 140.17275892 106.11849701 147.55361945 107 155 C110.61569596 137.74615263 113.72647391 120.42494199 116.67602539 103.046875 C116.96630618 101.35416625 117.25658928 99.6614579 117.546875 97.96875 C117.67897873 97.17819214 117.81108246 96.38763428 117.94718933 95.57312012 C118.88718027 90.11281973 118.88718027 90.11281973 120 89 C120.44820715 85.91151377 120.81850426 82.82406589 121.16210938 79.72265625 C121.63459909 75.81213159 122.52903315 72.62570344 124 69 C124.40987748 66.61306644 124.76116913 64.21555037 125.0625 61.8125 C125.90042076 55.19915849 125.90042076 55.19915849 127 53 C127.2814307 51.19211366 127.52333756 49.37806613 127.75 47.5625 C128.92535336 38.9699546 130.53792773 30.46796103 132.14746094 21.94750977 C132.35661133 20.83819092 132.56576172 19.72887207 132.78125 18.5859375 C132.96751953 17.6067334 133.15378906 16.6275293 133.34570312 15.61865234 C134.28531224 10.42205297 135.13183153 5.20901083 136 0 C168.01 0 200.02 0 233 0 C235.31 12.21 237.62 24.42 240 37 C241.49685068 44.65129326 242.99370483 52.30102819 244.52587891 59.94506836 C245.13668936 62.99588488 245.74224649 66.04771704 246.34765625 69.09960938 C248.74762721 81.13549065 248.74762721 81.13549065 251.41699219 93.11376953 C251.6489328 94.10349258 251.88087341 95.09321564 252.11984253 96.1129303 C252.56145664 97.97714167 253.01100451 99.83950007 253.47024536 101.69944763 C253.67068451 102.54185501 253.87112366 103.38426239 254.07763672 104.25219727 C254.25608124 104.97883072 254.43452576 105.70546417 254.61837769 106.45411682 C255.13983169 109.93284678 255 113.48240474 255 117 C245.1 117.33 235.2 117.66 225 118 C224.67 141.1 224.34 164.2 224 188 C221.28150377 185.28150377 219.87032147 182.03459723 218.1875 178.625 C217.82785156 177.90183594 217.46820313 177.17867187 217.09765625 176.43359375 C215.08404933 172.3411912 213.20775582 168.23150418 211.5 164 C208.74009759 157.16947231 205.4060542 150.65932162 202.06591797 144.09960938 C200.27660511 140.57508107 198.51469429 137.03689969 196.75 133.5 C196.11991983 132.23951926 195.48971565 130.9791005 194.859375 129.71875 C192.90625 125.8125 190.953125 121.90625 189 118 C169.2 118 149.4 118 129 118 C128.67 165.19 128.34 212.38 128 261 C103.91 261 79.82 261 55 261 C53.5604181 256.6812543 52.49662834 252.89416431 51.66796875 248.4765625 C51.42925049 247.219646 51.19053223 245.96272949 50.94458008 244.66772461 C50.75939316 243.6784346 50.75939316 243.6784346 50.57046509 242.66915894 C49.91825067 239.18782348 49.25181786 235.70921185 48.5859375 232.23046875 C48.38569725 231.18243828 48.38569725 231.18243828 48.18141174 230.11323547 C46.41165063 220.88259399 44.47947914 211.68622374 42.52734375 202.49267578 C42.04303639 200.20342664 41.56666715 197.9127182 41.09375 195.62109375 C40.70703125 193.76677734 40.70703125 193.76677734 40.3125 191.875 C40.10238281 190.86179687 39.89226562 189.84859375 39.67578125 188.8046875 C39.03887768 185.97156324 39.03887768 185.97156324 38.0358429 183.17623901 C37.07966471 180.24427853 36.36952005 177.39391821 35.75073242 174.37548828 C35.52677292 173.29220245 35.30281342 172.20891663 35.07206726 171.09280396 C34.83558975 169.93038177 34.59911224 168.76795959 34.35546875 167.5703125 C34.10380447 166.34835175 33.8521402 165.12639099 33.59284973 163.86740112 C32.92307993 160.61223788 32.25643072 157.3564681 31.59136963 154.1003418 C30.93246164 150.87759763 30.2697906 147.65562813 29.60742188 144.43359375 C28.82325222 140.6184683 28.03947418 136.80326575 27.2572937 132.98773193 C25.68289506 125.30889025 24.09302271 117.63349018 22.48828125 109.9609375 C19.33819399 94.88689741 16.28949601 79.79223539 13.22949219 64.69970703 C12.46600009 60.93511863 11.70175459 57.17068367 10.9375 53.40625 C10.69112793 52.18977783 10.44475586 50.97330566 10.19091797 49.7199707 C9.00168543 43.86235115 7.79544729 38.00934333 6.546875 32.1640625 C6.31750244 31.08523804 6.08812988 30.00641357 5.85180664 28.89489746 C5.42601328 26.89917691 4.99590267 24.90436967 4.56030273 22.9107666 C3.29146266 16.95576623 2.47610595 11.07014595 2 5 C1.34 5 0.68 5 0 5 C0 3.35 0 1.7 0 0 Z " fill="#222222" transform="translate(70,125)"/>
<path d="M0 0 C27.06 0 54.12 0 82 0 C82 6.55758704 81.5270438 8.41589429 79 14 C78.31624079 16.70113001 77.70572814 19.35399937 77.16796875 22.08203125 C76.9325235 23.2259861 76.9325235 23.2259861 76.69232178 24.39305115 C76.35781508 26.02111771 76.02652361 27.64984772 75.69821167 29.2791748 C74.82987981 33.5864329 73.93751397 37.88871518 73.046875 42.19140625 C72.87079208 43.04475555 72.69470917 43.89810486 72.51329041 44.77731323 C71.09373651 51.62723327 69.55108498 58.44313521 67.9375 65.25 C65.45539663 75.764863 63.26843457 86.32596769 61.12438965 96.91342163 C58.26198002 111.01819045 55.04279344 125.02166462 51.70068359 139.02001953 C51.08398294 141.64282376 50.49678231 144.26930195 49.92578125 146.90234375 C49.35753042 149.50461671 48.70986102 152.00449631 47.96875 154.5703125 C46.9134052 158.30657354 46.17665153 162.05717863 45.5 165.875 C44.0175614 173.96714308 42.31538031 181.87316294 40.14941406 189.81079102 C38.04094878 197.64383591 36.25858421 205.5360872 34.546875 213.46484375 C34.23901251 214.87836723 33.93083966 216.29182315 33.62237549 217.70521545 C32.82367077 221.36879374 32.02909402 225.03325447 31.23547363 228.69793701 C30.27578856 233.1251088 29.3108032 237.55112814 28.34674072 241.97734833 C26.89383871 248.65070723 25.44753616 255.32546498 24 262 C10.47 262 -3.06 262 -17 262 C-17.02505615 257.66399658 -17.0501123 253.32799316 -17.07592773 248.8605957 C-17.15931871 234.55145387 -17.24796619 220.24234818 -17.33933926 205.9332552 C-17.39462217 197.25572865 -17.44809606 188.578198 -17.49731445 179.90063477 C-17.54021671 172.33746066 -17.58650991 164.77431622 -17.63687855 157.21118802 C-17.66343082 153.20642264 -17.68828262 149.20166295 -17.70907402 145.19686317 C-17.72869935 141.42698866 -17.75286057 137.65717035 -17.78049088 133.88734627 C-17.78983014 132.50427016 -17.79751655 131.12118174 -17.80341911 129.7380867 C-17.81173349 127.84805598 -17.82659854 125.95805748 -17.84178162 124.06806946 C-17.84823417 123.01077291 -17.85468672 121.95347635 -17.8613348 120.86414051 C-17.99328649 118.13866798 -18.43457519 115.66289196 -19 113 C-18.84346008 110.73796082 -18.84346008 110.73796082 -18.44262695 108.40698242 C-18.29529617 107.52382858 -18.14796539 106.64067474 -17.99617004 105.73075867 C-17.74476509 104.30749016 -17.74476509 104.30749016 -17.48828125 102.85546875 C-17.23403633 101.35334587 -17.23403633 101.35334587 -16.97465515 99.82087708 C-16.42897888 96.60825567 -15.87103145 93.39790882 -15.3125 90.1875 C-14.95555024 88.10105328 -14.59942286 86.01446569 -14.24414062 83.92773438 C-13.53159908 79.74705293 -12.81349798 75.5673771 -12.09228516 71.38818359 C-11.33559646 66.98752417 -10.59737321 62.58424366 -9.87255859 58.17822266 C-9.69121872 57.07714676 -9.50987885 55.97607086 -9.32304382 54.84162903 C-8.97689849 52.73347951 -8.63274394 50.62500187 -8.29084778 48.51615906 C-8.05829536 47.10110832 -8.05829536 47.10110832 -7.82104492 45.6574707 C-7.61870491 44.41330132 -7.61870491 44.41330132 -7.41227722 43.14399719 C-7 41 -7 41 -6 38 C-5.67904173 35.31270395 -5.39102729 32.6302083 -5.125 29.9375 C-4.42514432 23.25500702 -3.54159517 16.62794126 -2.4375 10 C-2.24728271 8.84359009 -2.24728271 8.84359009 -2.05322266 7.66381836 C-1.13019561 2.26039123 -1.13019561 2.26039123 0 0 Z " fill="#222222" transform="translate(360,125)"/>
<path d="M0 0 C0.85407944 -0.00540298 1.70815887 -0.01080597 2.58811951 -0.01637268 C5.4092786 -0.02887319 8.2294199 -0.01236173 11.05053711 0.00561523 C13.01061558 0.00546029 14.97069435 0.00397209 16.93077087 0.00120544 C21.03731846 -0.00017909 25.14351701 0.01238987 29.25 0.03515625 C34.51848198 0.06355969 39.78638474 0.06079918 45.05490971 0.04806614 C49.10148584 0.04111793 53.14792763 0.04888811 57.19448662 0.06132317 C59.13738935 0.0658447 61.08030647 0.06616836 63.02321053 0.06225777 C65.73582763 0.05935348 68.44764065 0.07581408 71.16015625 0.09765625 C72.36884872 0.09090378 72.36884872 0.09090378 73.60195923 0.08401489 C79.01345702 0.15656457 79.01345702 0.15656457 81.48937988 1.8591156 C83.06815544 4.38668267 83.38781173 6.78327981 83.88647461 9.72045898 C84.00437851 10.39935181 84.12228241 11.07824463 84.24375916 11.77770996 C84.6835006 14.34995364 85.10013709 16.92539576 85.51538086 19.50170898 C85.69562805 20.60546875 85.87587524 21.70922852 86.06158447 22.84643555 C87.82453124 33.65526894 89.54355519 44.47104393 91.25683594 55.2878418 C91.80846237 58.76917976 92.36353783 62.2499544 92.92062187 65.73042297 C93.23011784 67.67080909 93.53565104 69.61182596 93.84107971 71.55285645 C94.81482077 77.63467511 95.96180504 83.54451585 97.51538086 89.50170898 C97.97300767 91.94455672 98.40271456 94.39279893 98.80444336 96.84545898 C98.96666885 97.82730164 98.96666885 97.82730164 99.13217163 98.82897949 C99.47133601 100.88606176 99.80594311 102.94385358 100.14038086 105.00170898 C100.3718483 106.41061303 100.60361663 107.81946767 100.83569336 109.22827148 C101.39906079 112.65218784 101.95834847 116.07675558 102.51538086 119.50170898 C106.62246575 99.69153302 110.19702118 79.79957114 113.71014404 59.87768555 C114.85250472 53.40306589 115.9999517 46.92934538 117.14707565 40.45556831 C117.66396512 37.5352849 118.1786684 34.61461749 118.69345665 31.69396305 C119.05534136 29.6532893 119.42368477 27.61385584 119.7925415 25.57443237 C120.30163005 22.74886512 120.77284456 19.91955274 121.22601318 17.08450317 C121.46734224 15.64745669 121.70881294 14.21043399 121.95043945 12.7734375 C122.15575287 11.4967067 122.36106628 10.21997589 122.57260132 8.90455627 C123.65696853 4.99066562 124.37534395 3.10916721 127.51538086 0.50170898 C130.76137791 -0.22723708 133.93821824 -0.17100522 137.25341797 -0.12939453 C138.24083481 -0.13654984 139.22825165 -0.14370514 140.24559021 -0.15107727 C143.51177139 -0.16799491 146.77658585 -0.14854148 150.04272461 -0.12719727 C152.31189589 -0.12802574 154.58106712 -0.13048432 156.85023499 -0.13450623 C161.60753429 -0.13736643 166.36436336 -0.12264188 171.12158203 -0.09521484 C177.21949764 -0.06115168 183.31657117 -0.06714205 189.41452694 -0.08587742 C194.10115066 -0.09644732 198.78757852 -0.08750922 203.47418404 -0.0724926 C205.7224526 -0.06730899 207.97074162 -0.06779475 210.21900749 -0.07403755 C213.36243514 -0.07948864 216.50465874 -0.05911604 219.64794922 -0.03173828 C221.04222137 -0.0415271 221.04222137 -0.0415271 222.46466064 -0.05151367 C226.26397107 0.00474388 228.97475181 0.2582827 232.46466064 1.82966614 C235.70551347 6.05242532 236.25935942 10.62171493 237.19433594 15.7878418 C237.53192932 17.51509995 237.53192932 17.51509995 237.87634277 19.2772522 C238.61520289 23.08300625 239.32510667 26.89356354 240.03491211 30.70483398 C240.53939907 33.34548745 241.05000035 35.98494825 241.56047058 38.62445068 C242.76307418 44.8615717 243.9448966 51.10244166 245.11927575 57.34493136 C246.4575757 64.45318057 247.81902601 71.55693198 249.18242419 78.66040277 C251.9858359 93.26931853 254.76017458 107.88361896 257.51538086 122.50170898 C257.71695801 121.26606201 257.91853516 120.03041504 258.1262207 118.75732422 C258.87871994 114.15149036 259.63667527 109.54656797 260.39624023 104.94189453 C260.72356494 102.95287944 261.04943059 100.96362365 261.3737793 98.97412109 C261.84157497 96.10636141 262.3146966 93.23952247 262.78881836 90.37280273 C263.00300919 89.04894814 263.00300919 89.04894814 263.2215271 87.698349 C264.03016638 82.84433188 265.13875771 78.23279309 266.51538086 73.50170898 C266.94593319 71.18953284 267.33539458 68.86941944 267.6887207 66.54418945 C267.78987686 65.88795593 267.89103302 65.23172241 267.99525452 64.55560303 C268.21254156 63.14437772 268.42798456 61.73286744 268.64173508 60.32110214 C268.98169465 58.08351011 269.32912151 55.84719726 269.67886353 53.6111145 C270.67217185 47.25821805 271.66002645 40.90457406 272.6237793 34.54711914 C273.21563601 30.64653472 273.82274276 26.74858411 274.43974686 22.85190201 C274.67108004 21.37206689 274.8967158 19.89132906 275.116436 18.40972519 C275.42432 16.33742866 275.75156536 14.26904035 276.08325195 12.20043945 C276.26375092 11.02464325 276.44424988 9.84884705 276.63021851 8.63742065 C277.68300499 4.90789595 278.57549715 3.0537594 281.51538086 0.50170898 C284.53331027 0.01370673 286.98475647 -0.1533052 290 -0.09765625 C291.28111916 -0.10357033 291.28111916 -0.10357033 292.58811951 -0.10960388 C295.40952314 -0.1163136 298.22930684 -0.08715488 301.05053711 -0.05688477 C303.01061184 -0.05263472 304.9706916 -0.0503061 306.93077087 -0.04981995 C311.03741279 -0.04365374 315.14350944 -0.0209485 319.25 0.01464844 C324.51840886 0.05995079 329.78632407 0.07467583 335.05490971 0.07838535 C339.10148503 0.08281032 343.14795638 0.09810728 347.19448662 0.11726189 C349.13738587 0.1261513 351.08029625 0.1328778 353.02321053 0.13742256 C355.73571624 0.14644862 358.44777203 0.16882434 361.16015625 0.1953125 C362.36884872 0.19630951 362.36884872 0.19630951 363.60195923 0.19732666 C367.42842396 0.24899159 369.25590716 0.32872652 372.51538086 2.50170898 C374.78548666 11.38923136 372.019144 20.08907829 370.03491211 28.81030273 C369.66068542 30.50282477 369.28771761 32.19562559 368.91593933 33.88868713 C367.93536724 38.33809323 366.93785398 42.78353124 365.93664551 47.22833252 C364.9337854 51.69414679 363.94691314 56.16348573 362.95874023 60.63256836 C361.32945146 67.99124769 359.691704 75.3479696 358.03741169 82.70107174 C357.15813132 86.61304391 356.28975203 90.52701536 355.43807983 94.44509888 C355.26091525 95.25571557 355.08375067 96.06633226 354.90121746 96.9015131 C354.5655756 98.43919591 354.23245621 99.97743249 353.90240955 101.51632595 C353.00489407 105.61642529 351.86143226 109.53023475 350.51538086 113.50170898 C350.0161876 115.52174808 349.54771374 117.54955064 349.10522461 119.58276367 C348.71111137 121.38180649 348.71111137 121.38180649 348.30903625 123.2171936 C348.02359619 124.53597851 347.73821303 125.85477573 347.45288086 127.17358398 C347.1464271 128.578301 346.83967128 129.98295214 346.53263855 131.38754272 C345.87103717 134.41692303 345.21143709 137.44672981 344.55331421 140.47686768 C343.50617146 145.29709424 342.45321303 150.11603937 341.39941406 154.93481445 C338.06253241 170.19976064 334.73845915 185.4674711 331.42549324 200.73762512 C329.78710847 208.28783084 328.14384384 215.83696579 326.49755669 223.38545227 C325.30647032 228.84857003 324.12179364 234.31302715 322.94178295 239.77854729 C322.20204682 243.19771761 321.4564337 246.61558685 320.70922279 250.03313065 C320.36332119 251.62090642 320.01983654 253.20921101 319.67897606 254.79807663 C319.21062205 256.97957216 318.73355211 259.15899061 318.25439453 261.33813477 C317.98954758 262.55912872 317.72470062 263.78012268 317.451828 265.03811646 C316.43775328 268.78882643 315.21506097 272.01026059 313.51538086 275.50170898 C311.18043583 276.6691815 309.80339397 276.6347953 307.20169067 276.64888 C305.84314468 276.65961296 305.84314468 276.65961296 304.45715332 276.67056274 C303.46074829 276.67325165 302.46434326 276.67594055 301.43774414 276.67871094 C299.86686539 276.68856773 299.86686539 276.68856773 298.26425171 276.69862366 C294.78806493 276.71838447 291.31192137 276.73002433 287.83569336 276.73999023 C286.05865839 276.74610353 286.05865839 276.74610353 284.24572372 276.75234032 C277.97770104 276.77321109 271.70970033 276.78750951 265.44165039 276.796875 C258.95582473 276.80795267 252.47034091 276.84236571 245.98463631 276.8820467 C241.00730739 276.90814268 236.03006085 276.91656051 231.05266953 276.92015648 C228.66119956 276.92503915 226.26973367 276.93670053 223.87833023 276.95519447 C220.53587679 276.97944027 217.19432037 276.97864746 213.85180664 276.97167969 C212.36327179 276.99089478 212.36327179 276.99089478 210.84466553 277.01049805 C204.16883555 276.9596324 204.16883555 276.9596324 200.91769409 274.68132019 C198.95222354 271.62639527 198.64643348 268.52385109 198.14038086 265.00170898 C196.26493243 254.38057 191.26477929 245.24614094 186.29125977 235.81030273 C185.67943848 234.64756836 185.06761719 233.48483398 184.43725586 232.28686523 C183.87619141 231.24409424 183.31512695 230.20132324 182.73706055 229.12695312 C181.51538086 226.50170898 181.51538086 226.50170898 181.51538086 223.50170898 C180.85538086 223.50170898 180.19538086 223.50170898 179.51538086 223.50170898 C178.19538086 220.86170898 176.87538086 218.22170898 175.51538086 215.50170898 C172.77188722 218.61777374 172.13777265 220.57024489 172.11474609 224.69750977 C172.10140732 225.73183136 172.08806854 226.76615295 172.07432556 227.83181763 C172.07420975 228.9423349 172.07409393 230.05285217 172.07397461 231.19702148 C172.06076675 232.34081268 172.0475589 233.48460388 172.03395081 234.66305542 C171.99302706 238.31763155 171.97136831 241.97195535 171.95288086 245.62670898 C171.92913397 249.28852763 171.9010941 252.95010721 171.86109924 256.61178589 C171.83664639 258.89093691 171.821866 261.17021541 171.81748962 263.44949341 C171.80730301 264.47751068 171.79711639 265.50552795 171.78662109 266.56469727 C171.78020851 267.92559982 171.78020851 267.92559982 171.77366638 269.31399536 C171.51538086 271.50170898 171.51538086 271.50170898 169.51538086 273.50170898 C166.80053711 273.84545898 166.80053711 273.84545898 163.57788086 274.00170898 C158.74035189 274.21275097 158.74035189 274.21275097 154.51538086 276.50170898 C152.4707346 276.75618458 152.4707346 276.75618458 150.08143616 276.7624054 C149.17436417 276.7694902 148.26729218 276.77657501 147.33273315 276.78387451 C146.3399234 276.78139709 145.34711365 276.77891968 144.32421875 276.77636719 C143.27682022 276.78147812 142.22942169 276.78658905 141.15028381 276.79185486 C137.67947718 276.80578301 134.2088684 276.80479166 130.73803711 276.80249023 C128.33051987 276.80637535 125.92300332 276.81070963 123.51548767 276.81547546 C118.46570617 276.82294459 113.41599458 276.82264133 108.36621094 276.81738281 C101.88830432 276.81158689 95.41068349 276.82851905 88.93282413 276.85172749 C83.95977601 276.86644416 78.98679704 276.86733934 74.013731 276.86421776 C71.6250699 276.864732 69.23640502 276.86998884 66.84776497 276.88002968 C63.51029906 276.89233668 60.17339412 276.88563658 56.8359375 276.87402344 C55.84515198 276.88166718 54.85436646 276.88931091 53.83355713 276.89718628 C52.92366531 276.89017197 52.0137735 276.88315765 51.0763092 276.87593079 C50.28746369 276.87609853 49.49861818 276.87626627 48.68586826 276.87643909 C45.92972889 276.4005974 44.55604981 275.38560333 42.51538086 273.50170898 C41.56053162 270.91493225 41.56053162 270.91493225 40.90771484 267.74023438 C40.65103531 266.53177353 40.39435577 265.32331268 40.12989807 264.07823181 C39.86094983 262.7311709 39.59231999 261.38404638 39.32397461 260.03686523 C39.0280974 258.61291979 38.73081206 257.18926633 38.43223572 255.7658844 C37.61449305 251.84669748 36.81721348 247.92358152 36.02309418 243.99954987 C35.15885034 239.74765512 34.27552242 235.49972144 33.39477539 231.2512207 C31.29455065 221.09981098 29.22350049 210.9425448 27.15692139 200.78424072 C26.1978368 196.07191754 25.23642046 191.36007032 24.27514648 186.64819336 C23.89276958 184.77332597 23.5103945 182.89845822 23.12802124 181.02359009 C22.37291443 177.32150094 21.61735646 173.61950425 20.86148071 169.91757202 C20.48842743 168.0899937 20.11541095 166.26240787 19.74243164 164.43481445 C19.5589599 163.53584127 19.37548817 162.6368681 19.18645668 161.71065331 C18.05182951 156.14636741 16.92463746 150.58062572 15.80255604 145.01379681 C15.07014792 141.38335178 14.33414761 137.75364024 13.59756279 134.1240406 C13.25207483 132.41690135 12.90826452 130.7094216 12.56624031 129.00158501 C12.09579769 126.65316354 11.61959368 124.30597866 11.14208984 121.95898438 C11.00622152 121.27292933 10.8703532 120.58687428 10.73036766 119.88002968 C10.17857258 117.19197701 9.58166458 114.664024 8.54264832 112.11968994 C7.01948887 108.23793314 6.28893438 104.23410654 5.45239258 100.15673828 C5.25702911 99.22276215 5.06166565 98.28878601 4.86038208 97.32650757 C4.21708457 94.24396919 3.58072591 91.16004998 2.94506836 88.07592773 C2.49969928 85.9274382 2.05415018 83.77898597 1.60842896 81.63056946 C0.67558106 77.12807191 -0.25356695 72.62482901 -1.18041992 68.12109375 C-2.36669269 62.3593716 -3.56440366 56.60009496 -4.76521492 50.84138775 C-5.6886337 46.40462545 -6.60476805 41.96638213 -7.51885605 37.52768898 C-7.95730327 35.40417491 -8.39826915 33.28117922 -8.84183121 31.15872765 C-9.46227155 28.18560952 -10.07256566 25.21057647 -10.68041992 22.23486328 C-10.8642926 21.36445908 -11.04816528 20.49405487 -11.23760986 19.59727478 C-13.82756366 6.75742467 -13.82756366 6.75742467 -11.01490784 2.0330658 C-7.41753434 -0.14410174 -4.08148725 -0.04909322 0 0 Z M-5.48461914 7.50170898 C-5.48461914 9.15170898 -5.48461914 10.80170898 -5.48461914 12.50170898 C-4.82461914 12.50170898 -4.16461914 12.50170898 -3.48461914 12.50170898 C-3.43445648 13.11033279 -3.38429382 13.7189566 -3.33261108 14.34602356 C-2.78516718 20.42243233 -1.84658827 26.29773275 -0.58618164 32.26342773 C-0.39557663 33.18727264 -0.20497162 34.11111755 -0.0085907 35.06295776 C0.61997097 38.10597717 1.2552746 41.14754943 1.89038086 44.18920898 C2.80304025 48.59754741 3.71196553 53.00665334 4.62084961 57.41577148 C4.8569545 58.55891312 5.09305939 59.70205475 5.33631897 60.87983704 C7.78331484 72.74984422 10.14135927 84.63718654 12.50018311 96.52496338 C15.87920662 113.54393643 19.30316182 130.54346769 23.08325195 147.47827148 C25.60088055 158.76704263 27.92390229 170.09264769 30.20776367 181.43066406 C30.48347875 182.78898134 30.75919484 184.1472984 31.03491211 185.50561523 C31.3922644 187.28174194 31.3922644 187.28174194 31.75683594 189.09375 C32.53980523 192.61144178 33.51381134 196.04071311 34.51538086 199.50170898 C34.88404061 201.08812 35.23349813 202.67918864 35.55834961 204.27514648 C35.83328247 205.61186401 35.83328247 205.61186401 36.11376953 206.97558594 C36.30817627 207.93295654 36.50258301 208.89032715 36.70288086 209.87670898 C37.13967462 212.00315626 37.57721885 214.12944947 38.01538086 216.25561523 C38.25256836 217.40690918 38.48975586 218.55820312 38.73413086 219.74438477 C39.58614045 223.84201838 40.45437825 227.93595854 41.32788086 232.02905273 C41.48299637 232.75650696 41.63811188 233.48396118 41.79792786 234.23345947 C42.41682877 237.13478703 43.03600493 240.03605137 43.65805054 242.93670654 C45.2695613 250.45356119 46.83677156 257.9638103 48.09667969 265.54931641 C48.32948145 267.49684792 48.32948145 267.49684792 49.51538086 268.50170898 C51.78529973 268.59610877 54.05820053 268.61913125 56.33007812 268.61523438 C57.05378821 268.61535491 57.7774983 268.61547544 58.523139 268.61559963 C60.87605249 268.61485061 63.2288877 268.60722292 65.58178711 268.59936523 C67.03031374 268.59789578 68.4788409 268.59687509 69.92736816 268.59631348 C75.31088047 268.59106099 80.69438143 268.57709991 86.07788086 268.56420898 C98.10225586 268.54358398 110.12663086 268.52295898 122.51538086 268.50170898 C123.01038086 197.71670898 123.01038086 197.71670898 123.51538086 125.50170898 C143.31538086 125.50170898 163.11538086 125.50170898 183.51538086 125.50170898 C186.48538086 131.77170898 189.45538086 138.04170898 192.51538086 144.50170898 C194.26042675 147.9195759 196.00733315 151.31431129 197.82788086 154.68920898 C206.18439268 170.31922869 206.18439268 170.31922869 208.32788086 176.12670898 C210.92683869 182.80676124 214.24731752 189.13082146 217.51538086 195.50170898 C217.84538086 195.50170898 218.17538086 195.50170898 218.51538086 195.50170898 C219.01038086 160.85170898 219.01038086 160.85170898 219.51538086 125.50170898 C229.41538086 125.17170898 239.31538086 124.84170898 249.51538086 124.50170898 C249.51538086 118.88233086 249.44754727 115.21707531 248.2434082 110.00585938 C247.82667343 108.16186806 247.82667343 108.16186806 247.40151978 106.28062439 C247.25115894 105.63212965 247.10079811 104.98363491 246.94588089 104.31548882 C246.12344797 100.76237991 245.33211423 97.20231284 244.5378418 93.64282227 C244.37077791 92.89678836 244.20371403 92.15075445 244.0315876 91.38211346 C242.17422089 83.0480934 240.47945409 74.68257779 238.80444336 66.31030273 C238.65324791 65.55549244 238.50205246 64.80068214 238.34627533 64.02299881 C237.58190361 60.20415055 236.82022936 56.38477369 236.06079102 52.56494141 C235.28091281 48.6423558 234.49656163 44.72067943 233.71094704 40.79923916 C233.09522577 37.72397416 232.48142202 34.64832897 231.86823654 31.57255745 C231.57930424 30.12408417 231.28987065 28.67571077 230.999897 27.2274456 C230.5990243 25.22345498 230.20066324 23.21898084 229.80297852 21.21435547 C229.57760406 20.08287582 229.35222961 18.95139618 229.12002563 17.78562927 C228.49178054 14.37353193 228.00603553 10.93629166 227.51538086 7.50170898 C195.50538086 7.50170898 163.49538086 7.50170898 130.51538086 7.50170898 C129.19538086 15.42170898 127.87538086 23.34170898 126.51538086 31.50170898 C124.32788086 42.43920898 124.32788086 42.43920898 123.34741211 47.09155273 C122.5889747 50.85487481 122.11853898 54.60316988 121.76196289 58.42431641 C121.41171473 61.37507043 120.73236169 64.22216796 120.05053711 67.11108398 C119.45495915 69.77162201 118.98141907 72.44056749 118.51538086 75.12670898 C117.96903543 78.22410041 117.33997797 81.10014236 116.45288086 84.12670898 C115.51595076 87.49965733 115.11860814 90.61846338 114.85913086 94.09545898 C114.51538086 96.50170898 114.51538086 96.50170898 113.59301758 99.58837891 C112.35749542 103.84766443 111.63768013 108.14808493 110.92944336 112.52124023 C110.63519197 114.28491535 110.34092045 116.04858711 110.04663086 117.81225586 C109.59566589 120.54501612 109.14631443 123.2780345 108.69799805 126.01123047 C106.67968812 138.27436524 104.34906851 150.39977122 101.51538086 162.50170898 C101.3901001 161.68943848 101.26481934 160.87716797 101.13574219 160.0402832 C98.82337835 145.07546145 96.47569429 130.12020593 93.95288086 115.18920898 C92.13177503 104.40505838 90.46648102 93.60653774 88.89624023 82.78320312 C87.91139973 76.03754817 86.81647989 69.32725331 85.5847168 62.62280273 C84.62545542 57.32747308 83.87174755 52.02123986 83.14038086 46.68920898 C81.23609496 33.57893296 78.84422962 20.54326203 76.51538086 7.50170898 C49.45538086 7.50170898 22.39538086 7.50170898 -5.48461914 7.50170898 Z M284.51538086 7.50170898 C283.106422 13.13754441 281.89005527 18.55287524 280.95288086 24.25170898 C280.82067139 25.04391846 280.68846191 25.83612793 280.55224609 26.65234375 C279.86197768 30.91760382 279.33362287 35.12204032 279.07788086 39.43920898 C278.74556072 44.20033411 277.87634938 48.73113945 276.82788086 53.37670898 C274.23380948 64.94592439 272.51843026 76.65886932 270.70996094 88.37036133 C270.58898544 89.15324524 270.46800995 89.93612915 270.34336853 90.74273682 C270.10213286 92.30823966 269.86226482 93.87395389 269.62379456 95.43988037 C269.00485481 99.47471177 268.34789184 103.49850291 267.62915039 107.5168457 C267.48546524 108.33140732 267.34178009 109.14596893 267.19374084 109.98521423 C266.91850129 111.53346021 266.63593249 113.08042809 266.3447113 114.62574768 C265.63376436 118.64793054 265.7113994 121.55270626 266.51538086 125.50170898 C266.61322654 127.52271907 266.66125105 129.54643886 266.67359924 131.56977844 C266.68338806 132.78828995 266.69317688 134.00680145 266.70326233 135.26223755 C266.70916566 136.60418662 266.71497616 137.9461361 266.72070312 139.28808594 C266.73028795 140.70752748 266.74029838 142.1269662 266.7507019 143.54640198 C266.7776916 147.39307259 266.79873321 151.23975539 266.81870389 155.08646798 C266.84060014 159.10903398 266.867971 163.13156265 266.89476013 167.15409851 C266.94463787 174.76834452 266.98959491 182.3826113 267.0327825 189.99689788 C267.08219695 198.66676468 267.13709946 207.33659401 267.19246209 216.00642455 C267.30620661 233.83815276 267.41233755 251.6699155 267.51538086 269.50170898 C281.04538086 269.50170898 294.57538086 269.50170898 308.51538086 269.50170898 C309.55178711 264.6715918 310.58819336 259.84147461 311.65600586 254.86499023 C312.32074223 251.77956541 312.98581733 248.69422124 313.65209961 245.60913086 C314.706326 240.72758677 315.75938452 235.84581381 316.80493164 230.96240234 C317.6492916 227.01905961 318.49935089 223.07698274 319.35314178 219.13567162 C319.67560928 217.64245266 319.99612596 216.14881084 320.31452179 214.6547184 C322.0752653 206.39913552 324.04757317 198.30362365 326.67410278 190.26914978 C327.92623217 186.15018598 328.57445206 182.010686 329.14038086 177.75170898 C330.14327471 170.60012067 331.16773543 163.4878026 333.48779297 156.62548828 C334.51318221 153.50839269 335.28289065 150.42653226 335.99584961 147.22436523 C336.26921143 146.00475098 336.54257324 144.78513672 336.82421875 143.52856445 C337.11718506 142.20713013 337.4100702 140.88567781 337.70288086 139.56420898 C338.01174361 138.18019003 338.32091262 136.79623939 338.63037109 135.41235352 C339.11091347 133.26308758 339.5911898 131.11376548 340.07026672 128.96417236 C341.1397919 124.16750584 342.22444181 119.37450743 343.32006836 114.58374023 C346.15572335 102.16322595 348.91239429 89.73618891 351.45288086 77.25170898 C353.74249247 66.00795472 356.20886704 54.81238384 358.76538086 43.62670898 C358.93818573 42.86805542 359.1109906 42.10940186 359.28903198 41.32775879 C359.78388277 39.15860326 360.28178246 36.99017443 360.78100586 34.82202148 C361.0675 33.57694824 361.35399414 32.331875 361.64916992 31.04907227 C362.77151504 26.45277166 363.97840024 21.93365731 365.64038086 17.50170898 C366.84204753 13.90254232 366.84204753 13.90254232 366.51538086 7.50170898 C339.45538086 7.50170898 312.39538086 7.50170898 284.51538086 7.50170898 Z M125.51538086 126.50170898 C125.51538086 173.69170898 125.51538086 220.88170898 125.51538086 269.50170898 C139.70538086 269.50170898 153.89538086 269.50170898 168.51538086 269.50170898 C168.84538086 245.08170898 169.17538086 220.66170898 169.51538086 195.50170898 C173.24850586 202.94733398 176.98163086 210.39295898 180.82788086 218.06420898 C182.00133057 220.40200439 183.17478027 222.7397998 184.38378906 225.1484375 C185.31973997 227.01741668 186.25554097 228.88647095 187.19116211 230.75561523 C187.67242554 231.71302612 188.15368896 232.67043701 188.64953613 233.65686035 C191.09770616 238.55256632 193.39573858 243.45604303 195.51538086 248.50170898 C196.31477887 250.1837429 197.12877967 251.85895475 197.96069336 253.52514648 C198.39768555 254.40041992 198.83467773 255.27569336 199.28491211 256.17749023 C199.7322168 257.06823242 200.17952148 257.95897461 200.64038086 258.87670898 C201.09541992 259.7906543 201.55045898 260.70459961 202.01928711 261.64624023 C202.45370117 262.5137793 202.88811523 263.38131836 203.33569336 264.27514648 C203.92761475 265.45729736 203.92761475 265.45729736 204.53149414 266.66333008 C205.38086808 268.46378873 205.38086808 268.46378873 206.51538086 269.50170898 C225.98538086 269.50170898 245.45538086 269.50170898 265.51538086 269.50170898 C265.51538086 222.31170898 265.51538086 175.12170898 265.51538086 126.50170898 C250.66538086 126.50170898 235.81538086 126.50170898 220.51538086 126.50170898 C220.18538086 151.58170898 219.85538086 176.66170898 219.51538086 202.50170898 C215.88538086 194.91170898 212.25538086 187.32170898 208.51538086 179.50170898 C204.5646172 172.0069958 204.5646172 172.0069958 200.58959961 164.52514648 C198.63559472 160.80184789 197.02582958 157.03597243 195.57006836 153.09155273 C192.97315892 146.71469732 189.63628349 140.63379502 186.51538086 134.50170898 C185.19538086 131.86170898 183.87538086 129.22170898 182.51538086 126.50170898 C163.70538086 126.50170898 144.89538086 126.50170898 125.51538086 126.50170898 Z " fill="#F9F7F7" transform="translate(75.484619140625,117.498291015625)"/>
<path d="M0 0 C0.71285156 0.3609375 1.42570312 0.721875 2.16015625 1.09375 C1.83015625 3.07375 1.50015625 5.05375 1.16015625 7.09375 C-0.15984375 7.09375 -1.47984375 7.09375 -2.83984375 7.09375 C-2.34484375 8.57875 -2.34484375 8.57875 -1.83984375 10.09375 C-1.71202589 12.76769964 -1.79592504 15.41470857 -1.83984375 18.09375 C-3.15984375 18.42375 -4.47984375 18.75375 -5.83984375 19.09375 C-5.83984375 19.75375 -5.83984375 20.41375 -5.83984375 21.09375 C-4.84984375 21.09375 -3.85984375 21.09375 -2.83984375 21.09375 C-2.83984375 22.74375 -2.83984375 24.39375 -2.83984375 26.09375 C-1.84984375 26.09375 -0.85984375 26.09375 0.16015625 26.09375 C0.16015625 27.08375 0.16015625 28.07375 0.16015625 29.09375 C-4.70035971 31.68602518 -9.49255508 31.28064553 -14.83984375 31.09375 C-14.83984375 30.10375 -14.83984375 29.11375 -14.83984375 28.09375 C-15.82984375 28.09375 -16.81984375 28.09375 -17.83984375 28.09375 C-17.17984375 29.74375 -16.51984375 31.39375 -15.83984375 33.09375 C-17.15984375 32.76375 -18.47984375 32.43375 -19.83984375 32.09375 C-19.83984375 30.44375 -19.83984375 28.79375 -19.83984375 27.09375 C-18.18984375 26.76375 -16.53984375 26.43375 -14.83984375 26.09375 C-15.49984375 25.165625 -16.15984375 24.2375 -16.83984375 23.28125 C-19.6230151 18.41812854 -19.5471383 13.55002228 -18.83984375 8.09375 C-17.52734375 4.96875 -17.52734375 4.96875 -15.83984375 3.09375 C-14.84984375 2.76375 -13.85984375 2.43375 -12.83984375 2.09375 C-12.50984375 1.43375 -12.17984375 0.77375 -11.83984375 0.09375 C-16.29484375 0.58875 -16.29484375 0.58875 -20.83984375 1.09375 C-21.14921875 2.0425 -21.45859375 2.99125 -21.77734375 3.96875 C-22.83984375 7.09375 -22.83984375 7.09375 -23.83984375 9.09375 C-23.91077217 11.3010423 -23.923994 13.51042452 -23.90234375 15.71875 C-23.89332031 16.90726562 -23.88429687 18.09578125 -23.875 19.3203125 C-23.86339844 20.23554688 -23.85179687 21.15078125 -23.83984375 22.09375 C-25.15984375 21.10375 -26.47984375 20.11375 -27.83984375 19.09375 C-28.41734375 19.3825 -28.99484375 19.67125 -29.58984375 19.96875 C-31.67317708 21.01041667 -33.75651042 22.05208333 -35.83984375 23.09375 C-34.70448849 20.63381361 -33.44594596 18.52196289 -31.90234375 16.28125 C-29.74268204 13.19034867 -29.74268204 13.19034867 -28.58984375 9.78125 C-26.56853327 4.7616623 -22.7423052 0.76017547 -18.83984375 -2.90625 C-11.42959889 -5.37633162 -6.80316408 -3.29628408 0 0 Z " fill="#9F2828" transform="translate(239.83984375,286.90625)"/>
<path d="M0 0 C1.06367294 0.00222061 2.12734589 0.00444122 3.22325134 0.00672913 C5.02500572 0.00684242 5.02500572 0.00684242 6.86315918 0.00695801 C8.17042465 0.01211929 9.47769012 0.01728058 10.8245697 0.02259827 C12.16835477 0.02446253 13.51214052 0.02588639 14.85592651 0.02688599 C18.39873622 0.0307105 21.94150515 0.0405402 25.48429871 0.05158997 C29.09706572 0.06180552 32.7098393 0.06638392 36.32261658 0.07142639 C43.41573225 0.08216254 50.50882019 0.09923816 57.60191345 0.12025452 C67.25431041 18.17424251 67.25431041 18.17424251 70.72691345 25.87025452 C73.68465057 32.31822688 76.92782524 38.52157513 80.4495697 44.67884827 C81.01997986 45.88734436 81.01997986 45.88734436 81.60191345 47.12025452 C80.60191345 49.12025452 80.60191345 49.12025452 78.60191345 50.12025452 C71.75921219 36.78083126 71.75921219 36.78083126 69.66441345 31.24525452 C66.4344551 22.7911896 62.02504885 14.78221524 57.8558197 6.76087952 C56.60191345 4.12025452 56.60191345 4.12025452 56.60191345 2.12025452 C37.79191345 2.12025452 18.98191345 2.12025452 -0.39808655 2.12025452 C-0.39808655 14.99025452 -0.39808655 27.86025452 -0.39808655 41.12025452 C-1.05808655 41.12025452 -1.71808655 41.12025452 -2.39808655 41.12025452 C-2.39808655 75.44025452 -2.39808655 109.76025452 -2.39808655 145.12025452 C-26.81808655 145.12025452 -51.23808655 145.12025452 -76.39808655 145.12025452 C-76.39808655 144.79025452 -76.39808655 144.46025452 -76.39808655 144.12025452 C-52.30808655 144.12025452 -28.21808655 144.12025452 -3.39808655 144.12025452 C-3.40968811 133.80904358 -3.42128967 123.49783264 -3.4332428 112.87416077 C-3.43834922 106.36179073 -3.44320422 99.84942213 -3.44691467 93.33705139 C-3.4528579 82.9886577 -3.45986021 72.64027213 -3.473526 62.29188538 C-3.48347216 54.75660873 -3.48993981 47.22133863 -3.49217504 39.6860556 C-3.49348227 35.69369599 -3.49656885 31.70135515 -3.5038166 27.70900154 C-3.51057575 23.95558354 -3.51270373 20.20219213 -3.51119423 16.44876862 C-3.51147061 15.06722558 -3.51347636 13.6856817 -3.51729202 12.30414391 C-3.52222754 10.42588307 -3.5204845 8.54760814 -3.51834106 6.66934204 C-3.51926286 5.61573266 -3.52018465 4.56212328 -3.52113438 3.47658634 C-3.35376255 0.27146216 -3.20814057 0.16087551 0 0 Z " fill="#B8AAAA" transform="translate(201.39808654785156,241.87974548339844)"/>
<path d="M0 0 C-0.25 1.8125 -0.25 1.8125 -1 4 C-1.66 4.391875 -2.32 4.78375 -3 5.1875 C-5.89381791 7.81002248 -5.65717224 10.36470437 -5.921875 14.13671875 C-5.96054688 15.05904297 -5.96054688 15.05904297 -6 16 C-5.01 16 -4.02 16 -3 16 C-3 20.29 -3 24.58 -3 29 C-3.66 27.68 -4.32 26.36 -5 25 C-5.495 26.485 -5.495 26.485 -6 28 C-6.99 28 -7.98 28 -9 28 C-9.09688221 22.55306686 -9.12862175 17.36095333 -8 12 C-8.66 12 -9.32 12 -10 12 C-10 12.66 -10 13.32 -10 14 C-12.72501908 14.90833969 -14.62233971 15.18359985 -17.44921875 15.31640625 C-18.72055664 15.37924805 -18.72055664 15.37924805 -20.01757812 15.44335938 C-20.89865234 15.48267578 -21.77972656 15.52199219 -22.6875 15.5625 C-23.58017578 15.60568359 -24.47285156 15.64886719 -25.39257812 15.69335938 C-27.59490108 15.79935353 -29.79733473 15.90142051 -32 16 C-32.66 14.68 -33.32 13.36 -34 12 C-33.01 12 -32.02 12 -31 12 C-30.67 11.01 -30.34 10.02 -30 9 C-33.5219721 8.91995518 -36.61981469 8.95994298 -40 10 C-39.25 4.25 -39.25 4.25 -37 2 C-34.3137207 1.8046875 -34.3137207 1.8046875 -30.92578125 1.875 C-29.70052734 1.89046875 -28.47527344 1.9059375 -27.21289062 1.921875 C-24.6321536 1.97356728 -22.05142425 2.02564465 -19.47070312 2.078125 C-12.74712087 2.16256559 -6.35087274 0 0 0 Z " fill="#383838" transform="translate(249,136)"/>
<path d="M0 0 C14.85 0 29.7 0 45 0 C45 6.93 45 13.86 45 21 C42.525 20.01 42.525 20.01 40 19 C40 18.01 40 17.02 40 16 C38.14603196 14.33412772 38.14603196 14.33412772 35.75 12.875 C34.96109375 12.35679687 34.1721875 11.83859375 33.359375 11.3046875 C31.19230898 10.10634305 29.41797978 9.45475766 27 9 C27 8.34 27 7.68 27 7 C24.95857606 6.83038614 22.91684689 6.66444404 20.875 6.5 C19.73804688 6.4071875 18.60109375 6.314375 17.4296875 6.21875 C14.04239139 5.95494964 14.04239139 5.95494964 10.8125 6.0625 C6.89485106 5.97544113 4.50325061 4.68156029 1 3 C0.67 3.99 0.34 4.98 0 6 C0 4.02 0 2.04 0 0 Z " fill="#FA4444" transform="translate(296,244)"/>
<path d="M0 0 C0.83917969 0.20496094 1.67835938 0.40992188 2.54296875 0.62109375 C13.66621343 3.11279593 24.62455037 3.70250594 36 4 C37.4606285 6.64738916 38 7.89448334 38 11 C30.27227893 11.13690844 22.69118596 10.75166913 15 10 C15.886875 10.433125 16.77375 10.86625 17.6875 11.3125 C19.72312727 12.34951767 21.73253463 13.44292791 23.6875 14.625 C26.02762474 16.12756357 26.02762474 16.12756357 29 17 C29 17.66 29 18.32 29 19 C23.4978184 19.23136637 18.86146222 18.4350346 13.5625 17 C12.46518555 16.71382812 12.46518555 16.71382812 11.34570312 16.421875 C9.56180334 15.95549597 7.78060155 15.47881722 6 15 C6 14.34 6 13.68 6 13 C7.65 12.67 9.3 12.34 11 12 C10.67 11.67 10.34 11.34 10 11 C8.906875 11.020625 7.81375 11.04125 6.6875 11.0625 C3.18560535 11.00314585 1.92748324 10.62637958 -1 9 C-1.99 9.495 -1.99 9.495 -3 10 C-2.01 6.7 -1.02 3.4 0 0 Z " fill="#C6C6C6" transform="translate(262,137)"/>
<path d="M0 0 C3.34934806 0.30050226 4.21676938 0.86570204 7.0625 3 C10.37383738 7.58492868 9.4534623 13.38078448 9.0625 18.75 C5.3125 19.875 5.3125 19.875 3.0625 18.75 C3.7225 20.4 4.3825 22.05 5.0625 23.75 C3.9375 25.3125 3.9375 25.3125 2.0625 26.75 C-0.9375 26.75 -0.9375 26.75 -3.9375 25.75 C-8.30888824 20.17271156 -8.68087659 13.60199288 -7.9375 6.75 C-6.13243492 2.38775938 -4.71906947 0.41035387 0 0 Z " fill="#4E1313" transform="translate(315.9375,279.25)"/>
<path d="M0 0 C0.495 1.98 0.495 1.98 1 4 C5.95 4 10.9 4 16 4 C16 4.33 16 4.66 16 5 C1.15 5 -13.7 5 -29 5 C-29 30.41 -29 55.82 -29 82 C-31.81353938 80.59323031 -32.20278813 78.84350445 -33.53125 76.01171875 C-34.01207031 74.99529297 -34.49289062 73.97886719 -34.98828125 72.93164062 C-35.48714844 71.86107422 -35.98601562 70.79050781 -36.5 69.6875 C-37.48944195 67.58717297 -38.47901994 65.48691003 -39.46875 63.38671875 C-39.90638672 62.45045654 -40.34402344 61.51419434 -40.79492188 60.54956055 C-41.94390959 58.03624606 -41.94390959 58.03624606 -43.22070312 55.85083008 C-44 54 -44 54 -43 51 C-41.34999614 53.93517601 -39.70572568 56.87352474 -38.0625 59.8125 C-37.59392578 60.64587891 -37.12535156 61.47925781 -36.64257812 62.33789062 C-36.19462891 63.14033203 -35.74667969 63.94277344 -35.28515625 64.76953125 C-34.66459351 65.87711792 -34.66459351 65.87711792 -34.03149414 67.00708008 C-33 69 -33 69 -32 72 C-31.98969254 71.15031143 -31.97938507 70.30062286 -31.96876526 69.42518616 C-31.87096311 61.43456059 -31.76847382 53.44401207 -31.66066074 45.45351505 C-31.60539417 41.34509583 -31.55196835 37.23666954 -31.50268555 33.12817383 C-31.45509687 29.16646874 -31.40275633 25.20485282 -31.34705925 21.24325371 C-31.32661069 19.72854253 -31.30790183 18.21380688 -31.29092598 16.69905281 C-31.26693701 14.58451574 -31.2368755 12.47014865 -31.20532227 10.35571289 C-31.18977798 9.14992081 -31.1742337 7.94412872 -31.15821838 6.70179749 C-31 4 -31 4 -30 3 C-27.78144736 2.91216458 -25.56011504 2.89305391 -23.33984375 2.90234375 C-22.34314415 2.90446617 -22.34314415 2.90446617 -21.3263092 2.90663147 C-19.19666101 2.91224482 -17.06711661 2.92479946 -14.9375 2.9375 C-13.49674631 2.94251329 -12.05599097 2.94707649 -10.61523438 2.95117188 C-7.07678898 2.96221855 -3.53840461 2.97949208 0 3 C0 2.01 0 1.02 0 0 Z " fill="#F5D2D2" transform="translate(325,239)"/>
<path d="M0 0 C1.65 0.33 3.3 0.66 5 1 C5.33 3.31 5.66 5.62 6 8 C7.98 8.66 9.96 9.32 12 10 C11.43945339 13.36327963 10.58158962 15.99112219 9 19 C8.30132812 18.9278125 7.60265625 18.855625 6.8828125 18.78125 C5.97273438 18.6884375 5.06265625 18.595625 4.125 18.5 C3.22007812 18.4071875 2.31515625 18.314375 1.3828125 18.21875 C-0.93313211 17.96952705 -0.93313211 17.96952705 -3 18 C-3 17.01 -3 16.02 -3 15 C-3.99 15.66 -4.98 16.32 -6 17 C-8.6875 17.125 -8.6875 17.125 -11 17 C-10.34 15.35 -9.68 13.7 -9 12 C-7.68 12 -6.36 12 -5 12 C-5 11.34 -5 10.68 -5 10 C-4.01 10 -3.02 10 -2 10 C-1.34 10.66 -0.68 11.32 0 12 C0.33 11.34 0.66 10.68 1 10 C-1.67954204 8.43693381 -4.18306947 7.70438013 -7.1875 7.0625 C-8.445625 6.711875 -9.70375 6.36125 -11 6 C-11.33 5.01 -11.66 4.02 -12 3 C-11.07767578 3.17789062 -11.07767578 3.17789062 -10.13671875 3.359375 C-7.71358189 3.74584021 -5.45506404 4.04788245 -3 4 C-0.85745428 2.23333021 -0.85745428 2.23333021 0 0 Z " fill="#CF3333" transform="translate(322,304)"/>
<path d="M0 0 C0 0.66 0 1.32 0 2 C0.639375 2.2475 1.27875 2.495 1.9375 2.75 C4 4 4 4 4.75 6.125 C4.87375 7.053125 4.87375 7.053125 5 8 C4.01 7.67 3.02 7.34 2 7 C2.33 7.66 2.66 8.32 3 9 C3.04022391 11.3329866 3.04320247 13.66706666 3 16 C2.34 16 1.68 16 1 16 C1 16.66 1 17.32 1 18 C-0.65 18 -2.3 18 -4 18 C-4 17.01 -4 16.02 -4 15 C-4.99 15 -5.98 15 -7 15 C-6.484375 16.11375 -5.96875 17.2275 -5.4375 18.375 C-4.963125 19.57125 -4.48875 20.7675 -4 22 C-4.33 22.66 -4.66 23.32 -5 24 C-8.14247913 21.14320079 -9.80984074 18.65710211 -10.30078125 14.37890625 C-10.34100322 4.7122258 -10.34100322 4.7122258 -7 1 C-4 0 -4 0 0 0 Z " fill="#390E0E" transform="translate(231,289)"/>
<path d="M0 0 C1.75091019 0.08754551 3.50079551 0.19573373 5.25 0.3125 C6.22453125 0.37050781 7.1990625 0.42851562 8.203125 0.48828125 C11.27829497 1.0509171 12.76347048 1.84334654 15 4 C15 4.66 15 5.32 15 6 C14.01 6.495 14.01 6.495 13 7 C14.2375 8.299375 14.2375 8.299375 15.5 9.625 C17.65865899 12.17890641 17.9876294 12.86639751 18.3125 16.375 C18.209375 17.24125 18.10625 18.1075 18 19 C18.99 19.33 19.98 19.66 21 20 C21 20.66 21 21.32 21 22 C21.99 22.33 22.98 22.66 24 23 C24 23.66 24 24.32 24 25 C22.68 24.67 21.36 24.34 20 24 C20 23.34 20 22.68 20 22 C19.34 22 18.68 22 18 22 C17.87625 22.639375 17.7525 23.27875 17.625 23.9375 C17.315625 24.9584375 17.315625 24.9584375 17 26 C16.34 26.33 15.68 26.66 15 27 C14.98582031 26.29875 14.97164063 25.5975 14.95703125 24.875 C14.62313787 18.23322892 13.64366774 12.99413323 9 8 C4.67177269 5.23575399 -0.02826866 5.17003512 -5 6 C-8.00333267 8.33336666 -8.00333267 8.33336666 -10 11 C-10.66 11 -11.32 11 -12 11 C-12 9.68 -12 8.36 -12 7 C-8.15152557 3.79293798 -4.96675157 2.47302396 0 2 C0 1.34 0 0.68 0 0 Z " fill="#5E1717" transform="translate(317,270)"/>
<path d="M0 0 C1.2375 0.12375 2.475 0.2475 3.75 0.375 C3.75 0.705 3.75 1.035 3.75 1.375 C2.1 1.375 0.45 1.375 -1.25 1.375 C-1.229375 2.48875 -1.20875 3.6025 -1.1875 4.75 C-1.25 8.375 -1.25 8.375 -2.25 10.375 C-2.91 10.375 -3.57 10.375 -4.25 10.375 C-4.25 11.365 -4.25 12.355 -4.25 13.375 C-3.59 13.375 -2.93 13.375 -2.25 13.375 C-2.25 15.025 -2.25 16.675 -2.25 18.375 C-0.6 18.375 1.05 18.375 2.75 18.375 C3.41 20.025 4.07 21.675 4.75 23.375 C3.625 24.9375 3.625 24.9375 1.75 26.375 C-1.25 26.375 -1.25 26.375 -4.25 25.375 C-8.62138824 19.79771156 -8.99337659 13.22699288 -8.25 6.375 C-6.3249421 1.72277675 -4.99017638 0.03539132 0 0 Z " fill="#5C1717" transform="translate(316.25,279.625)"/>
<path d="M0 0 C0.99 0.33 1.98 0.66 3 1 C2.3125 2.9375 2.3125 2.9375 1 5 C-2.35044668 5.9070968 -5.59608716 6.14883903 -9.0546875 6.24609375 C-9.99957031 6.27896484 -10.94445312 6.31183594 -11.91796875 6.34570312 C-13.8814002 6.40665509 -15.84494788 6.46397661 -17.80859375 6.51757812 C-23.21552704 6.71252198 -27.87611352 7.23732596 -33 9 C-32.25 3.25 -32.25 3.25 -30 1 C-27.234375 0.78881836 -27.234375 0.78881836 -23.75 0.83984375 C-21.87828125 0.8562793 -21.87828125 0.8562793 -19.96875 0.87304688 C-18.00421875 0.90495117 -18.00421875 0.90495117 -16 0.9375 C-13.41672112 0.97182506 -10.83338251 1.00199031 -8.25 1.02734375 C-6.52523437 1.05429321 -6.52523437 1.05429321 -4.765625 1.08178711 C-2.03994013 1.19521134 -2.03994013 1.19521134 0 0 Z " fill="#CDCDCD" transform="translate(242,137)"/>
<path d="M0 0 C0.56847656 0.28875 1.13695312 0.5775 1.72265625 0.875 C1.72265625 1.535 1.72265625 2.195 1.72265625 2.875 C-6.15234375 2 -6.15234375 2 -7.27734375 0.875 C-8.73293745 0.77641397 -10.19342294 0.74527857 -11.65234375 0.75 C-12.83957031 0.74613281 -12.83957031 0.74613281 -14.05078125 0.7421875 C-16.45077871 0.78882334 -16.45077871 0.78882334 -19.27734375 1.875 C-20.44817253 4.80414165 -20.44817253 4.80414165 -21.27734375 7.875 C-21.60734375 8.535 -21.93734375 9.195 -22.27734375 9.875 C-22.34827217 12.0822923 -22.361494 14.29167452 -22.33984375 16.5 C-22.33082031 17.68851562 -22.32179687 18.87703125 -22.3125 20.1015625 C-22.30089844 21.01679688 -22.28929687 21.93203125 -22.27734375 22.875 C-23.59734375 21.885 -24.91734375 20.895 -26.27734375 19.875 C-26.85484375 20.16375 -27.43234375 20.4525 -28.02734375 20.75 C-30.11067708 21.79166667 -32.19401042 22.83333333 -34.27734375 23.875 C-33.14198849 21.41506361 -31.88344596 19.30321289 -30.33984375 17.0625 C-28.18018204 13.97159867 -28.18018204 13.97159867 -27.02734375 10.5625 C-25.00603327 5.5429123 -21.1798052 1.54142547 -17.27734375 -2.125 C-10.69998595 -4.3174526 -6.00704647 -2.88819597 0 0 Z " fill="#481212" transform="translate(238.27734375,286.125)"/>
<path d="M0 0 C0.33 0.99 0.66 1.98 1 3 C-6.26 3 -13.52 3 -21 3 C-17.535 3.185625 -17.535 3.185625 -14 3.375 C-8.4578614 3.70847426 -3.31753485 4.37218321 2 6 C2.33 5.34 2.66 4.68 3 4 C3.99 4.33 4.98 4.66 6 5 C6 5.66 6 6.32 6 7 C3.41311598 8.29344201 2.06095913 7.89547595 -0.8125 7.5625 C-10.18524999 6.66767197 -19.59451678 6.91408707 -29 7 C-28.17480469 3.16259766 -28.17480469 3.16259766 -26.6015625 1.69921875 C-18.26482137 -2.56800645 -9.00808196 -0.84307583 0 0 Z " fill="#909090" transform="translate(262,189)"/>
<path d="M0 0 C0.78375 0.639375 1.5675 1.27875 2.375 1.9375 C4.79539281 3.98142313 4.79539281 3.98142313 7 5 C7 5.66 7 6.32 7 7 C7.825 6.9175 8.65 6.835 9.5 6.75 C15.78962345 7.19925882 20.689331 10.8135986 26 14 C26.99 14.33 27.98 14.66 29 15 C29 15.66 29 16.32 29 17 C23.4978184 17.23136637 18.86146222 16.4350346 13.5625 15 C12.83095703 14.80921875 12.09941406 14.6184375 11.34570312 14.421875 C9.56180334 13.95549597 7.78060155 13.47881722 6 13 C6 12.34 6 11.68 6 11 C7.65 10.67 9.3 10.34 11 10 C10.67 9.67 10.34 9.34 10 9 C8.906875 9.020625 7.81375 9.04125 6.6875 9.0625 C3.18560535 9.00314585 1.92748324 8.62637958 -1 7 C-1.99 7.495 -1.99 7.495 -3 8 C-1.125 2.25 -1.125 2.25 0 0 Z " fill="#505050" transform="translate(262,139)"/>
<path d="M0 0 C0.9075 0.33 1.815 0.66 2.75 1 C6.23476905 2.0199324 9.37820661 2.07279987 13 2 C17.80825809 1.9033516 21.49435899 2.36158509 26 4 C26 4.66 26 5.32 26 6 C26.72703125 6.10441406 27.4540625 6.20882812 28.203125 6.31640625 C31.25464651 7.06223902 33.17010987 8.16707204 35.75 9.9375 C36.91789062 10.72447266 36.91789062 10.72447266 38.109375 11.52734375 C40 13 40 13 41 15 C37.4051266 14.42482026 34.75982496 12.74776707 31.68359375 10.921875 C29.82731031 9.90544138 28.09020128 9.33443221 26 9 C26 8.34 26 7.68 26 7 C24.10314453 7.03480469 24.10314453 7.03480469 22.16796875 7.0703125 C20.5078184 7.08907126 18.84766167 7.10727135 17.1875 7.125 C16.35412109 7.14175781 15.52074219 7.15851563 14.66210938 7.17578125 C13.85966797 7.18222656 13.05722656 7.18867188 12.23046875 7.1953125 C11.12288208 7.21102295 11.12288208 7.21102295 9.99291992 7.22705078 C8 7 8 7 5 5 C4.01 5.33 3.02 5.66 2 6 C0 3 0 3 0 0 Z " fill="#A72929" transform="translate(297,247)"/>
<path d="M0 0 C4.455 0.99 4.455 0.99 9 2 C8.67 3.65 8.34 5.3 8 7 C1.25 9 1.25 9 -1 9 C-3.0078864 9.64252365 -5.00882592 10.30741771 -7 11 C-7 10.34 -7 9.68 -7 9 C-8.32 9 -9.64 9 -11 9 C-11 6.69 -11 4.38 -11 2 C-4.25 2.875 -4.25 2.875 -2 4 C-1.34 2.68 -0.68 1.36 0 0 Z " fill="#C83232" transform="translate(228,323)"/>
<path d="M0 0 C0.33 0 0.66 0 1 0 C1 24.42 1 48.84 1 74 C-3.10920641 69.89079359 -5.17378165 65.16561429 -7.75 60 C-8.26949219 58.989375 -8.78898437 57.97875 -9.32421875 56.9375 C-10.05318359 55.4834375 -10.05318359 55.4834375 -10.796875 54 C-11.24385742 53.113125 -11.69083984 52.22625 -12.15136719 51.3125 C-13 49 -13 49 -12 46 C-10.34999614 48.93517601 -8.70572568 51.87352474 -7.0625 54.8125 C-6.59392578 55.64587891 -6.12535156 56.47925781 -5.64257812 57.33789062 C-5.19462891 58.14033203 -4.74667969 58.94277344 -4.28515625 59.76953125 C-3.87144775 60.50792236 -3.45773926 61.24631348 -3.03149414 62.00708008 C-2 64 -2 64 -1 67 C-0.67 44.89 -0.34 22.78 0 0 Z " fill="#FEF9F9" transform="translate(294,244)"/>
<path d="M0 0 C0.93423645 3.01031744 1.04449911 3.86650268 0 7 C-1.155 6.71125 -2.31 6.4225 -3.5 6.125 C-7.26215714 5.65555684 -8.95376873 6.25115887 -11.9375 8.5625 C-13.29785878 9.70097502 -14.65189096 10.84704579 -16 12 C-22.86842055 17.27051408 -31.11150373 22 -40 22 C-40 21.34 -40 20.68 -40 20 C-28.76749764 14.21005033 -28.76749764 14.21005033 -22.8125 12.0625 C-16.62252291 9.69250877 -11.65707514 5.65707514 -7 1 C-6.01 1 -5.02 1 -4 1 C-4 1.66 -4 2.32 -4 3 C-3.34 3 -2.68 3 -2 3 C-2 2.34 -2 1.68 -2 1 C-1.34 0.67 -0.68 0.34 0 0 Z " fill="#872222" transform="translate(241,260)"/>
<path d="M0 0 C1.65 0.33 3.3 0.66 5 1 C5.12375 2.6396875 5.12375 2.6396875 5.25 4.3125 C5.63689209 8.03276664 5.63689209 8.03276664 8.0625 9.9375 C8.701875 10.288125 9.34125 10.63875 10 11 C9.195625 11.12375 8.39125 11.2475 7.5625 11.375 C6.716875 11.58125 5.87125 11.7875 5 12 C4.67 12.66 4.34 13.32 4 14 C3.34 14 2.68 14 2 14 C2 13.01 2 12.02 2 11 C-0.92728273 8.71306037 -3.68420083 7.77601025 -7.25 7 C-8.4875 6.67 -9.725 6.34 -11 6 C-11.33 5.01 -11.66 4.02 -12 3 C-11.07767578 3.17789062 -11.07767578 3.17789062 -10.13671875 3.359375 C-7.71358189 3.74584021 -5.45506404 4.04788245 -3 4 C-0.85745428 2.23333021 -0.85745428 2.23333021 0 0 Z " fill="#D43535" transform="translate(322,304)"/>
<path d="M0 0 C0 0.66 0 1.32 0 2 C0.99 1.67 1.98 1.34 3 1 C5.33299825 0.96045766 7.66708189 0.95598268 10 1 C10.33 1.66 10.66 2.32 11 3 C8.69 2.67 6.38 2.34 4 2 C4 2.66 4 3.32 4 4 C2.56328432 4.64757625 1.12559584 5.29299453 -0.3125 5.9375 C-1.11300781 6.29714844 -1.91351563 6.65679687 -2.73828125 7.02734375 C-5 8 -5 8 -8 9 C-7.67 11.31 -7.34 13.62 -7 16 C-7.99 16 -8.98 16 -10 16 C-10.33 13.69 -10.66 11.38 -11 9 C-10.34 9 -9.68 9 -9 9 C-9 7.68 -9 6.36 -9 5 C-8.34 4.67 -7.68 4.34 -7 4 C-7.33 3.01 -7.66 2.02 -8 1 C-5.10765685 0.17361624 -3.11257569 0 0 0 Z " fill="#CA3232" transform="translate(313,268)"/>
<path d="M0 0 C0.68578125 -0.01224609 1.3715625 -0.02449219 2.078125 -0.03710938 C5.81796797 -0.04802331 7.4349737 0.0608158 10.625 2.1875 C10.625 3.1775 10.625 4.1675 10.625 5.1875 C0.22046532 5.61704501 -10.05222487 4.32823871 -20.375 3.1875 C-20.375 2.8575 -20.375 2.5275 -20.375 2.1875 C-19.52035156 2.12691406 -18.66570312 2.06632813 -17.78515625 2.00390625 C-16.12806641 1.87822266 -16.12806641 1.87822266 -14.4375 1.75 C-13.33535156 1.66878906 -12.23320312 1.58757812 -11.09765625 1.50390625 C-7.28301828 1.06059825 -4.16398535 0.00386987 0 0 Z " fill="#B3B3B3" transform="translate(289.375,142.8125)"/>
<path d="M0 0 C4.75 0.75 4.75 0.75 7 3 C7 4.32 7 5.64 7 7 C7.99 7 8.98 7 10 7 C10 11.29 10 15.58 10 20 C9.34 18.68 8.68 17.36 8 16 C7.67 16.99 7.34 17.98 7 19 C6.01 19 5.02 19 4 19 C3.90311779 13.55306686 3.87137825 8.36095333 5 3 C3.35 2.67 1.7 2.34 0 2 C0 1.34 0 0.68 0 0 Z " fill="#B4B4B4" transform="translate(236,145)"/>
<path d="M0 0 C3.00854522 3.64043402 4.98206189 7.66780604 7.0625 11.875 C7.41376953 12.56980469 7.76503906 13.26460938 8.12695312 13.98046875 C10.0867562 17.91489382 11.72306024 21.77882091 13 26 C12.01 26.33 11.02 26.66 10 27 C-0.59387666 6.33468442 -0.59387666 6.33468442 0 0 Z " fill="#D5B1B1" transform="translate(270,265)"/>
<path d="M0 0 C3.16115776 1.36983503 3.9927092 1.9890638 6 5 C6.125 8.1875 6.125 8.1875 6 11 C6.99 11.33 7.98 11.66 9 12 C9 12.66 9 13.32 9 14 C9.99 14.33 10.98 14.66 12 15 C12 15.66 12 16.32 12 17 C10.68 16.67 9.36 16.34 8 16 C8 15.34 8 14.68 8 14 C7.34 14 6.68 14 6 14 C5.87625 14.639375 5.7525 15.27875 5.625 15.9375 C5.41875 16.618125 5.2125 17.29875 5 18 C4.34 18.33 3.68 18.66 3 19 C2.86722656 17.96359375 2.73445313 16.9271875 2.59765625 15.859375 C2.41939361 14.48956735 2.24100138 13.11977656 2.0625 11.75 C1.97548828 11.06808594 1.88847656 10.38617188 1.79882812 9.68359375 C1.3684062 6.39963389 0.91205869 3.18809706 0 0 Z " fill="#3E0F0F" transform="translate(329,278)"/>
<path d="M0 0 C1.875 0.3125 1.875 0.3125 4 1 C6 4 6 4 6 8 C5.34 8 4.68 8 4 8 C4 8.66 4 9.32 4 10 C4.66 10.33 5.32 10.66 6 11 C5.67 11.66 5.34 12.32 5 13 C3.35 13 1.7 13 0 13 C-0.19466332 11.20909747 -0.38051213 9.41723495 -0.5625 7.625 C-0.66691406 6.62726563 -0.77132813 5.62953125 -0.87890625 4.6015625 C-1 2 -1 2 0 0 Z " fill="#AD2B2B" transform="translate(272,324)"/>
<path d="M0 0 C6.71700347 -0.31985731 11.75726932 0.5206176 18 3 C18.33 2.34 18.66 1.68 19 1 C19.93423645 4.01031744 20.04449911 4.86650268 19 8 C16.8125 8.75 16.8125 8.75 14 9 C11.1875 7.1875 11.1875 7.1875 9 5 C9 4.34 9 3.68 9 3 C8.01 3 7.02 3 6 3 C6 2.34 6 1.68 6 1 C3.69 1.33 1.38 1.66 -1 2 C-0.67 1.34 -0.34 0.68 0 0 Z " fill="#B02C2C" transform="translate(222,286)"/>
<path d="M0 0 C0.33 1.32 0.66 2.64 1 4 C1.66 3.34 2.32 2.68 3 2 C3.33 5.96 3.66 9.92 4 14 C2.68 13.01 1.36 12.02 0 11 C-0.5775 11.28875 -1.155 11.5775 -1.75 11.875 C-4.875 13.4375 -4.875 13.4375 -8 15 C-6.84576027 12.49914724 -5.5573905 10.3499173 -4 8.0625 C-2.25538377 5.39105639 -1.0562707 2.99276699 0 0 Z " fill="#591616" transform="translate(212,295)"/>
<path d="M0 0 C0 2.64 0 5.28 0 8 C-0.66 8 -1.32 8 -2 8 C-2.33 8.99 -2.66 9.98 -3 11 C-3.66 10.67 -4.32 10.34 -5 10 C-5 12.31 -5 14.62 -5 17 C-5.66 17 -6.32 17 -7 17 C-7.56905158 4.96561287 -7.56905158 4.96561287 -4 1 C-1 0 -1 0 0 0 Z " fill="#691A1A" transform="translate(228,289)"/>
<path d="M0 0 C2.70373547 0.03883819 5.3659786 0.14694402 8.0625 0.3125 C8.80177734 0.34794922 9.54105469 0.38339844 10.30273438 0.41992188 C15.42289934 0.72005403 20.05811214 1.6256952 25 3 C25.33 2.34 25.66 1.68 26 1 C26.99 1.33 27.98 1.66 29 2 C29 2.66 29 3.32 29 4 C26.3361276 5.3319362 24.70680702 4.882689 21.75 4.5625 C15.74105584 3.97324518 9.86507169 4.0315536 3.8359375 4.2578125 C2.90007812 4.17273438 1.96421875 4.08765625 1 4 C0.34 3.01 -0.32 2.02 -1 1 C-0.67 0.67 -0.34 0.34 0 0 Z " fill="#474747" transform="translate(239,192)"/>
<path d="M0 0 C8.08299944 0.36740907 15.36454007 1.25950761 23 4 C23 4.66 23 5.32 23 6 C17.4978184 6.23136637 12.86146222 5.4350346 7.5625 4 C6.83095703 3.80921875 6.09941406 3.6184375 5.34570312 3.421875 C3.56180334 2.95549597 1.78060155 2.47881722 0 2 C0 1.34 0 0.68 0 0 Z " fill="#A8A8A8" transform="translate(268,150)"/>
<path d="M0 0 C4 0 4 0 6 1 C6 2.65 6 4.3 6 6 C4 7 4 7 1.0625 6.375 C-0.4534375 6.189375 -0.4534375 6.189375 -2 6 C-3.77190909 7.35444301 -3.77190909 7.35444301 -5 9 C-5.66 9 -6.32 9 -7 9 C-7 7.35 -7 5.7 -7 4 C-5.824375 3.566875 -5.824375 3.566875 -4.625 3.125 C-1.90328368 2.15087746 -1.90328368 2.15087746 0 0 Z " fill="#CACACA" transform="translate(254,173)"/>
<path d="M0 0 C0.33 0 0.66 0 1 0 C1 2.31 1 4.62 1 7 C0.34 7 -0.32 7 -1 7 C-1 7.66 -1 8.32 -1 9 C-2.65 9 -4.3 9 -6 9 C-6 8.01 -6 7.02 -6 6 C-6.99 6 -7.98 6 -9 6 C-8.484375 7.11375 -7.96875 8.2275 -7.4375 9.375 C-6.963125 10.57125 -6.48875 11.7675 -6 13 C-6.33 13.66 -6.66 14.32 -7 15 C-9.51896068 12.80959941 -10.62858839 11.34270453 -11 8 C-10.72686657 5.65885633 -10.40197001 3.32249342 -10 1 C-9.34 1 -8.68 1 -8 1 C-8 2.32 -8 3.64 -8 5 C-5.69 5 -3.38 5 -1 5 C-0.67 3.35 -0.34 1.7 0 0 Z " fill="#681A1A" transform="translate(233,298)"/>
<path d="M0 0 C4.62 0 9.24 0 14 0 C13.67 0.99 13.34 1.98 13 3 C12.01 3 11.02 3 10 3 C10.66 4.32 11.32 5.64 12 7 C6.06 5.515 6.06 5.515 0 4 C0 2.68 0 1.36 0 0 Z " fill="#CE3333" transform="translate(225,279)"/>
<path d="M0 0 C0.66 0 1.32 0 2 0 C2 1.65 2 3.3 2 5 C-5.92 4.34 -13.84 3.68 -22 3 C-21.67 2.34 -21.34 1.68 -21 1 C-14.07 1 -7.14 1 0 1 C0 0.67 0 0.34 0 0 Z " fill="#2C2C2C" transform="translate(262,190)"/>
<path d="M0 0 C2.31 0.33 4.62 0.66 7 1 C6.29875 1.495 5.5975 1.99 4.875 2.5 C1.29763247 5.61075437 -1.27632648 9.14380244 -4 13 C-4.66 12.34 -5.32 11.68 -6 11 C-5.70012049 7.20152621 -4.5832325 4.7898911 -2 2 C-1.34 2 -0.68 2 0 2 C0 1.34 0 0.68 0 0 Z " fill="#D43535" transform="translate(217,282)"/>
<path d="M0 0 C0.93423645 3.01031744 1.04449911 3.86650268 0 7 C-1.216875 6.7525 -2.43375 6.505 -3.6875 6.25 C-7.22410658 5.78053895 -7.74157597 5.82584467 -10.875 7.9375 C-11.57625 8.618125 -12.2775 9.29875 -13 10 C-13.66 10 -14.32 10 -15 10 C-13.92550335 6.77651004 -13.13675431 5.95861919 -10.625 3.8125 C-10.01914063 3.28269531 -9.41328125 2.75289063 -8.7890625 2.20703125 C-7 1 -7 1 -4 1 C-4 1.66 -4 2.32 -4 3 C-3.34 3 -2.68 3 -2 3 C-2 2.34 -2 1.68 -2 1 C-1.34 0.67 -0.68 0.34 0 0 Z " fill="#8C2323" transform="translate(241,260)"/>
<path d="M0 0 C3.0189321 3.66652637 5.06142576 7.71995308 7.1875 11.9375 C7.55552734 12.64068359 7.92355469 13.34386719 8.30273438 14.06835938 C10.20994061 17.84384927 11.51850408 20.65646583 11 25 C7.44475023 21.73506505 5.82926805 17.94299887 3.8125 13.625 C3.26045898 12.49191406 3.26045898 12.49191406 2.69726562 11.3359375 C0.86326306 7.44336062 -0.53574834 4.40894535 0 0 Z " fill="#DECFCF" transform="translate(259,243)"/>
<path d="M0 0 C0 0.66 0 1.32 0 2 C-2.72501908 2.90833969 -4.62233971 3.18359985 -7.44921875 3.31640625 C-8.72055664 3.37924805 -8.72055664 3.37924805 -10.01757812 3.44335938 C-11.33918945 3.50233398 -11.33918945 3.50233398 -12.6875 3.5625 C-13.58017578 3.60568359 -14.47285156 3.64886719 -15.39257812 3.69335938 C-17.59490108 3.79935353 -19.79733473 3.90142051 -22 4 C-22.33 3.01 -22.66 2.02 -23 1 C-20.29178874 0.83111377 -17.58345903 0.66482399 -14.875 0.5 C-14.11445313 0.45230469 -13.35390625 0.40460938 -12.5703125 0.35546875 C-8.3724967 0.10215228 -4.20798902 -0.05377622 0 0 Z " fill="#B9B9B9" transform="translate(239,148)"/>
<path d="M0 0 C6.27 0 12.54 0 19 0 C14.77015275 4.22984725 10.97130163 4.937419 5.0625 5.125 C4.051875 5.08375 3.04125 5.0425 2 5 C1.34 3.35 0.68 1.7 0 0 Z " fill="#CECECE" transform="translate(242,206)"/>
<path d="M0 0 C0.66 0.33 1.32 0.66 2 1 C2 4.96 2 8.92 2 13 C0.68 13.33 -0.64 13.66 -2 14 C-2.66 13.34 -3.32 12.68 -4 12 C-3.34 12 -2.68 12 -2 12 C-2 8.37 -2 4.74 -2 1 C-1.34 0.67 -0.68 0.34 0 0 Z " fill="#872121" transform="translate(323,285)"/>
<path d="M0 0 C1.65 0.33 3.3 0.66 5 1 C5 2.65 5 4.3 5 6 C4.34 6 3.68 6 3 6 C3 4.68 3 3.36 3 2 C2.01 2 1.02 2 0 2 C0.33 3.32 0.66 4.64 1 6 C-2.12706959 7.5635348 -5.57982443 7.39958487 -9 7 C-9.99 6.34 -10.98 5.68 -12 5 C-12 4.34 -12 3.68 -12 3 C-11.07767578 3.17789062 -11.07767578 3.17789062 -10.13671875 3.359375 C-7.71358189 3.74584021 -5.45506404 4.04788245 -3 4 C-0.85745428 2.23333021 -0.85745428 2.23333021 0 0 Z " fill="#7F1F1F" transform="translate(322,304)"/>
<path d="M0 0 C0.66 0 1.32 0 2 0 C2 0.66 2 1.32 2 2 C5.3 2 8.6 2 12 2 C11.67 2.99 11.34 3.98 11 5 C9.98679688 5.19916016 9.98679688 5.19916016 8.953125 5.40234375 C7.61507812 5.66724609 7.61507812 5.66724609 6.25 5.9375 C5.36828125 6.11152344 4.4865625 6.28554687 3.578125 6.46484375 C1.36764947 6.92368488 -0.81512068 7.43336074 -3 8 C-2.25 2.25 -2.25 2.25 0 0 Z " fill="#B2B2B2" transform="translate(212,138)"/>
<path d="M0 0 C9.39700501 0.82429869 15.70366061 4.14397696 23 10 C22.01 10.33 21.02 10.66 20 11 C18.09765625 10.0390625 18.09765625 10.0390625 16.0625 8.625 C13.37093466 6.76839038 11.22474052 5.62041988 8 5 C8 4.34 8 3.68 8 3 C7.05125 2.87625 6.1025 2.7525 5.125 2.625 C2 2 2 2 0 0 Z " fill="#751D1D" transform="translate(315,251)"/>
<path d="M0 0 C0.66 0 1.32 0 2 0 C2.1875 2.375 2.1875 2.375 2 5 C-1.03525486 7.02350324 -2.19426202 7.32124018 -5.6875 7.625 C-6.49574219 7.69976562 -7.30398437 7.77453125 -8.13671875 7.8515625 C-9.05904297 7.92503906 -9.05904297 7.92503906 -10 8 C-10 7.34 -10 6.68 -10 6 C-9.01 6 -8.02 6 -7 6 C-7 5.34 -7 4.68 -7 4 C-9.31 4 -11.62 4 -14 4 C-14 3.67 -14 3.34 -14 3 C-9.38 2.67 -4.76 2.34 0 2 C0 1.34 0 0.68 0 0 Z " fill="#383838" transform="translate(239,148)"/>
<path d="M0 0 C1.2375 0.12375 2.475 0.2475 3.75 0.375 C3.75 0.705 3.75 1.035 3.75 1.375 C2.1 1.375 0.45 1.375 -1.25 1.375 C-1.25 3.355 -1.25 5.335 -1.25 7.375 C-3.23 7.375 -5.21 7.375 -7.25 7.375 C-7.25 10.345 -7.25 13.315 -7.25 16.375 C-7.58 16.375 -7.91 16.375 -8.25 16.375 C-8.60551659 11.37801686 -8.6885169 7.43474918 -6.75 2.75 C-4.01452735 0.15130098 -3.55930817 0.02524332 0 0 Z " fill="#A32828" transform="translate(316.25,279.625)"/>
<path d="M0 0 C5.54758962 -0.25216316 5.54758962 -0.25216316 7.90625 1.0625 C10.59957122 2.26846473 11.93223601 1.8708787 14.75 1.125 C15.54921875 0.92132813 16.3484375 0.71765625 17.171875 0.5078125 C17.77515625 0.34023438 18.3784375 0.17265625 19 0 C17.625 2 17.625 2 15 4 C11.6419531 4.35791096 8.36463643 4.23115823 5 4 C5 3.01 5 2.02 5 1 C4.01 1 3.02 1 2 1 C2.66 2.65 3.32 4.3 4 6 C2.68 5.67 1.36 5.34 0 5 C0 3.35 0 1.7 0 0 Z " fill="#791E1E" transform="translate(220,314)"/>
<path d="M0 0 C3.23049734 3.02106013 5.09321419 6.55626812 7.125 10.4375 C7.48464844 11.10587891 7.84429687 11.77425781 8.21484375 12.46289062 C9.88318957 15.61525192 11.23429894 18.52088764 12 22 C11.34 22.33 10.68 22.66 10 23 C8.32356962 19.73408178 6.66056656 16.46150893 5 13.1875 C4.52304687 12.25873047 4.04609375 11.32996094 3.5546875 10.37304688 C3.10351562 9.48037109 2.65234375 8.58769531 2.1875 7.66796875 C1.76855469 6.84578857 1.34960938 6.0236084 0.91796875 5.17651367 C0 3 0 3 0 0 Z " fill="#E8D7D7" transform="translate(281,290)"/>
<path d="M0 0 C1.65 0 3.3 0 5 0 C5.66 1.65 6.32 3.3 7 5 C5.875 6.5625 5.875 6.5625 4 8 C0.8125 7.6875 0.8125 7.6875 -2 7 C-1.34 4.69 -0.68 2.38 0 0 Z " fill="#962525" transform="translate(314,298)"/>
<path d="M0 0 C0.66 0 1.32 0 2 0 C2.99 2.64 3.98 5.28 5 8 C1.91190305 9.76462683 0.76687864 10 -3 10 C-3.2295711 6.63295715 -3.33943529 4.58629732 -1.625 1.625 C-1.08875 1.08875 -0.5525 0.5525 0 0 Z " fill="#B9B9B9" transform="translate(242,169)"/>
<path d="M0 0 C0.99 0 1.98 0 3 0 C3 0.66 3 1.32 3 2 C3.639375 2.2475 4.27875 2.495 4.9375 2.75 C7 4 7 4 7.75 6.125 C7.8325 6.74375 7.915 7.3625 8 8 C5.36 7.67 2.72 7.34 0 7 C0 4.69 0 2.38 0 0 Z " fill="#541515" transform="translate(228,289)"/>
<path d="M0 0 C0.556875 0.268125 1.11375 0.53625 1.6875 0.8125 C0.90375 1.01875 0.12 1.225 -0.6875 1.4375 C-3.55758013 2.57669471 -3.55758013 2.57669471 -4.375 5.5 C-4.684375 6.593125 -4.99375 7.68625 -5.3125 8.8125 C-6.54931458 11.21394154 -7.92151067 13.49418445 -9.3125 15.8125 C-10.63959834 12.79636742 -10.23707017 11.58201997 -9.1875 8.375 C-7.32637093 4.44028421 -4.83205455 -0.39178821 0 0 Z " fill="#320C0C" transform="translate(222.3125,285.1875)"/>
<path d="M0 0 C-0.35049575 3.24208567 -0.56221181 4.61527704 -3.0625 6.8125 C-3.701875 7.204375 -4.34125 7.59625 -5 8 C-5 7.01 -5 6.02 -5 5 C-6.65 5.33 -8.3 5.66 -10 6 C-8.8125 3.5625 -8.8125 3.5625 -7 1 C-4.53160607 0.21733851 -2.57174634 0 0 0 Z " fill="#CC3333" transform="translate(334,314)"/>
<path d="M0 0 C2.31 0.33 4.62 0.66 7 1 C7 1.99 7 2.98 7 4 C6.01 4.33 5.02 4.66 4 5 C4.33 6.32 4.66 7.64 5 9 C4.67 8.34 4.34 7.68 4 7 C2.68 7 1.36 7 0 7 C0 4.69 0 2.38 0 0 Z " fill="#D83636" transform="translate(217,325)"/>
<path d="M0 0 C0.33 0.66 0.66 1.32 1 2 C1.99 2.33 2.98 2.66 4 3 C3.071875 3.4021875 3.071875 3.4021875 2.125 3.8125 C-0.2995233 4.95556848 -0.2995233 4.95556848 -2 8 C-5.19834873 8.50500243 -6.5786377 8.27331609 -9.3125 6.5 C-9.869375 6.005 -10.42625 5.51 -11 5 C-10.34 4.34 -9.68 3.68 -9 3 C-5.875 3.375 -5.875 3.375 -3 4 C-2.01 2.68 -1.02 1.36 0 0 Z " fill="#D83636" transform="translate(321,301)"/>
<path d="M0 0 C0 0.33 0 0.66 0 1 C-2.64 1.66 -5.28 2.32 -8 3 C-7.34 3.66 -6.68 4.32 -6 5 C-7 6 -7 6 -10.5625 6.0625 C-11.696875 6.041875 -12.83125 6.02125 -14 6 C-13.9375 4.1875 -13.9375 4.1875 -13 2 C-8.2946882 -0.67556946 -5.2414697 -1.40624797 0 0 Z " fill="#838383" transform="translate(247,190)"/>
<path d="M0 0 C0.99 0 1.98 0 3 0 C3 0.99 3 1.98 3 3 C4.65 3 6.3 3 8 3 C8.33 2.34 8.66 1.68 9 1 C9.33 1.99 9.66 2.98 10 4 C10.66 4.66 11.32 5.32 12 6 C9.03 5.505 9.03 5.505 6 5 C5.67 6.65 5.34 8.3 5 10 C4.34 10 3.68 10 3 10 C2.01 6.7 1.02 3.4 0 0 Z " fill="#822020" transform="translate(224,304)"/>
<path d="M0 0 C0.66 0.33 1.32 0.66 2 1 C4.54825327 0.82516273 7.05712683 0.48449608 9.58984375 0.15625 C12 0 12 0 15 1 C15 1.99 15 2.98 15 4 C14.42507812 3.81308594 13.85015625 3.62617188 13.2578125 3.43359375 C10.69469478 2.94136872 9.33890074 3.28023494 6.875 4.0625 C5.59625 4.371875 4.3175 4.68125 3 5 C2.34 4.34 1.68 3.68 1 3 C-0.31747324 2.30251417 -1.64914193 1.63040043 -3 1 C-2.01 0.67 -1.02 0.34 0 0 Z " fill="#CA3232" transform="translate(225,312)"/>
<path d="M0 0 C0.66 0 1.32 0 2 0 C3.125 7.75 3.125 7.75 2 10 C1.01 9.67 0.02 9.34 -1 9 C-1.625 5.625 -1.625 5.625 -2 2 C-1.34 1.34 -0.68 0.68 0 0 Z " fill="#721C1C" transform="translate(311,294)"/>
<path d="M0 0 C0 0.66 0 1.32 0 2 C0.99 1.67 1.98 1.34 3 1 C5.33299825 0.96045766 7.66708189 0.95598268 10 1 C10.33 1.66 10.66 2.32 11 3 C8.69 2.67 6.38 2.34 4 2 C4 2.66 4 3.32 4 4 C2.35 4.33 0.7 4.66 -1 5 C-1 4.34 -1 3.68 -1 3 C-3.97 2.505 -3.97 2.505 -7 2 C-4 0 -4 0 0 0 Z " fill="#B82E2E" transform="translate(313,268)"/>
<path d="M0 0 C1.79240663 0.11389875 3.58394835 0.24147687 5.375 0.375 C6.87160156 0.47941406 6.87160156 0.47941406 8.3984375 0.5859375 C11 1 11 1 13 3 C11.02 3 9.04 3 7 3 C7.99 3.66 8.98 4.32 10 5 C3.375 5.25 3.375 5.25 0 3 C0.99 3 1.98 3 3 3 C3 2.34 3 1.68 3 1 C2.01 0.67 1.02 0.34 0 0 Z " fill="#B82E2E" transform="translate(310,249)"/>
<path d="M0 0 C-0.38148486 2.76576527 -0.6834192 3.75490519 -2.9375 5.5 C-3.618125 5.995 -4.29875 6.49 -5 7 C-6.2516467 9.08334635 -6.2516467 9.08334635 -7 11 C-7.99 10.34 -8.98 9.68 -10 9 C-9.67 8.34 -9.34 7.68 -9 7 C-9.66 6.67 -10.32 6.34 -11 6 C-9.02 5.34 -7.04 4.68 -5 4 C-5 3.01 -5 2.02 -5 1 C-2 0 -2 0 0 0 Z " fill="#494949" transform="translate(249,136)"/>
<path d="M0 0 C0.99 0 1.98 0 3 0 C3.3125 2.75 3.3125 2.75 3 6 C0.625 8.375 0.625 8.375 -2 10 C-2.66 10 -3.32 10 -4 10 C-4 9.34 -4 8.68 -4 8 C-3.34 8 -2.68 8 -2 8 C-1.34 5.36 -0.68 2.72 0 0 Z " fill="#350D0D" transform="translate(316,282)"/>
<path d="M0 0 C2.96659857 3.55991828 5.381348 7.65222543 7 12 C6 14 6 14 4 15 C3.32243118 13.44219668 2.65840543 11.87849904 2 10.3125 C1.62875 9.44238281 1.2575 8.57226562 0.875 7.67578125 C-0.01870488 4.9427998 -0.16449676 2.85299066 0 0 Z " fill="#D0BBBB" transform="translate(270,265)"/>
<path d="M0 0 C0.99 0.33 1.98 0.66 3 1 C3 1.66 3 2.32 3 3 C2.34 3 1.68 3 1 3 C1 5.31 1 7.62 1 10 C1.66 10.33 2.32 10.66 3 11 C1.68 11 0.36 11 -1 11 C-1.33 7.7 -1.66 4.4 -2 1 C-1.34 0.67 -0.68 0.34 0 0 Z " fill="#7C1F1F" transform="translate(273,326)"/>
<path d="M0 0 C1 3 1 3 0 6 C-1.65 6.33 -3.3 6.66 -5 7 C-6.32 5.35 -7.64 3.7 -9 2 C-8.01 1.67 -7.02 1.34 -6 1 C-3.8125 2.4375 -3.8125 2.4375 -2 4 C-2 3.34 -2 2.68 -2 2 C-1.34 2 -0.68 2 0 2 C0 1.34 0 0.68 0 0 Z " fill="#D53535" transform="translate(241,288)"/>
<path d="M0 0 C0.66 0.66 1.32 1.32 2 2 C0.40089132 3.00806851 -1.20448262 4.00620385 -2.8125 5 C-4.15248047 5.8353125 -4.15248047 5.8353125 -5.51953125 6.6875 C-8 8 -8 8 -11 8 C-10.67 7.67 -10.34 7.34 -10 7 C-10.66 6.34 -11.32 5.68 -12 5 C-11.30132812 4.72285156 -10.60265625 4.44570313 -9.8828125 4.16015625 C-8.97273437 3.79792969 -8.06265625 3.43570312 -7.125 3.0625 C-6.22007812 2.70285156 -5.31515625 2.34320313 -4.3828125 1.97265625 C-2.03862333 1.05098738 -2.03862333 1.05098738 0 0 Z " fill="#9D2727" transform="translate(225,269)"/>
<path d="M0 0 C1.32 0.33 2.64 0.66 4 1 C4 1.66 4 2.32 4 3 C1.27157939 4.36421031 -0.60953318 3.87807211 -3.625 3.5625 C-4.62789063 3.46066406 -5.63078125 3.35882813 -6.6640625 3.25390625 C-7.43492187 3.17011719 -8.20578125 3.08632812 -9 3 C-9 2.34 -9 1.68 -9 1 C-6.03 1.33 -3.06 1.66 0 2 C0 1.34 0 0.68 0 0 Z " fill="#9C9C9C" transform="translate(264,193)"/>
<path d="M0 0 C0.66 0.33 1.32 0.66 2 1 C2 4.96 2 8.92 2 13 C1.01 13.495 1.01 13.495 0 14 C0.33 11.36 0.66 8.72 1 6 C0.34 6 -0.32 6 -1 6 C-1.33 4.35 -1.66 2.7 -2 1 C-1.34 0.67 -0.68 0.34 0 0 Z " fill="#B12C2C" transform="translate(323,285)"/>
<path d="M0 0 C0.99 0 1.98 0 3 0 C3 0.99 3 1.98 3 3 C5.64 3 8.28 3 11 3 C11 3.33 11 3.66 11 4 C8.69 4 6.38 4 4 4 C4 4.66 4 5.32 4 6 C3.01 5.67 2.02 5.34 1 5 C0.67 3.35 0.34 1.7 0 0 Z " fill="#C03030" transform="translate(222,315)"/>
<path d="M0 0 C0 0.66 0 1.32 0 2 C-2.49409061 3.57035335 -3.70443416 4.0274945 -6.6875 3.75 C-7.8321875 3.37875 -7.8321875 3.37875 -9 3 C-9.33 2.34 -9.66 1.68 -10 1 C-6.56484998 0.37542727 -3.50935186 0 0 0 Z " fill="#681A1A" transform="translate(313,250)"/>
<path d="M0 0 C0 0.66 0 1.32 0 2 C-3.47325181 3.1577506 -6.36067448 3.06866652 -10 3 C-10.33 2.34 -10.66 1.68 -11 1 C-7.26562152 0.12132271 -3.83225427 -0.08912219 0 0 Z " fill="#9F9F9F" transform="translate(239,148)"/>
<path d="M0 0 C1.65 0 3.3 0 5 0 C4.67 0.99 4.34 1.98 4 3 C-2.435 3.495 -2.435 3.495 -9 4 C-9 3.34 -9 2.68 -9 2 C-6.03 2 -3.06 2 0 2 C0 1.34 0 0.68 0 0 Z " fill="#626262" transform="translate(224,146)"/>
<path d="M0 0 C0 0.99 0 1.98 0 3 C-3.63 3 -7.26 3 -11 3 C-11 2.34 -11 1.68 -11 1 C-9.54182203 0.83197949 -8.0834516 0.66562857 -6.625 0.5 C-5.81289063 0.4071875 -5.00078125 0.314375 -4.1640625 0.21875 C-2 0 -2 0 0 0 Z " fill="#B9B9B9" transform="translate(300,145)"/>
<path d="M0 0 C3.35595828 0.59927826 5.37801226 1.84622436 8 4 C7.195625 4.12375 6.39125 4.2475 5.5625 4.375 C4.2940625 4.684375 4.2940625 4.684375 3 5 C2.67 5.66 2.34 6.32 2 7 C1.34 7 0.68 7 0 7 C0 4.66666667 0 2.33333333 0 0 Z " fill="#E23838" transform="translate(324,311)"/>
<path d="M0 0 C3.37462715 0.54723683 5.08235 1.0549 8 3 C8 3.66 8 4.32 8 5 C5.6875 5.3125 5.6875 5.3125 3 5 C1.1875 2.5 1.1875 2.5 0 0 Z " fill="#A62929" transform="translate(324,271)"/>
<path d="M0 0 C2.31 0.33 4.62 0.66 7 1 C7 1.99 7 2.98 7 4 C5.1875 4.6875 5.1875 4.6875 3 5 C1.25 3.6875 1.25 3.6875 0 2 C0 1.34 0 0.68 0 0 Z " fill="#E13838" transform="translate(305,269)"/>
<path d="M0 0 C5.94 0.66 11.88 1.32 18 2 C18 2.33 18 2.66 18 3 C12.39 3 6.78 3 1 3 C0.67 2.01 0.34 1.02 0 0 Z " fill="#4A4A4A" transform="translate(240,204)"/>
<path d="M0 0 C1.98 0 3.96 0 6 0 C6.33 0.66 6.66 1.32 7 2 C6.34 2.66 5.68 3.32 5 4 C5 3.01 5 2.02 5 1 C4.01 1 3.02 1 2 1 C2.66 2.65 3.32 4.3 4 6 C2.68 5.67 1.36 5.34 0 5 C0 3.35 0 1.7 0 0 Z " fill="#8C2323" transform="translate(220,314)"/>
<path d="M0 0 C1.65 0.33 3.3 0.66 5 1 C5 2.65 5 4.3 5 6 C4.34 6 3.68 6 3 6 C3 4.68 3 3.36 3 2 C2.01 2 1.02 2 0 2 C0 2.66 0 3.32 0 4 C-0.66 4 -1.32 4 -2 4 C-1.34 2.68 -0.68 1.36 0 0 Z " fill="#8F2424" transform="translate(322,304)"/>
<path d="M0 0 C0.99 0 1.98 0 3 0 C3.66 1.32 4.32 2.64 5 4 C3.35 4.66 1.7 5.32 0 6 C-0.38218767 4.34385343 -0.71395102 2.67542976 -1 1 C-0.67 0.67 -0.34 0.34 0 0 Z " fill="#C5C5C5" transform="translate(242,173)"/>
<path d="M0 0 C0.33 0 0.66 0 1 0 C1 2.31 1 4.62 1 7 C0.34 7 -0.32 7 -1 7 C-1 7.66 -1 8.32 -1 9 C-2.32 9 -3.64 9 -5 9 C-4.34 7.68 -3.68 6.36 -3 5 C-2.34 5 -1.68 5 -1 5 C-0.67 3.35 -0.34 1.7 0 0 Z " fill="#581616" transform="translate(233,298)"/>
<path d="M0 0 C0 2.31 0 4.62 0 7 C-0.99 7 -1.98 7 -3 7 C-3.33 5.02 -3.66 3.04 -4 1 C-1 0 -1 0 0 0 Z " fill="#AE2B2B" transform="translate(228,289)"/>
<path d="M0 0 C0.66 1.32 1.32 2.64 2 4 C0.37660195 5.70884005 -1.29319053 7.37446717 -3 9 C-3.66 9 -4.32 9 -5 9 C-3.50163895 5.88801935 -1.80066242 2.9465385 0 0 Z " fill="#A22828" transform="translate(209,301)"/>
<path d="M0 0 C0.99 0.33 1.98 0.66 3 1 C1.8803014 2.00593243 0.7540588 3.0045849 -0.375 4 C-1.00148437 4.556875 -1.62796875 5.11375 -2.2734375 5.6875 C-4 7 -4 7 -6 7 C-4.75686537 3.27059611 -3.23014784 2.15343189 0 0 Z " fill="#5F1818" transform="translate(232,263)"/>
<path d="M0 0 C0.33 0.99 0.66 1.98 1 3 C1.66 3 2.32 3 3 3 C3 5.31 3 7.62 3 10 C2.54625 9.360625 2.0925 8.72125 1.625 8.0625 C0.16078274 5.90297594 0.16078274 5.90297594 -2 5 C-1.125 1.125 -1.125 1.125 0 0 Z " fill="#ADADAD" transform="translate(243,155)"/>
<path d="M0 0 C0.66 0 1.32 0 2 0 C2 0.66 2 1.32 2 2 C2.99 2.66 3.98 3.32 5 4 C2.69 4.33 0.38 4.66 -2 5 C-1.125 1.125 -1.125 1.125 0 0 Z " fill="#C53131" transform="translate(230,308)"/>
<path d="M0 0 C1.65 0 3.3 0 5 0 C5.33 1.32 5.66 2.64 6 4 C4.02 4 2.04 4 0 4 C0 2.68 0 1.36 0 0 Z " fill="#852121" transform="translate(314,298)"/>
<path d="M0 0 C0.66 0.33 1.32 0.66 2 1 C2 1.66 2 2.32 2 3 C2.99 3.33 3.98 3.66 5 4 C5 4.66 5 5.32 5 6 C3.68 5.67 2.36 5.34 1 5 C1 4.34 1 3.68 1 3 C0.34 3 -0.32 3 -1 3 C-1.33 3.99 -1.66 4.98 -2 6 C-2 4.68 -2 3.36 -2 2 C-1.34 2 -0.68 2 0 2 C0 1.34 0 0.68 0 0 Z " fill="#691A1A" transform="translate(336,289)"/>
<path d="M0 0 C0.99 0.33 1.98 0.66 3 1 C2.34 2.32 1.68 3.64 1 5 C0.01 5 -0.98 5 -2 5 C-2 3.68 -2 2.36 -2 1 C-1.34 0.67 -0.68 0.34 0 0 Z " fill="#BABABA" transform="translate(242,137)"/>
<path d="M0 0 C0.66 0 1.32 0 2 0 C1.64950425 3.24208567 1.43778819 4.61527704 -1.0625 6.8125 C-1.701875 7.204375 -2.34125 7.59625 -3 8 C-2.37240135 5.07120629 -1.41377341 2.63904371 0 0 Z " fill="#B82E2E" transform="translate(332,314)"/>
<path d="M0 0 C0 2 0 2 -1.875 4.125 C-4 6 -4 6 -6 6 C-6 4.68 -6 3.36 -6 2 C-3 0 -3 0 0 0 Z " fill="#421010" transform="translate(311,275)"/>
<path d="M0 0 C0.66 0.33 1.32 0.66 2 1 C0.02 3.31 -1.96 5.62 -4 8 C-4.33 7.01 -4.66 6.02 -5 5 C-3.35 3.35 -1.7 1.7 0 0 Z " fill="#7F2020" transform="translate(217,283)"/>
<path d="M0 0 C0.91007812 0.10183594 1.82015625 0.20367187 2.7578125 0.30859375 C3.45648438 0.39238281 4.15515625 0.47617187 4.875 0.5625 C4.875 0.8925 4.875 1.2225 4.875 1.5625 C3.25175914 1.78412329 1.626279 1.98939803 0 2.1875 C-1.35738281 2.36152344 -1.35738281 2.36152344 -2.7421875 2.5390625 C-3.52851563 2.54679687 -4.31484375 2.55453125 -5.125 2.5625 C-5.785 1.9025 -6.445 1.2425 -7.125 0.5625 C-4.50184968 -0.74907516 -2.89466564 -0.33399988 0 0 Z " fill="#791E1E" transform="translate(316.125,273.4375)"/>
<path d="M0 0 C3.63 0.33 7.26 0.66 11 1 C11 1.33 11 1.66 11 2 C7.7 2.33 4.4 2.66 1 3 C0.67 2.01 0.34 1.02 0 0 Z " fill="#E43939" transform="translate(312,267)"/>
</svg>
