<svg id="svg" version="1.1" xmlns="http://www.w3.org/2000/svg" xmlns:xlink="http://www.w3.org/1999/xlink" width="400" height="400" viewBox="0, 0, 400,400"><g id="svgg"><path id="path0" d="M158.104 191.395 L 156.807 191.958 156.803 246.530 C 156.799 296.810,156.851 301.144,157.460 301.650 C 158.579 302.579,188.630 302.678,189.649 301.756 C 190.370 301.103,190.400 299.982,190.400 273.913 L 190.400 246.749 191.700 246.875 C 193.040 247.004,196.524 252.791,197.675 256.800 C 197.896 257.570,198.402 258.560,198.800 259.000 C 199.198 259.440,199.814 260.430,200.169 261.200 C 200.524 261.970,201.071 263.050,201.386 263.600 C 201.700 264.150,202.310 265.410,202.741 266.400 C 204.209 269.777,205.202 271.799,206.375 273.800 C 207.020 274.900,207.669 276.070,207.817 276.400 C 207.966 276.730,208.510 277.900,209.027 279.000 C 209.543 280.100,210.251 281.630,210.601 282.400 C 210.950 283.170,211.760 284.700,212.400 285.800 C 213.040 286.900,213.847 288.430,214.192 289.200 C 214.538 289.970,215.029 290.960,215.284 291.400 C 215.539 291.840,215.992 292.740,216.292 293.400 C 216.591 294.060,217.094 295.050,217.408 295.600 C 217.723 296.150,218.330 297.320,218.759 298.200 C 219.188 299.080,219.985 300.340,220.531 301.000 L 221.524 302.200 242.180 302.311 C 265.863 302.437,265.831 302.441,266.195 299.891 C 266.377 298.618,266.298 260.491,266.048 229.200 C 266.042 228.430,266.109 219.985,266.197 210.433 C 266.370 191.602,266.399 191.869,264.093 191.185 C 261.838 190.516,232.619 190.820,231.920 191.520 C 231.507 191.932,231.359 197.924,231.200 220.600 C 231.057 240.994,230.871 249.289,230.550 249.611 C 230.121 250.039,228.846 247.820,226.633 242.800 C 226.294 242.030,225.844 241.130,225.633 240.800 C 225.423 240.470,224.946 239.570,224.573 238.800 C 224.201 238.030,223.547 236.680,223.120 235.800 C 222.693 234.920,221.972 233.390,221.517 232.400 C 221.063 231.410,220.452 230.150,220.160 229.600 C 219.868 229.050,219.177 227.700,218.624 226.600 C 218.072 225.500,217.448 224.330,217.238 224.000 C 217.028 223.670,216.501 222.590,216.065 221.600 C 215.169 219.560,211.828 212.713,210.991 211.200 C 210.687 210.650,209.960 209.120,209.376 207.800 C 208.791 206.480,207.992 204.770,207.600 204.000 C 207.208 203.230,205.778 200.350,204.422 197.600 C 203.065 194.850,201.811 192.330,201.635 192.000 C 201.087 190.974,199.547 190.896,179.200 190.863 C 162.997 190.837,159.164 190.934,158.104 191.395 M242.200 196.800 C 242.352 197.046,241.706 197.198,240.524 197.194 C 239.134 197.189,238.767 197.080,239.200 196.800 C 239.987 196.291,241.886 196.291,242.200 196.800 M249.500 197.076 C 249.115 197.176,248.485 197.176,248.100 197.076 C 247.715 196.975,248.030 196.893,248.800 196.893 C 249.570 196.893,249.885 196.975,249.500 197.076 M259.600 201.131 C 259.600 201.313,259.060 201.382,258.400 201.285 C 257.740 201.188,257.200 201.040,257.200 200.955 C 257.200 200.870,257.740 200.800,258.400 200.800 C 259.060 200.800,259.600 200.949,259.600 201.131 M188.562 206.322 C 187.536 207.897,186.735 208.394,185.921 207.957 C 185.038 207.485,185.391 206.539,186.560 206.246 C 187.057 206.121,187.689 205.524,187.964 204.918 C 188.417 203.925,188.505 203.887,188.865 204.530 C 189.157 205.053,189.077 205.531,188.562 206.322 M181.134 207.150 C 181.559 207.420,181.531 207.541,180.997 207.746 C 180.205 208.050,179.490 207.702,179.817 207.172 C 180.099 206.715,180.438 206.710,181.134 207.150 M252.823 211.910 C 255.629 213.040,261.503 220.891,262.389 224.695 C 262.727 226.142,263.205 227.032,263.939 227.576 L 265.000 228.362 263.718 228.628 C 263.012 228.773,261.707 229.516,260.818 230.278 C 259.046 231.794,258.995 231.745,259.179 228.693 C 259.666 220.625,255.365 215.166,247.931 214.416 C 244.981 214.119,243.658 213.692,244.600 213.342 C 244.820 213.260,245.885 212.684,246.967 212.062 C 249.008 210.889,250.211 210.858,252.823 211.910 M243.388 215.180 C 243.517 215.389,243.222 215.774,242.733 216.036 C 242.243 216.298,241.084 217.282,240.157 218.223 C 238.578 219.824,237.100 219.380,238.182 217.630 C 239.644 215.264,242.584 213.880,243.388 215.180 M162.400 217.600 C 162.866 217.901,162.749 217.989,161.876 217.994 C 161.228 217.997,160.857 217.831,161.000 217.600 C 161.307 217.103,161.631 217.103,162.400 217.600 M249.997 220.476 C 250.647 220.984,251.256 221.760,251.352 222.200 C 253.131 230.386,252.481 232.613,247.714 234.649 C 245.616 235.546,245.205 237.091,246.900 237.717 C 247.756 238.032,247.812 238.744,247.006 239.053 C 246.679 239.179,245.856 238.813,245.175 238.241 C 244.495 237.668,243.817 237.197,243.669 237.194 C 242.257 237.162,240.897 229.716,241.612 225.929 C 242.287 222.350,242.292 222.343,243.831 222.632 C 244.835 222.821,245.213 222.744,245.247 222.345 C 245.319 221.522,245.312 221.466,245.029 220.533 C 244.541 218.921,247.959 218.882,249.997 220.476 M183.633 222.289 C 186.138 223.473,186.868 224.018,187.192 224.948 C 187.975 227.196,186.377 227.705,183.940 225.984 C 183.357 225.572,182.398 225.114,181.808 224.966 C 181.218 224.818,180.642 224.454,180.528 224.156 C 180.273 223.493,177.922 222.805,175.900 222.802 C 172.346 222.797,175.224 220.941,178.941 220.841 C 179.955 220.814,181.559 221.309,183.633 222.289 M173.900 223.492 C 173.989 223.762,173.421 224.289,172.638 224.662 C 171.627 225.145,171.079 225.754,170.745 226.770 C 170.486 227.557,169.967 228.650,169.591 229.200 C 168.251 231.164,167.402 235.081,167.908 236.973 C 168.498 239.178,168.015 241.514,167.260 240.109 C 166.997 239.619,166.201 239.064,165.491 238.875 C 163.147 238.252,164.699 230.540,167.844 227.178 C 168.370 226.616,168.800 225.937,168.800 225.668 C 168.800 225.400,169.235 225.015,169.766 224.813 C 170.297 224.611,170.852 224.065,171.000 223.600 C 171.300 222.655,173.597 222.569,173.900 223.492 M181.796 227.271 C 183.017 227.827,184.184 230.054,183.875 231.236 C 183.755 231.694,183.864 233.056,184.117 234.262 C 184.716 237.121,183.098 240.800,181.240 240.800 C 179.326 240.800,178.400 241.815,178.400 243.912 C 178.400 245.715,178.379 245.748,177.777 244.889 C 177.435 244.400,176.819 244.000,176.408 244.000 C 175.901 244.000,175.504 243.522,175.170 242.510 C 174.900 241.690,174.346 240.475,173.941 239.810 C 172.496 237.441,173.029 229.200,174.627 229.200 C 174.956 229.200,175.332 228.921,175.463 228.581 C 176.012 227.151,179.808 226.365,181.796 227.271 M251.880 240.241 C 251.952 240.456,251.751 240.985,251.434 241.416 C 250.760 242.332,250.092 241.379,250.557 240.167 C 250.810 239.510,251.652 239.557,251.880 240.241 M214.410 256.226 C 214.908 257.536,214.900 258.624,214.379 260.500 C 213.788 262.629,213.350 262.365,212.860 259.582 C 212.261 256.183,213.431 253.650,214.410 256.226 " stroke="none" fill="#f44242" fill-rule="evenodd"></path><path id="path1" d="M50.284 91.760 C 47.562 94.729,47.080 95.485,46.896 97.075 C 46.585 99.758,47.130 102.457,48.031 102.692 C 48.701 102.867,48.804 103.288,48.835 105.947 C 48.912 112.701,49.351 116.031,50.261 116.768 C 50.988 117.357,51.133 117.970,51.257 120.980 C 51.385 124.103,51.503 124.571,52.301 125.100 C 53.098 125.630,53.200 126.032,53.200 128.659 C 53.200 131.420,53.265 131.645,54.164 131.986 C 55.121 132.350,55.130 132.409,55.264 138.813 C 55.390 144.790,55.462 145.322,56.234 145.947 C 56.918 146.500,57.112 147.234,57.308 150.011 C 57.575 153.783,57.847 154.800,58.588 154.800 C 59.127 154.800,59.600 157.337,59.600 160.227 C 59.600 161.851,60.339 163.200,61.229 163.200 C 61.437 163.200,61.600 165.400,61.600 168.226 C 61.600 173.177,61.900 174.636,63.058 175.320 C 63.437 175.544,63.600 176.539,63.600 178.630 C 63.600 181.451,63.656 181.641,64.600 182.000 C 65.558 182.364,65.600 182.523,65.600 185.757 C 65.600 189.621,65.801 190.400,66.796 190.400 C 67.439 190.400,67.524 191.011,67.693 196.900 C 67.893 203.853,68.036 204.612,69.212 204.919 C 69.875 205.093,69.983 205.579,70.084 208.858 C 70.191 212.300,70.272 212.632,71.100 212.995 C 71.916 213.353,72.000 213.664,72.000 216.337 C 72.000 219.005,72.095 219.360,73.000 220.071 C 73.991 220.851,74.000 220.914,74.000 227.159 C 74.000 233.363,74.015 233.475,75.000 234.400 C 75.900 235.245,76.000 235.650,76.000 238.439 C 76.000 241.162,76.122 241.683,77.000 242.727 C 77.802 243.680,78.008 244.379,78.040 246.258 C 78.095 249.483,78.455 250.574,79.516 250.728 C 80.384 250.853,80.400 250.967,80.400 257.002 C 80.400 263.305,80.721 265.200,81.790 265.200 C 82.289 265.200,82.400 265.823,82.400 268.626 C 82.400 272.173,82.806 273.600,83.814 273.600 C 84.279 273.600,84.400 274.249,84.400 276.742 C 84.400 279.493,84.518 280.010,85.349 280.907 C 86.236 281.865,86.308 282.305,86.473 287.764 C 86.628 292.926,86.746 293.731,87.499 294.749 C 88.137 295.612,88.421 296.768,88.631 299.365 C 88.873 302.346,89.044 302.934,89.856 303.573 C 90.536 304.108,90.800 304.718,90.800 305.758 C 90.800 307.018,90.922 307.200,91.772 307.200 C 92.476 307.200,92.780 307.449,92.872 308.100 L 93.000 309.000 137.400 309.000 L 181.800 309.000 181.928 308.100 C 182.053 307.218,182.161 307.200,187.446 307.200 C 192.636 307.200,192.873 307.163,193.818 306.218 L 194.800 305.236 194.800 284.418 L 194.800 263.600 195.800 263.600 C 196.593 263.600,196.800 263.802,196.800 264.574 C 196.800 266.034,197.504 267.600,198.161 267.600 C 198.568 267.600,198.828 268.282,199.026 269.870 C 199.225 271.465,199.579 272.389,200.215 272.979 C 200.713 273.440,201.183 274.264,201.260 274.809 C 201.353 275.469,201.693 275.842,202.279 275.925 C 203.021 276.031,203.177 276.344,203.279 277.925 C 203.380 279.488,203.542 279.820,204.253 279.922 C 204.995 280.027,205.130 280.364,205.283 282.481 C 205.415 284.298,205.664 285.085,206.264 285.570 C 206.707 285.929,207.192 286.712,207.342 287.311 C 207.522 288.030,207.880 288.400,208.394 288.400 C 209.026 288.400,209.222 288.776,209.438 290.405 C 209.660 292.073,209.864 292.451,210.652 292.649 C 211.588 292.884,211.600 292.951,211.600 298.070 C 211.600 303.266,211.922 304.800,213.014 304.800 C 213.398 304.800,213.600 305.213,213.600 306.000 C 213.600 306.999,213.760 307.200,214.557 307.200 C 215.243 307.200,215.584 307.
482,215.764 308.200 L 216.015 309.200 260.216 309.200 L 304.417 309.200 304.835 308.284 C 305.064 307.780,305.645 307.195,306.126 306.984 C 306.924 306.633,307.010 306.268,307.113 302.789 C 307.217 299.293,307.300 298.946,308.113 298.589 C 308.903 298.243,309.013 297.859,309.117 295.100 C 309.208 292.680,309.364 292.000,309.827 292.000 C 310.637 292.000,311.089 290.639,311.431 287.166 C 311.647 284.971,311.917 284.071,312.503 283.597 C 313.198 283.034,313.309 282.284,313.501 276.867 C 313.704 271.140,313.774 270.717,314.652 269.886 C 315.462 269.118,315.587 268.615,315.593 266.100 C 315.599 263.524,315.685 263.200,316.357 263.200 C 317.369 263.200,317.600 262.452,317.600 259.185 C 317.600 256.786,317.727 256.309,318.600 255.436 C 319.578 254.459,319.600 254.302,319.600 248.446 C 319.600 242.544,319.613 242.454,320.497 242.328 C 321.565 242.176,321.884 241.032,321.953 237.100 C 321.989 235.017,322.134 234.400,322.586 234.400 C 323.536 234.400,324.000 233.027,324.000 230.214 C 324.000 228.294,324.156 227.515,324.572 227.355 C 325.615 226.955,326.000 224.742,326.000 219.148 L 326.000 213.615 327.000 213.364 C 327.953 213.125,328.000 212.976,328.000 210.175 C 328.000 207.574,328.115 207.122,329.000 206.236 C 329.898 205.339,330.000 204.913,330.000 202.082 C 330.000 199.160,330.069 198.897,330.940 198.500 C 332.049 197.995,332.391 196.014,332.397 190.073 C 332.400 186.717,332.499 186.216,333.400 185.036 C 334.251 183.919,334.400 183.299,334.400 180.862 C 334.400 179.288,334.567 178.000,334.771 178.000 C 335.873 178.000,336.400 176.654,336.400 173.841 C 336.400 171.263,336.512 170.835,337.400 170.000 C 338.359 169.099,338.400 168.862,338.400 164.276 C 338.400 159.687,338.441 159.454,339.400 158.565 C 340.074 157.940,340.401 157.208,340.404 156.319 C 340.412 153.963,340.881 152.064,341.661 151.227 C 342.230 150.616,342.485 149.567,342.664 147.104 C 342.851 144.534,343.090 143.595,343.741 142.879 C 344.483 142.063,344.596 141.351,344.735 136.606 C 344.881 131.584,344.950 131.199,345.846 130.357 C 346.683 129.570,346.800 129.101,346.800 126.530 C 346.800 124.224,346.925 123.600,347.386 123.600 C 348.394 123.600,348.800 122.173,348.800 118.626 C 348.800 115.983,348.926 115.200,349.351 115.200 C 350.470 115.200,350.738 114.065,351.021 108.118 C 351.291 102.432,351.372 101.978,352.255 101.148 C 353.740 99.754,353.392 94.800,351.810 94.800 C 351.474 94.800,351.200 94.459,351.200 94.042 C 351.200 93.626,350.678 92.726,350.040 92.042 L 348.879 90.800 313.272 90.800 C 276.349 90.800,276.400 90.798,276.400 92.043 C 276.400 92.505,276.120 92.800,275.680 92.800 C 274.196 92.800,274.000 93.574,274.000 99.452 C 274.000 105.051,273.985 105.146,273.100 105.272 C 272.240 105.394,272.195 105.588,272.087 109.611 C 271.983 113.522,271.912 113.849,271.087 114.211 C 270.255 114.576,270.193 114.885,270.089 119.200 C 269.989 123.338,269.893 123.865,269.134 124.443 C 267.967 125.333,267.652 127.712,267.624 135.873 C 267.602 142.253,267.546 142.763,266.843 142.986 C 265.814 143.313,265.612 144.312,265.605 149.100 C 265.600 152.854,265.536 153.200,264.843 153.200 C 263.780 153.200,263.600 153.936,263.600 158.275 C 263.600 161.755,263.513 162.187,262.600 163.273 C 261.617 164.441,261.600 164.580,261.600 171.431 L 261.600 178.400 260.414 178.400 L 259.229 178.400 259.114 174.500 C 259.009 170.894,258.932 170.570,258.100 170.205 C 257.223 169.821,257.200 169.652,257.200 163.731 C 257.200 157.492,256.877 155.600,255.810 155.600 C 255.308 155.600,255.199 154.946,255.194 151.900 C 255.187 148.028,255.047 147.507,253.900 147.083 C 253.316 146.868,253.199 146.309,253.195 143.713 C 253.188 139.837,252.926 138.800,251.953 138.800 C 251.276 138.800,251.196 138.448,251.162 135.300 C 251.084 127.975,250.667 124.536,249.737 123.532 C 249.006 122.743,248.853 122.023,248.737 118.849 C 248.614 115.482,248.508 115.036,247.700 114.500 C 246.895 113.966,246.800 113.574,246.800 110.797 C 246.800 107.926,246.725 107.643,245.800 107.037 C 244.815 106.391,244.800 106.300,244.800 100.988 C 244.800 95.734,244.774 95.572,243.800 94.725 C 243.250 94.247,242.800 93.618,242.800 93.328 C 242.800 93.038,242.543 92.800,242.229 92.800 C 241.915 92.800,241.304 92.350,240.871 91.800 L 240.085 90.800 198.898 90.800 L 157.712 90.800 156.961 91.800 C 156.548 92.350,155.983 92.800,155.705 92.800 C 155.427 92.800,155.200 93.250,155.200 93.800 C 155.200 94.350,155.033 94.800,154.829 94.800 C 153.648 94.800,153.200 96.132,153.200 99.641 C 153.200 102.689,153.095 103.264,152.500 103.483 C 151.350 103.908,151.213 104.428,151.206 108.374 C 151.201 111.733,151.101 112.254,150.300 113.106 C 149.328 114.139,148.927 117.537,148.840 125.458 C 148.803 128.807,148.716 129.196,147.807 130.058 C 146.915 130.904,146.813 131.321,146.807 134.142 C 146.801 136.905,146.679 137.428,145.800 138.473 C 144.895 139.548,144.800 140.005,144.800 143.267 C 144.800 146.523,144.713 146.942,143.900 147.600 C 143.033 148.301,142.996 148.603,142.876 155.910 L 142.753 163.493 141.776 163.938 C 140.832 164.368,140.800 164.519,140.800 168.562 C 140.800 172.501,140.745 172.786,139.837 173.499 C 139.308 173.916,138.792 174.694,138.692 175.228 C 138.591 175.763,138.484 173.983,138.454 171.274 C 138.401 166.454,138.076 164.950,136.942 164.280 C 136.541 164.044,136.400 162.873,136.400 159.788 C 136.400 155.671,136.387 155.612,135.400 155.364 C 134.409 155.116,134.400 155.072,134.400 150.730 C 134.400 146.287,134.045 144.800,132.986 144.800 C 132.495 144.800,132.400 143.737,132.400 138.259 C 132.400 129.031,132.129 126.829,130.940 126.377 C 130.025 126.029,130.000 125.890,130.000 121.200 C 130.000 116.427,129.990 116.377,129.000 116.000 C 128.020 115.627,128.000 115.534,128.000 111.384 C 128.000 107.078,127.639 105.600,126.586 105.600 C 126.098 105.600,126.000 104.630,126.000 99.829 C 126.000 93.946,125.717 92.800,124.266 92.800 C 124.004 92.800,123.612 92.395,123.395 91.900 L 123.000 91.000 87.084 90.898 L 51.168 90.796 50.284 91.760 M118.547 98.100 C 118.859 98.595,119.236 99.870,119.386 100.933 C 119.536 101.997,119.902 103.554,120.198 104.394 C 120.494 105.234,120.936 107.694,121.179 109.861 C 121.422 112.027,121.889 114.970,122.217 116.400 C 122.544 117.830,123.066 121.462,123.377 124.472 C 123.688 127.481,124.120 130.277,124.338 130.684 C 124.556 131.091,124.941 133.309,125.194 135.612 C 125.446 137.915,125.915 140.608,126.235 141.596 C 126.555 142.583,127.091 145.553,127.427 148.196 C 127.762 150.838,128.200 153.540,128.400 154.200 C 128.789 155.482,129.382 159.950,129.799 164.725 C 129.939 166.334,130.306 168.367,130.615 169.242 C 130.924 170.117,131.367 172.706,131.599 174.995 C 131.832 177.284,132.284 179.783,132.604 180.548 C 132.924 181.313,133.372 183.618,133.600 185.670 C 133.828 187.721,134.369 191.200,134.800 193.400 C 135.232 195.600,135.764 199.427,135.981 201.905 C 136.199 204.382,136.559 206.750,136.782 207.167 C 137.005 207.584,137.466 209.777,137.806 212.041 C 138.146 214.305,138.487 216.220,138.563 216.296 C 138.746 216.479,140.296 208.584,141.233 202.690 C 141.645 200.100,142.165 197.639,142.389 197.221 C 142.612 196.803,143.078 194.434,143.424 191.956 C 143.769 189.478,144.230 187.118,144.446 186.713 C 144.663 186.308,145.105 183.687,145.429 180.888 C 145.752 178.090,146.269 174.900,146.578 173.800 C 146.886 172.700,147.265 170.540,147.420 169.000 C 147.575 167.460,148.042 165.087,148.459 163.726 C 148.875 162.366,149.398 159.756,149.621 157.926 C 149.845 156.097,150.285 153.790,150.600 152.800 C 150.916 151.810,151.450 148.715,151.788 145.922 C 152.127 143.129,152.575 140.393,152.784 139.842 C 152.993 139.291,153.363 137.256,153.605 135.320 C 153.846 133.384,154.378 130.630,154.787 129.200 C 155.195 127.770,155.736 124.993,155.989 123.028 C 156.242 121.063,156.628 119.122,156.846 118.714 C 157.064 118.306,157.510 115.774,157.835 113.086 C 158.161 110.399,158.692 107.149,159.014 105.866 C 159.337 104.582,159.720 102.519,159.865 101.282 C 160.050 99.711,160.408 98.756,161.053 98.111 L 161.976 97.188 199.023 97.294 L 236.071 97.400 236.779 98.274 C 237.212 98.810,237.655 100.437,237.920 102.474 C 238.158 104.303,238.616 106.340,238.939 107.000 C 239.262 107.660,239.725 109.730,239.968 111.600 C 240.211 113.470,240.662 115.830,240.969 116.844 C 241.277 117.858,241.742 120.468,242.003 122.644 C 242.265 124.820,242.800 127.680,243.192 129.000 C 243.584 130.320,244.036 132.570,244.197 134.000 C 244.357 135.430,244.749 137.230,245.068 138.000 C 245.386 138.770,245.910 141.153,246.231 143.294 C 246.553 145.436,246.991 147.649,247.204 148.211 C 247.418 148.774,247.867 151.325,248.202 153.880 C 248.537 156.436,249.066 159.276,249.377 160.193 C 249.688 161.109,250.144 163.328,250.390 165.125 C 250.636 166.921,251.091 168.999,251.402 169.743 C 251.713 170.487,252.234 172.879,252.560 175.059 C 252.886 177.239,253.363 179.558,253.620 180.211 C 254.371 182.123,254.642 190.383,253.956 190.474 C 253.650 190.515,255.920 190.658,259.000 190.792 C 262.080 190.926,264.870 191.118,265.200 191.218 C 265.670 191.360,265.821 190.965,265.897 189.400 C 266.099 185.227,266.837 179.886,267.396 178.548 C 267.716 177.783,268.168 175.284,268.401 172.995 C 268.633 170.706,269.077 168.115,269.386 167.238 C 269.696 166.361,270.153 163.429,270.403 160.722 C 270.653 158.015,271.108 154.720,271.414 153.400 C 271.720 152.080,272.255 148.878,272.602 146.284 C 272.949 143.690,273.415 141.087,273.638 140.500 C 273.861 139.913,274.311 137.355,274.637 134.816 C 274.963 132.277,275.481 129.390,275.787 128.400 C 276.094 127.410,276.545 124.440,276.789 121.800 C 277.033 119.160,277.485 116.010,277.793 114.800 C 278.101 113.590,278.556 110.729,278.803 108.442 C 279.051 106.155,279.497 103.635,279.795 102.842 C 280.093 102.049,280.444 100.750,280.576 99.955 C 281.070 96.979,278.659 97.173,313.572 97.293 C 343.630 97.396,344.886 97.430,345.412 98.149 C 346.006 98.962,345.830 100.714,344.984 102.400 C 344.708 102.951,344.353 104.481,344.194 105.800 C 344.035 107.120,343.575 109.190,343.171 110.400 C 342.768 111.610,342.236 114.117,341.990 115.971 C 
341.744 117.825,341.294 120.075,340.990 120.971 C 340.686 121.867,340.233 123.950,339.984 125.600 C 339.735 127.250,339.272 129.130,338.957 129.779 C 338.641 130.427,338.198 132.227,337.972 133.779 C 337.747 135.330,337.223 137.590,336.809 138.800 C 336.395 140.010,335.945 142.117,335.810 143.481 C 335.675 144.846,335.299 146.916,334.974 148.081 C 334.649 149.247,334.107 151.820,333.768 153.800 C 333.429 155.780,332.910 157.772,332.615 158.227 C 332.319 158.682,331.863 160.482,331.602 162.227 C 331.341 163.972,330.882 165.940,330.583 166.600 C 330.283 167.260,329.840 169.330,329.598 171.200 C 329.357 173.070,328.822 175.860,328.410 177.400 C 327.997 178.940,327.534 181.190,327.381 182.400 C 327.228 183.610,326.786 185.410,326.397 186.400 C 326.009 187.390,325.494 189.476,325.252 191.036 C 325.010 192.596,324.560 194.486,324.250 195.236 C 323.941 195.986,323.484 198.155,323.235 200.055 C 322.986 201.955,322.526 204.295,322.214 205.255 C 321.901 206.215,321.448 208.337,321.208 209.970 C 320.968 211.604,320.515 213.494,320.203 214.170 C 319.891 214.847,319.368 216.968,319.041 218.883 C 318.714 220.799,318.255 222.723,318.022 223.158 C 317.790 223.593,317.410 225.356,317.178 227.075 C 316.946 228.794,316.420 231.460,316.008 233.000 C 315.597 234.540,315.134 236.790,314.981 238.000 C 314.828 239.210,314.386 241.010,313.997 242.000 C 313.609 242.990,313.087 245.120,312.837 246.734 C 312.587 248.348,312.140 250.249,311.843 250.958 C 311.547 251.668,311.084 253.858,310.814 255.824 C 310.545 257.791,309.994 260.570,309.589 262.000 C 309.185 263.430,308.736 265.489,308.591 266.576 C 308.446 267.664,308.008 269.374,307.616 270.376 C 307.225 271.379,306.774 273.280,306.613 274.600 C 306.453 275.920,306.065 277.619,305.750 278.375 C 305.436 279.131,304.909 281.561,304.581 283.775 C 304.252 285.989,303.728 288.610,303.416 289.600 C 303.105 290.590,302.670 292.617,302.451 294.104 C 302.033 296.933,300.225 301.989,299.451 302.494 C 298.428 303.161,269.642 302.842,268.302 302.149 C 267.247 301.604,266.728 301.572,265.091 301.949 C 263.778 302.253,256.370 302.400,242.444 302.400 L 221.750 302.400 220.700 301.300 C 219.816 300.375,216.915 295.036,212.461 286.140 C 211.944 285.108,211.269 284.012,210.961 283.703 C 210.652 283.395,210.400 282.933,210.400 282.677 C 210.400 282.421,209.958 281.309,209.417 280.206 C 208.877 279.103,208.150 277.570,207.803 276.800 C 206.893 274.783,206.039 273.198,205.001 271.600 C 204.501 270.830,203.967 269.660,203.815 269.000 C 203.662 268.340,203.304 267.530,203.019 267.200 C 202.734 266.870,202.279 265.880,202.006 265.000 C 201.734 264.120,201.290 263.220,201.018 263.000 C 200.747 262.780,200.141 261.790,199.672 260.800 C 199.203 259.810,198.648 258.730,198.437 258.400 C 198.226 258.070,197.547 256.644,196.927 255.231 C 193.776 248.049,192.264 245.975,191.058 247.183 C 190.723 247.518,190.600 254.865,190.600 274.452 C 190.600 300.529,190.579 301.277,189.824 301.831 C 188.794 302.585,160.823 302.668,157.609 301.926 C 155.839 301.518,155.401 301.545,154.417 302.126 C 153.378 302.740,150.844 302.800,125.861 302.800 L 98.445 302.800 97.400 301.900 C 96.519 301.141,96.262 300.403,95.768 297.200 C 95.445 295.110,94.990 292.590,94.757 291.600 C 94.524 290.610,94.073 288.450,93.755 286.800 C 93.436 285.150,92.831 282.720,92.410 281.400 C 91.989 280.080,91.436 277.560,91.181 275.800 C 90.926 274.040,90.567 272.317,90.383 271.972 C 90.199 271.626,89.754 269.286,89.393 266.772 C 89.033 264.257,88.415 261.120,88.021 259.800 C 87.626 258.480,87.171 256.320,87.010 255.000 C 86.849 253.681,86.468 252.119,86.164 251.530 C 85.859 250.940,85.354 248.780,85.042 246.729 C 84.729 244.678,84.286 242.516,84.056 241.924 C 83.826 241.332,83.365 238.902,83.032 236.524 C 82.699 234.146,82.160 231.390,81.835 230.400 C 81.511 229.410,81.058 227.324,80.829 225.764 C 80.600 224.204,80.158 222.314,79.846 221.564 C 79.534 220.814,79.068 218.760,78.809 217.000 C 78.550 215.240,78.087 213.042,77.779 212.116 C 77.472 211.189,77.025 208.759,76.787 206.716 C 76.548 204.672,76.025 202.010,75.624 200.800 C 75.223 199.590,74.766 197.520,74.608 196.200 C 74.451 194.880,74.072 193.200,73.768 192.467 C 73.463 191.734,72.929 189.484,72.583 187.467 C 72.236 185.450,71.703 182.900,71.398 181.800 C 71.093 180.700,70.648 178.114,70.408 176.053 C 70.168 173.993,69.730 171.833,69.433 171.253 C 69.136 170.674,68.683 168.604,68.426 166.654 C 68.168 164.703,67.712 162.723,67.412 162.254 C 67.112 161.784,66.657 159.960,66.402 158.200 C 66.147 156.440,65.684 154.100,65.372 153.000 C 65.060 151.900,64.535 149.110,64.204 146.800 C 63.874 144.490,63.348 141.877,63.036 140.994 C 62.724 140.111,62.281 138.039,62.052 136.390 C 61.822 134.742,61.369 132.854,61.045 132.196 C 60.720 131.538,60.253 129.512,60.007 127.694 C 59.761 125.875,59.319 123.703,59.023 122.867 C 58.728 122.030,58.279 119.648,58.026 117.573 C 57.773 115.498,57.309 113.080,56.995 112.200 C 56.681 111.320,56.161 108.980,55.840 107.000 C 55.519 105.020,54.962 102.818,54.602 102.107 C 53.681 100.286,53.945 98.347,55.200 97.715 C 55.977 97.324,63.079 97.210,87.091 97.206 L 117.982 97.200 118.547 98.100 M167.600 109.508 C 167.600 109.677,168.995 109.759,170.700 109.691 C 175.471 109.498,175.808 109.315,171.500 109.254 C 169.355 109.225,167.600 109.338,167.600 109.508 M190.400 120.810 C 190.400 121.035,189.950 121.391,189.400 121.600 C 188.487 121.947,188.403 122.181,188.432 124.290 C 188.465 126.754,188.515 126.741,189.194 124.100 C 189.457 123.075,189.863 122.400,190.215 122.400 C 190.572 122.400,190.800 122.011,190.800 121.400 C 190.800 120.850,190.710 120.400,190.600 120.400 C 190.490 120.400,190.400 120.584,190.400 120.810 M188.425 137.220 C 188.449 138.517,188.474 138.542,188.838 137.632 C 189.094 136.991,189.085 136.525,188.812 136.252 C 188.529 135.969,188.408 136.273,188.425 137.220 M157.200 190.800 C 157.200 191.301,157.624 191.301,158.400 190.800 C 158.885 190.486,158.828 190.411,158.100 190.406 C 157.605 190.403,157.200 190.580,157.200 190.800 M229.919 215.800 L 229.800 241.000 228.900 242.447 C 227.765 244.272,227.774 244.666,229.009 247.459 C 229.768 249.174,230.132 249.628,230.477 249.283 C 231.033 248.727,230.947 192.183,230.388 191.210 C 230.184 190.854,229.988 201.090,229.919 215.800 M204.800 198.000 C 204.800 198.660,204.949 199.200,205.131 199.200 C 205.313 199.200,205.382 198.660,205.285 198.000 C 205.188 197.340,205.040 196.800,204.955 196.800 C 204.870 196.800,204.800 197.340,204.800 198.000 " stroke="none" fill="#e7e2e2" fill-rule="evenodd"></path><path id="path2" d="M56.610 99.567 C 56.254 100.689,57.056 106.399,57.769 107.823 C 58.106 108.496,58.581 110.476,58.823 112.223 C 59.066 113.970,59.518 116.073,59.827 116.896 C 60.137 117.719,60.653 120.419,60.975 122.896 C 61.297 125.373,61.821 128.120,62.140 129.000 C 62.460 129.880,62.851 131.860,63.011 133.400 C 63.171 134.940,63.626 136.843,64.023 137.629 C 64.420 138.416,64.872 140.216,65.028 141.629 C 65.184 143.043,65.635 145.221,66.029 146.468 C 66.424 147.716,66.957 150.596,67.215 152.868 C 67.472 155.141,67.936 157.571,68.246 158.270 C 68.556 158.968,69.003 161.038,69.239 162.870 C 69.476 164.701,70.001 166.920,70.405 167.800 C 70.810 168.680,71.267 170.660,71.421 172.200 C 71.575 173.740,71.944 175.478,72.241 176.063 C 72.539 176.647,73.065 179.302,73.411 181.962 C 73.757 184.623,74.282 187.384,74.576 188.100 C 74.871 188.815,75.321 190.996,75.577 192.946 C 75.833 194.897,76.304 196.892,76.624 197.381 C 76.944 197.869,77.389 199.726,77.612 201.507 C 77.835 203.288,78.281 205.374,78.602 206.142 C 78.923 206.911,79.388 209.308,79.636 211.470 C 79.884 213.631,80.411 216.390,80.807 217.600 C 81.203 218.810,81.658 221.047,81.818 222.572 C 81.978 224.096,82.432 226.076,82.828 226.972 C 83.224 227.867,83.664 229.590,83.806 230.800 C 83.948 232.010,84.407 234.170,84.826 235.600 C 85.244 237.030,85.768 239.839,85.991 241.842 C 86.213 243.845,86.675 246.275,87.018 247.242 C 87.361 248.209,87.821 250.421,88.041 252.158 C 88.260 253.895,88.700 255.820,89.019 256.437 C 89.338 257.053,89.800 258.962,90.046 260.679 C 90.293 262.395,90.818 264.790,91.214 266.000 C 91.610 267.210,92.063 269.730,92.220 271.600 C 92.378 273.470,92.824 275.814,93.212 276.809 C 93.600 277.805,94.045 279.875,94.201 281.409 C 94.358 282.944,94.818 284.970,95.225 285.911 C 95.632 286.852,96.161 289.055,96.401 290.806 C 96.641 292.558,97.099 294.617,97.418 295.382 C 97.738 296.148,98.001 297.095,98.002 297.487 C 98.003 297.879,98.192 298.875,98.421 299.700 L 98.838 301.200 125.995 301.200 C 141.554 301.200,153.247 301.047,153.374 300.842 C 153.496 300.645,153.603 276.110,153.612 246.319 C 153.629 187.631,153.529 190.212,155.828 188.907 L 157.400 188.013 178.726 188.007 C 203.149 187.999,203.432 188.034,204.437 191.142 C 204.696 191.944,205.334 193.336,205.854 194.235 C 206.374 195.134,206.800 196.142,206.800 196.473 C 206.800 196.805,207.153 197.396,207.585 197.786 C 208.017 198.177,208.579 199.150,208.836 199.948 C 209.092 200.747,209.557 201.694,209.870 202.053 C 210.182 202.412,210.630 203.402,210.865 204.253 C 211.099 205.104,211.618 206.261,212.019 206.824 C 212.419 207.388,212.865 208.320,213.009 208.895 C 213.154 209.470,213.616 210.252,214.036 210.633 C 214.456 211.013,214.800 211.519,214.800 211.756 C 214.800 211.994,215.233 213.091,215.762 214.194 C 217.785 218.414,220.074 223.040,220.614 224.000 C 221.641 225.825,223.600 230.181,223.600 230.640 C 223.600 230.889,223.935 231.521,224.345 232.046 C 224.755 232.571,225.225 233.450,225.390 234.000 C 225.555 234.550,226.109 235.450,226.622 236.000 C 227.135 236.550,227.733 237.450,227.952 238.000 C 228.222 238.680,228.357 231.245,228.375 214.744 C 228.398 192.236,228.450 190.431,229.100 189.689 C 230.375 188.234,232.149 188.000,241.928 188.000 C 252.534 188.000,253.053 187.876,252.374 185.509 C 252.180 184.831,251.819 182.369,251.572 180.038 C 251.325 177.707,250.802 174.810,250.408 173.600 C 250.015 172.390,249.568 170.068,249.416 168.440 C 249.264 166.812,248.881 165.084,248.564 164.601 C 248.247 
164.117,247.792 162.209,247.553 160.361 C 247.314 158.512,246.862 156.280,246.549 155.400 C 246.235 154.520,245.793 152.090,245.566 150.000 C 245.338 147.910,244.795 144.872,244.358 143.248 C 243.922 141.625,243.384 138.854,243.163 137.090 C 242.941 135.327,242.492 133.365,242.164 132.731 C 241.837 132.097,241.380 130.008,241.150 128.089 C 240.921 126.170,240.490 123.953,240.194 123.162 C 239.898 122.371,239.455 119.851,239.209 117.562 C 238.962 115.273,238.420 112.320,238.003 111.000 C 237.586 109.680,237.130 107.340,236.989 105.800 C 236.828 104.029,236.354 102.228,235.702 100.900 L 234.669 98.800 198.762 98.800 L 162.854 98.800 162.027 99.962 C 161.533 100.655,161.200 101.748,161.200 102.672 C 161.200 105.299,160.419 110.916,159.819 112.600 C 159.505 113.480,159.049 115.910,158.804 117.999 C 158.560 120.089,158.094 122.331,157.769 122.982 C 157.444 123.633,156.984 125.974,156.747 128.183 C 156.509 130.392,156.068 132.798,155.766 133.529 C 155.464 134.260,155.022 136.870,154.785 139.329 C 154.547 141.788,154.018 145.060,153.610 146.600 C 153.201 148.140,152.743 150.656,152.592 152.191 C 152.440 153.725,151.997 155.795,151.605 156.791 C 151.214 157.786,150.694 160.437,150.450 162.683 C 150.206 164.929,149.748 167.449,149.432 168.283 C 149.115 169.117,148.647 171.960,148.391 174.600 C 148.134 177.240,147.682 179.983,147.385 180.695 C 147.088 181.407,146.653 183.713,146.418 185.818 C 146.183 187.924,145.712 190.311,145.371 191.123 C 145.030 191.935,144.569 194.130,144.347 196.000 C 144.124 197.870,143.677 200.300,143.352 201.400 C 143.027 202.500,142.506 205.740,142.195 208.600 C 140.954 219.993,138.065 223.875,136.837 215.800 C 136.636 214.480,136.204 212.680,135.877 211.800 C 135.550 210.920,135.081 208.310,134.834 206.000 C 134.587 203.690,134.130 200.956,133.819 199.924 C 133.507 198.892,133.042 195.472,132.784 192.324 C 132.527 189.176,132.058 186.019,131.744 185.310 C 131.429 184.600,130.979 181.910,130.743 179.331 C 130.496 176.628,130.072 174.271,129.741 173.767 C 129.426 173.285,128.926 170.756,128.631 168.146 C 128.336 165.536,127.880 162.860,127.619 162.200 C 127.357 161.540,126.885 158.300,126.570 155.000 C 126.254 151.700,125.736 148.100,125.419 147.000 C 125.102 145.900,124.648 143.084,124.412 140.743 C 124.175 138.402,123.728 135.972,123.417 135.343 C 123.107 134.714,122.650 132.310,122.402 130.000 C 122.154 127.690,121.688 124.886,121.367 123.770 C 121.046 122.653,120.525 119.233,120.208 116.170 C 119.891 113.106,119.368 109.610,119.047 108.400 C 118.725 107.190,118.342 104.802,118.196 103.094 C 117.790 98.340,121.151 98.800,86.798 98.800 C 57.631 98.800,56.848 98.820,56.610 99.567 M282.221 99.166 C 282.097 99.367,281.889 100.672,281.759 102.066 C 281.629 103.460,281.191 105.950,280.785 107.600 C 280.379 109.250,279.858 112.771,279.627 115.424 C 279.396 118.078,278.938 121.138,278.610 122.224 C 278.281 123.311,277.821 126.071,277.587 128.357 C 277.353 130.644,276.897 133.026,276.574 133.650 C 276.252 134.274,275.798 136.723,275.566 139.092 C 275.335 141.461,274.882 144.300,274.560 145.400 C 274.239 146.500,273.724 150.011,273.416 153.202 C 273.109 156.394,272.592 159.814,272.268 160.802 C 271.944 161.791,271.495 164.440,271.269 166.688 C 271.044 168.937,270.584 171.277,270.248 171.888 C 269.902 172.518,269.457 174.973,269.224 177.547 C 268.997 180.047,268.539 182.640,268.206 183.308 C 267.379 184.967,267.427 188.164,268.300 189.496 C 268.957 190.499,269.006 193.947,269.100 245.382 C 269.156 275.532,269.285 300.425,269.388 300.700 C 269.533 301.088,272.899 301.200,284.363 301.200 L 299.151 301.200 299.393 299.300 C 299.526 298.255,299.968 296.500,300.375 295.400 C 300.782 294.300,301.317 291.632,301.564 289.472 C 301.811 287.312,302.270 284.928,302.585 284.175 C 302.899 283.422,303.346 281.446,303.577 279.784 C 303.808 278.122,304.335 276.006,304.748 275.081 C 305.161 274.157,305.625 272.238,305.779 270.817 C 305.933 269.397,306.332 267.597,306.666 266.817 C 306.999 266.038,307.516 263.476,307.814 261.124 C 308.111 258.772,308.608 256.342,308.917 255.724 C 309.226 255.106,309.681 253.115,309.929 251.301 C 310.177 249.487,310.642 247.597,310.963 247.101 C 311.283 246.605,311.751 244.680,312.002 242.823 C 312.254 240.965,312.697 238.985,312.988 238.423 C 313.279 237.860,313.717 235.754,313.961 233.743 C 314.206 231.731,314.739 229.031,315.146 227.743 C 315.553 226.454,316.013 224.417,316.168 223.216 C 316.323 222.015,316.785 220.215,317.194 219.216 C 317.603 218.217,318.132 215.995,318.370 214.279 C 318.607 212.562,319.044 210.672,319.340 210.079 C 319.636 209.485,320.089 207.232,320.345 205.072 C 320.602 202.912,321.070 200.528,321.385 199.775 C 321.699 199.022,322.150 197.018,322.386 195.322 C 322.622 193.625,323.082 191.828,323.410 191.329 C 323.737 190.829,324.192 189.021,324.420 187.310 C 324.648 185.600,325.099 183.516,325.422 182.680 C 325.745 181.843,326.267 179.199,326.582 176.804 C 326.897 174.409,327.414 171.943,327.730 171.324 C 328.047 170.706,328.433 169.030,328.587 167.600 C 328.741 166.170,329.201 164.280,329.609 163.400 C 330.016 162.520,330.540 160.398,330.773 158.683 C 331.006 156.969,331.445 155.079,331.749 154.483 C 332.052 153.888,332.505 151.639,332.756 149.486 C 333.006 147.333,333.552 144.543,333.970 143.286 C 334.387 142.029,334.845 140.022,334.988 138.826 C 335.130 137.631,335.574 135.921,335.973 135.026 C 336.372 134.132,336.826 132.231,336.980 130.802 C 337.135 129.374,337.587 127.394,337.983 126.402 C 338.380 125.411,338.905 122.852,339.150 120.715 C 339.394 118.579,339.855 116.149,340.174 115.315 C 340.493 114.482,340.953 112.450,341.196 110.801 C 341.439 109.151,341.889 107.419,342.196 106.950 C 342.835 105.974,343.564 101.190,343.290 99.760 L 343.107 98.800 312.777 98.800 C 294.869 98.800,282.355 98.950,282.221 99.166 M206.820 106.755 C 207.602 107.174,209.913 107.718,212.014 107.978 C 214.097 108.235,216.340 108.637,217.000 108.871 C 217.660 109.105,221.530 109.409,225.600 109.548 L 233.000 109.800 233.647 111.095 C 234.003 111.808,234.518 112.660,234.792 112.990 C 237.289 115.999,231.236 117.651,224.627 115.763 C 223.364 115.403,220.631 115.196,217.027 115.187 C 211.907 115.176,211.223 115.088,209.433 114.212 C 207.676 113.351,207.379 113.310,206.644 113.824 C 204.272 115.486,203.223 114.307,203.420 110.203 C 203.621 106.021,204.254 105.379,206.820 106.755 M191.371 107.029 C 192.350 108.007,192.165 109.800,191.008 110.558 C 189.370 111.631,188.632 113.424,189.384 114.499 C 189.723 114.983,190.000 115.868,190.000 116.467 C 190.000 117.259,190.300 117.702,191.100 118.090 L 192.200 118.624 192.139 122.922 C 192.067 128.040,191.568 129.200,189.440 129.200 C 186.980 129.200,186.205 126.772,186.833 121.032 C 187.291 116.847,187.030 116.297,185.206 117.596 C 182.977 119.183,170.298 119.834,169.024 118.427 C 168.078 117.381,168.512 115.280,169.732 115.001 C 171.151 114.676,178.458 114.639,180.400 114.946 C 181.871 115.179,182.382 115.087,183.194 114.443 C 184.631 113.304,184.298 113.204,178.156 112.931 C 169.811 112.559,168.820 112.614,166.034 113.600 C 162.100 114.992,160.859 112.469,163.915 109.288 C 165.839 107.286,167.841 107.024,177.200 107.549 C 183.457 107.899,185.992 107.756,189.200 106.869 C 189.970 106.656,190.632 106.463,190.671 106.441 C 190.711 106.418,191.026 106.683,191.371 107.029 M219.421 116.959 C 220.510 117.487,222.069 118.129,222.888 118.386 C 223.793 118.671,224.862 119.469,225.620 120.425 L 226.864 121.996 225.733 122.426 C 225.111 122.662,224.152 122.742,223.601 122.603 C 223.050 122.464,220.800 122.035,218.600 121.649 C 214.829 120.989,210.529 119.179,209.755 117.927 C 208.622 116.093,216.093 115.345,219.421 116.959 M191.785 133.673 C 192.123 134.813,192.400 135.983,192.400 136.273 C 192.400 136.563,192.625 136.802,192.900 136.805 C 193.175 136.808,193.773 136.911,194.229 137.033 C 194.805 137.188,195.583 136.817,196.786 135.812 C 198.391 134.471,198.645 134.387,200.357 134.639 C 203.384 135.083,203.929 135.417,204.229 137.013 C 204.805 140.086,202.763 141.728,199.086 141.146 C 197.315 140.866,196.912 140.931,196.189 141.611 C 195.021 142.707,191.600 142.127,191.600 140.833 C 191.600 140.190,190.507 140.059,189.501 140.582 C 187.465 141.638,184.408 137.031,186.348 135.832 C 186.540 135.714,186.804 135.080,186.935 134.425 C 187.105 133.573,187.605 133.005,188.687 132.434 C 190.869 131.282,191.102 131.375,191.785 133.673 M196.694 147.654 L 198.967 148.954 197.784 149.459 C 195.017 150.639,190.000 149.385,190.000 147.513 C 190.000 145.642,193.299 145.711,196.694 147.654 M204.581 147.993 C 205.149 148.209,205.787 148.839,205.997 149.393 C 206.208 149.947,206.657 150.400,206.996 150.400 C 208.149 150.400,209.287 152.840,208.526 153.681 C 207.840 154.440,202.244 154.344,200.057 153.535 C 198.670 153.023,199.680 152.000,201.573 152.000 C 203.834 152.000,204.982 151.006,203.413 150.407 C 201.413 149.643,201.077 149.199,201.852 148.343 C 202.615 147.499,203.114 147.435,204.581 147.993 M187.124 150.667 C 187.355 152.290,185.156 154.218,183.587 153.768 C 181.717 153.232,181.088 151.382,182.411 150.311 C 183.771 149.210,186.950 149.450,187.124 150.667 M203.854 160.845 C 204.788 161.620,201.249 164.665,199.029 164.998 C 198.133 165.132,196.554 165.444,195.520 165.691 C 193.282 166.227,190.644 165.551,189.785 164.222 C 188.812 162.716,188.617 161.123,189.340 160.594 C 190.270 159.914,202.998 160.134,203.854 160.845 M186.077 207.230 C 186.156 207.466,186.391 207.660,186.600 207.660 C 186.809 207.660,187.044 207.466,187.123 207.230 C 187.202 206.994,186.967 206.800,186.600 206.800 C 186.233 206.800,185.998 206.994,186.077 207.230 M246.839 212.557 C 244.747 213.652,244.931 213.826,248.588 214.215 C 251.535 214.529,256.400 216.750,256.400 217.782 C 256.400 218.062,256.835 218.726,257.366 219.257 C 258.030 219.921,258.477 221.034,258.794 222.812 C 259.905 229.045,260.228 229.570,262.389 228.661 C 263.232 228.307,263.468 228.028,263.174 227.734 C 262.943 227.503,262.478 226.259,262.141 224.969 C 261.805 223.679,261.185 222.141,260.765 221.550 C 260.344 220.960,260.
000 220.286,260.000 220.052 C 260.000 219.819,259.640 219.435,259.200 219.200 C 258.760 218.965,258.400 218.519,258.400 218.209 C 258.400 217.900,257.352 216.535,256.071 215.176 C 252.666 211.565,250.118 210.842,246.839 212.557 M240.327 216.300 C 240.236 217.088,239.944 217.436,239.300 217.528 C 238.771 217.603,238.403 217.933,238.406 218.328 C 238.410 218.753,238.520 218.836,238.706 218.554 C 238.868 218.309,239.386 217.988,239.857 217.841 C 240.328 217.694,240.806 217.219,240.919 216.787 C 241.033 216.354,241.412 216.000,241.763 216.000 C 242.113 216.000,242.400 215.820,242.400 215.600 C 242.400 214.562,240.451 215.220,240.327 216.300 M245.915 220.801 C 246.189 222.671,245.073 224.107,243.796 223.525 C 242.515 222.942,242.401 223.084,242.044 225.713 C 241.790 227.589,242.432 235.809,242.861 236.174 C 243.119 236.393,244.746 237.200,244.930 237.200 C 245.031 237.200,245.223 236.761,245.358 236.224 C 245.516 235.597,246.618 234.567,248.449 233.339 C 252.011 230.950,252.306 230.353,251.648 226.873 C 251.370 225.403,251.151 223.660,251.161 223.000 C 251.184 221.472,248.896 219.600,247.005 219.600 C 245.825 219.600,245.751 219.682,245.915 220.801 M175.827 221.559 C 174.790 221.965,175.371 222.251,177.941 222.597 C 179.270 222.777,180.328 223.174,180.731 223.645 C 181.670 224.741,186.411 226.949,186.861 226.499 C 189.063 224.297,179.625 220.072,175.827 221.559 M171.349 223.788 C 171.213 224.143,171.222 224.555,171.370 224.703 C 171.708 225.041,173.027 224.236,172.921 223.756 C 172.777 223.106,171.602 223.130,171.349 223.788 M169.007 226.387 C 168.662 227.054,168.202 227.600,167.986 227.600 C 167.334 227.600,164.772 233.518,164.526 235.592 C 164.299 237.515,164.307 237.531,165.987 238.591 C 168.038 239.887,168.300 239.700,167.680 237.381 C 167.115 235.271,167.063 233.732,167.545 233.434 C 167.735 233.317,168.125 232.361,168.413 231.310 C 168.700 230.260,169.265 228.971,169.668 228.446 C 170.454 227.421,170.641 225.796,170.017 225.411 C 169.806 225.280,169.352 225.720,169.007 226.387 M178.300 227.505 C 176.490 228.088,176.166 229.200,177.806 229.200 C 178.086 229.200,178.413 229.458,178.534 229.773 C 178.825 230.531,176.731 231.005,175.650 230.427 C 173.735 229.402,173.600 229.677,173.600 234.613 C 173.600 238.178,173.726 239.273,174.155 239.438 C 174.461 239.555,174.935 240.454,175.210 241.436 C 175.961 244.118,177.232 244.184,177.806 241.572 C 177.965 240.848,178.319 240.399,178.732 240.398 C 182.912 240.384,184.975 236.786,182.888 233.149 C 182.350 232.211,182.351 232.005,182.899 231.223 C 184.464 228.989,181.396 226.509,178.300 227.505 M259.200 230.000 C 259.200 230.747,259.307 230.853,259.680 230.480 C 260.053 230.107,260.053 229.893,259.680 229.520 C 259.307 229.147,259.200 229.253,259.200 230.000 M213.200 258.424 C 213.200 259.671,213.353 260.352,213.600 260.200 C 213.820 260.064,214.000 259.153,214.000 258.176 C 214.000 257.199,213.820 256.400,213.600 256.400 C 213.380 256.400,213.200 257.311,213.200 258.424 " stroke="none" fill="#252424" fill-rule="evenodd"></path><path id="path3" d="M55.200 97.715 C 53.945 98.347,53.681 100.286,54.602 102.107 C 54.962 102.818,55.519 105.020,55.840 107.000 C 56.161 108.980,56.681 111.320,56.995 112.200 C 57.309 113.080,57.773 115.498,58.026 117.573 C 58.279 119.648,58.728 122.030,59.023 122.867 C 59.319 123.703,59.761 125.875,60.007 127.694 C 60.253 129.512,60.720 131.538,61.045 132.196 C 61.369 132.854,61.822 134.742,62.052 136.390 C 62.281 138.039,62.724 140.111,63.036 140.994 C 63.348 141.877,63.874 144.490,64.204 146.800 C 64.535 149.110,65.060 151.900,65.372 153.000 C 65.684 154.100,66.147 156.440,66.402 158.200 C 66.657 159.960,67.112 161.784,67.412 162.254 C 67.712 162.723,68.168 164.703,68.426 166.654 C 68.683 168.604,69.136 170.674,69.433 171.253 C 69.730 171.833,70.168 173.993,70.408 176.053 C 70.648 178.114,71.093 180.700,71.398 181.800 C 71.703 182.900,72.236 185.450,72.583 187.467 C 72.929 189.484,73.463 191.734,73.768 192.467 C 74.072 193.200,74.451 194.880,74.608 196.200 C 74.766 197.520,75.223 199.590,75.624 200.800 C 76.025 202.010,76.548 204.672,76.787 206.716 C 77.025 208.759,77.472 211.189,77.779 212.116 C 78.087 213.042,78.550 215.240,78.809 217.000 C 79.068 218.760,79.534 220.814,79.846 221.564 C 80.158 222.314,80.600 224.204,80.829 225.764 C 81.058 227.324,81.511 229.410,81.835 230.400 C 82.160 231.390,82.699 234.146,83.032 236.524 C 83.365 238.902,83.826 241.332,84.056 241.924 C 84.286 242.516,84.729 244.678,85.042 246.729 C 85.354 248.780,85.859 250.940,86.164 251.530 C 86.468 252.119,86.849 253.681,87.010 255.000 C 87.171 256.320,87.626 258.480,88.021 259.800 C 88.415 261.120,89.033 264.257,89.393 266.772 C 89.754 269.286,90.199 271.626,90.383 271.972 C 90.567 272.317,90.926 274.040,91.181 275.800 C 91.436 277.560,91.989 280.080,92.410 281.400 C 92.831 282.720,93.436 285.150,93.755 286.800 C 94.073 288.450,94.524 290.610,94.757 291.600 C 94.990 292.590,95.445 295.110,95.768 297.200 C 96.262 300.403,96.519 301.141,97.400 301.900 L 98.445 302.800 125.933 302.800 C 150.510 302.800,153.519 302.732,154.338 302.159 C 154.869 301.786,155.742 301.589,156.417 301.688 C 157.270 301.813,157.477 301.734,157.194 301.393 C 156.847 300.975,156.775 283.696,156.796 205.880 L 156.800 191.959 158.187 191.380 C 159.635 190.775,197.491 190.565,200.157 191.147 C 201.447 191.429,201.436 191.414,203.377 195.600 C 204.315 197.625,204.772 198.286,204.784 197.633 C 204.806 196.307,205.077 196.706,205.304 198.400 C 205.407 199.170,205.831 200.445,206.246 201.233 C 207.820 204.224,210.200 209.418,210.630 210.800 L 210.941 211.800 211.231 210.800 C 211.518 209.809,211.521 209.810,211.560 210.948 C 211.582 211.579,212.427 213.829,213.437 215.948 C 214.447 218.067,215.630 220.610,216.065 221.600 C 216.501 222.590,217.028 223.670,217.238 224.000 C 217.448 224.330,218.072 225.500,218.624 226.600 C 219.177 227.700,219.874 229.050,220.174 229.600 C 220.740 230.640,221.677 232.661,222.863 235.400 C 223.318 236.451,223.565 236.725,223.584 236.200 C 223.606 235.573,223.689 235.522,223.969 235.964 C 224.165 236.274,224.246 236.736,224.148 236.990 C 224.051 237.244,224.246 237.981,224.583 238.626 C 224.920 239.272,225.196 240.003,225.198 240.251 C 225.199 240.499,225.460 240.918,225.778 241.182 C 226.096 241.446,226.650 242.546,227.009 243.626 C 227.706 245.727,228.406 246.612,228.099 245.005 C 227.986 244.413,228.281 243.443,228.857 242.517 L 229.800 241.000 229.913 215.800 C 229.985 199.642,230.162 190.815,230.407 191.200 C 230.635 191.560,230.824 202.039,230.878 217.400 L 230.968 243.000 231.184 217.520 C 231.355 197.390,231.509 191.930,231.919 191.520 C 232.312 191.127,234.902 190.974,242.519 190.892 C 255.891 190.748,254.555 191.317,254.298 185.879 C 254.182 183.415,253.877 180.865,253.620 180.211 C 253.363 179.558,252.886 177.239,252.560 175.059 C 252.234 172.879,251.713 170.487,251.402 169.743 C 251.091 168.999,250.636 166.921,250.390 165.125 C 250.144 163.328,249.688 161.109,249.377 160.193 C 249.066 159.276,248.537 156.436,248.202 153.880 C 247.867 151.325,247.418 148.774,247.204 148.211 C 246.991 147.649,246.553 145.436,246.231 143.294 C 245.910 141.153,245.386 138.770,245.068 138.000 C 244.749 137.230,244.357 135.430,244.197 134.000 C 244.036 132.570,243.584 130.320,243.192 129.000 C 242.800 127.680,242.265 124.820,242.003 122.644 C 241.742 120.468,241.277 117.858,240.969 116.844 C 240.662 115.830,240.211 113.470,239.968 111.600 C 239.725 109.730,239.262 107.660,238.939 107.000 C 238.616 106.340,238.158 104.303,237.920 102.474 C 237.655 100.437,237.212 98.810,236.779 98.274 L 236.071 97.400 199.023 97.294 L 161.976 97.188 161.053 98.111 C 160.408 98.756,160.050 99.711,159.865 101.282 C 159.720 102.519,159.337 104.582,159.014 105.866 C 158.692 107.149,158.161 110.399,157.835 113.086 C 157.510 115.774,157.064 118.306,156.846 118.714 C 156.628 119.122,156.242 121.063,155.989 123.028 C 155.736 124.993,155.195 127.770,154.787 129.200 C 154.378 130.630,153.846 133.384,153.605 135.320 C 153.363 137.256,152.993 139.291,152.784 139.842 C 152.575 140.393,152.127 143.129,151.788 145.922 C 151.450 148.715,150.916 151.810,150.600 152.800 C 150.285 153.790,149.845 156.097,149.621 157.926 C 149.398 159.756,148.875 162.366,148.459 163.726 C 148.042 165.087,147.575 167.460,147.420 169.000 C 147.265 170.540,146.886 172.700,146.578 173.800 C 146.269 174.900,145.752 178.090,145.429 180.888 C 145.105 183.687,144.663 186.308,144.446 186.713 C 144.230 187.118,143.769 189.478,143.424 191.956 C 143.078 194.434,142.612 196.803,142.389 197.221 C 142.165 197.639,141.645 200.100,141.233 202.690 C 140.296 208.584,138.746 216.479,138.563 216.296 C 138.487 216.220,138.146 214.305,137.806 212.041 C 137.466 209.777,137.005 207.584,136.782 207.167 C 136.559 206.750,136.199 204.382,135.981 201.905 C 135.764 199.427,135.232 195.600,134.800 193.400 C 134.369 191.200,133.828 187.721,133.600 185.670 C 133.372 183.618,132.924 181.313,132.604 180.548 C 132.284 179.783,131.832 177.284,131.599 174.995 C 131.367 172.706,130.924 170.117,130.615 169.242 C 130.306 168.367,129.939 166.334,129.799 164.725 C 129.382 159.950,128.789 155.482,128.400 154.200 C 128.200 153.540,127.762 150.838,127.427 148.196 C 127.091 145.553,126.555 142.583,126.235 141.596 C 125.915 140.608,125.446 137.915,125.194 135.612 C 124.941 133.309,124.556 131.091,124.338 130.684 C 124.120 130.277,123.688 127.481,123.377 124.472 C 123.066 121.462,122.544 117.830,122.217 116.400 C 121.889 114.970,121.422 112.027,121.179 109.861 C 120.936 107.694,120.494 105.234,120.198 104.394 C 119.902 103.554,119.536 101.997,119.386 100.933 C 119.236 99.870,118.859 98.595,118.547 98.100 L 117.982 97.200 87.091 97.206 C 63.079 97.210,55.977 97.324,55.200 97.715 M281.473 97.919 C 281.108 98.322,280.701 99.271,280.569 100.026 C 280.437 100.782,280.087 102.049,279.791 102.842 C 279.495 103.635,279.051 106.155,278.803 108.442 C 278.556 110.729,278.101 113.590,277.793 114.800 C 277.485 116.010,277.033 119.160,276.789 121.800 C 276.545 124.440,276.094 127.410,275.787 128.400 C 
275.481 129.390,274.963 132.277,274.637 134.816 C 274.311 137.355,273.861 139.913,273.638 140.500 C 273.415 141.087,272.949 143.690,272.602 146.284 C 272.255 148.878,271.720 152.080,271.414 153.400 C 271.108 154.720,270.653 158.015,270.403 160.722 C 270.153 163.429,269.696 166.361,269.386 167.238 C 269.077 168.115,268.633 170.706,268.401 172.995 C 268.168 175.284,267.721 177.771,267.407 178.522 C 266.706 180.200,266.026 185.640,266.049 189.400 C 266.058 190.940,266.146 199.670,266.244 208.800 C 266.365 220.034,266.281 225.975,265.986 227.179 C 265.580 228.829,265.616 229.010,266.474 229.670 C 267.115 230.163,267.215 230.385,266.800 230.391 C 266.271 230.399,266.200 234.619,266.200 265.933 L 266.200 301.467 267.600 302.014 C 269.002 302.562,297.056 303.109,299.021 302.626 C 300.070 302.368,301.907 297.792,302.456 294.068 C 302.673 292.601,303.105 290.590,303.416 289.600 C 303.728 288.610,304.252 285.989,304.581 283.775 C 304.909 281.561,305.436 279.131,305.750 278.375 C 306.065 277.619,306.453 275.920,306.613 274.600 C 306.774 273.280,307.225 271.379,307.616 270.376 C 308.008 269.374,308.446 267.664,308.591 266.576 C 308.736 265.489,309.185 263.430,309.589 262.000 C 309.994 260.570,310.545 257.791,310.814 255.824 C 311.084 253.858,311.547 251.668,311.843 250.958 C 312.140 250.249,312.587 248.348,312.837 246.734 C 313.087 245.120,313.609 242.990,313.997 242.000 C 314.386 241.010,314.828 239.210,314.981 238.000 C 315.134 236.790,315.597 234.540,316.008 233.000 C 316.420 231.460,316.946 228.794,317.178 227.075 C 317.410 225.356,317.790 223.593,318.022 223.158 C 318.255 222.723,318.714 220.799,319.041 218.883 C 319.368 216.968,319.891 214.847,320.203 214.170 C 320.515 213.494,320.968 211.604,321.208 209.970 C 321.448 208.337,321.901 206.215,322.214 205.255 C 322.526 204.295,322.986 201.955,323.235 200.055 C 323.484 198.155,323.941 195.986,324.250 195.236 C 324.560 194.486,325.010 192.596,325.252 191.036 C 325.494 189.476,326.009 187.390,326.397 186.400 C 326.786 185.410,327.228 183.610,327.381 182.400 C 327.534 181.190,327.997 178.940,328.410 177.400 C 328.822 175.860,329.357 173.070,329.598 171.200 C 329.840 169.330,330.283 167.260,330.583 166.600 C 330.882 165.940,331.341 163.972,331.602 162.227 C 331.863 160.482,332.319 158.682,332.615 158.227 C 332.910 157.772,333.429 155.780,333.768 153.800 C 334.107 151.820,334.649 149.247,334.974 148.081 C 335.299 146.916,335.675 144.846,335.810 143.481 C 335.945 142.117,336.395 140.010,336.809 138.800 C 337.223 137.590,337.747 135.330,337.972 133.779 C 338.198 132.227,338.641 130.427,338.957 129.779 C 339.272 129.130,339.735 127.250,339.984 125.600 C 340.233 123.950,340.686 121.867,340.990 120.971 C 341.294 120.075,341.744 117.825,341.990 115.971 C 342.236 114.117,342.768 111.610,343.171 110.400 C 343.575 109.190,344.035 107.120,344.194 105.800 C 344.353 104.481,344.708 102.951,344.984 102.400 C 345.830 100.714,346.006 98.962,345.412 98.149 C 344.565 96.990,282.516 96.766,281.473 97.919 M117.917 98.500 C 118.601 99.325,120.972 112.911,122.613 125.400 C 122.931 127.820,123.537 131.330,123.960 133.200 C 124.384 135.070,124.853 137.844,125.004 139.366 C 125.154 140.887,125.530 142.957,125.839 143.966 C 126.147 144.974,126.670 148.087,127.001 150.882 C 127.333 153.677,127.855 157.187,128.163 158.682 C 128.471 160.177,128.841 162.750,128.987 164.400 C 129.132 166.050,129.589 168.750,130.002 170.400 C 130.415 172.050,130.949 175.020,131.189 177.000 C 131.429 178.980,131.885 181.513,132.203 182.628 C 132.520 183.743,132.970 186.443,133.203 188.628 C 133.435 190.813,133.875 193.860,134.181 195.400 C 134.486 196.940,134.944 200.090,135.199 202.400 C 135.454 204.710,135.993 207.860,136.397 209.400 C 136.801 210.940,137.246 213.100,137.387 214.200 C 137.528 215.300,137.837 216.815,138.075 217.568 L 138.507 218.935 139.009 217.968 C 139.646 216.743,141.451 207.895,141.818 204.200 C 141.972 202.660,142.335 200.680,142.626 199.800 C 142.916 198.920,143.525 196.130,143.978 193.600 C 144.432 191.070,145.079 187.560,145.417 185.800 C 146.697 179.133,147.623 173.684,148.032 170.400 C 148.265 168.530,148.703 166.190,149.005 165.200 C 149.307 164.210,149.758 161.960,150.006 160.200 C 150.254 158.440,150.720 156.100,151.041 155.000 C 151.362 153.900,151.898 151.020,152.233 148.600 C 152.568 146.180,153.007 143.570,153.209 142.800 C 153.411 142.030,153.859 139.330,154.204 136.800 C 154.549 134.270,155.080 131.390,155.384 130.400 C 155.687 129.410,156.141 127.106,156.393 125.280 C 156.644 123.454,157.093 121.271,157.390 120.428 C 157.687 119.586,158.046 117.840,158.188 116.548 C 158.329 115.257,158.873 111.860,159.396 109.000 C 159.920 106.140,160.457 102.808,160.591 101.597 C 160.724 100.385,160.999 99.125,161.202 98.797 C 161.698 97.994,234.008 97.667,235.503 98.460 C 236.496 98.986,236.907 100.230,237.582 104.747 C 237.824 106.367,238.199 108.025,238.416 108.430 C 238.633 108.835,239.162 111.379,239.592 114.083 C 240.023 116.788,240.644 120.170,240.973 121.600 C 241.302 123.030,241.578 124.746,241.586 125.413 C 241.594 126.080,241.874 127.610,242.209 128.813 C 242.544 130.016,243.156 132.710,243.570 134.800 C 243.984 136.890,244.603 139.770,244.945 141.200 C 245.527 143.626,245.821 145.260,247.410 154.900 C 247.745 156.935,248.375 159.950,248.808 161.600 C 249.242 163.250,249.777 165.792,249.997 167.248 C 250.218 168.704,250.643 170.594,250.942 171.448 C 251.241 172.302,251.696 174.530,251.952 176.400 C 252.209 178.270,252.696 180.982,253.034 182.426 C 254.713 189.589,254.890 189.488,240.514 189.553 C 230.582 189.597,230.006 189.641,229.614 190.374 C 229.342 190.882,229.200 199.234,229.200 214.714 C 229.200 240.859,228.965 243.539,227.041 239.300 C 226.666 238.475,225.747 236.720,224.998 235.400 C 224.249 234.080,223.347 232.370,222.995 231.600 C 220.647 226.476,220.447 226.063,218.536 222.400 C 218.020 221.410,217.425 220.330,217.214 220.000 C 217.003 219.670,216.275 218.050,215.595 216.400 C 214.163 212.923,213.951 212.484,212.395 209.800 C 211.757 208.700,210.954 207.170,210.611 206.400 C 209.154 203.136,208.835 202.446,207.367 199.400 C 206.519 197.640,205.535 195.840,205.179 195.400 C 204.824 194.960,204.216 193.738,203.827 192.683 C 202.636 189.450,204.116 189.636,179.126 189.583 C 158.446 189.540,156.068 189.632,155.106 190.514 C 155.055 190.561,154.920 215.367,154.806 245.639 C 154.634 291.476,154.508 300.788,154.051 301.339 C 153.325 302.213,99.432 302.369,98.304 301.500 C 97.524 300.900,96.582 297.697,95.979 293.600 C 95.736 291.950,95.215 289.520,94.821 288.200 C 94.427 286.880,93.982 284.900,93.831 283.800 C 93.681 282.700,93.293 280.974,92.968 279.965 C 92.644 278.956,92.033 276.166,91.611 273.765 C 90.420 266.997,89.601 262.818,88.952 260.200 C 88.625 258.880,88.024 256.066,87.617 253.946 C 87.210 251.827,86.701 249.757,86.485 249.346 C 86.269 248.936,85.974 247.790,85.828 246.800 C 85.244 242.822,83.140 232.019,82.402 229.200 C 81.970 227.550,81.421 225.058,81.183 223.661 C 80.945 222.265,80.567 220.645,80.342 220.061 C 80.117 219.478,79.585 216.930,79.159 214.400 C 78.734 211.870,78.219 209.260,78.016 208.600 C 77.812 207.940,77.440 205.983,77.188 204.252 C 76.937 202.521,76.476 200.382,76.165 199.500 C 75.853 198.618,75.413 196.704,75.187 195.248 C 74.960 193.792,74.496 191.745,74.155 190.699 C 73.814 189.654,73.303 187.314,73.020 185.499 C 72.459 181.911,71.035 174.473,70.359 171.600 C 70.126 170.610,69.659 168.450,69.323 166.800 C 68.986 165.150,68.367 162.659,67.947 161.264 C 67.526 159.869,66.995 157.349,66.766 155.664 C 66.537 153.979,66.100 151.610,65.796 150.400 C 65.491 149.190,64.968 146.480,64.633 144.377 C 64.298 142.274,63.768 139.934,63.456 139.177 C 63.144 138.420,62.767 136.810,62.617 135.600 C 62.468 134.390,62.006 132.320,61.590 131.000 C 61.175 129.680,60.636 127.098,60.393 125.262 C 60.150 123.427,59.798 121.521,59.611 121.028 C 59.423 120.536,58.963 118.168,58.588 115.766 C 58.213 113.365,57.664 110.770,57.367 110.000 C 57.070 109.230,56.560 107.160,56.234 105.400 C 55.908 103.640,55.473 101.421,55.269 100.469 C 54.930 98.897,54.974 98.707,55.748 98.395 C 57.206 97.806,117.426 97.908,117.917 98.500 M344.149 98.513 C 344.905 99.066,344.020 105.094,342.608 109.000 C 342.290 109.880,341.834 111.860,341.596 113.400 C 341.357 114.940,340.912 117.190,340.608 118.400 C 340.303 119.610,339.778 122.227,339.441 124.217 C 339.104 126.206,338.575 128.456,338.264 129.217 C 337.953 129.977,337.580 131.500,337.435 132.600 C 337.289 133.700,336.823 135.770,336.397 137.200 C 335.664 139.666,334.804 143.761,333.194 152.451 C 332.801 154.570,332.290 156.659,332.057 157.094 C 331.824 157.528,331.440 159.125,331.202 160.642 C 330.965 162.159,330.503 164.120,330.176 165.000 C 329.849 165.880,329.338 167.950,329.040 169.600 C 327.868 176.106,326.746 181.538,325.983 184.400 C 325.544 186.050,324.991 188.480,324.755 189.800 C 324.518 191.120,324.086 192.773,323.794 193.474 C 323.502 194.174,323.057 196.108,322.805 197.770 C 322.553 199.432,322.169 201.379,321.952 202.096 C 321.735 202.813,321.228 205.200,320.826 207.400 C 320.056 211.618,318.777 217.123,317.713 220.800 C 317.363 222.010,316.762 224.620,316.377 226.600 C 315.992 228.580,315.381 231.730,315.019 233.600 C 314.657 235.470,314.006 238.350,313.574 240.000 C 313.142 241.650,312.622 243.911,312.419 245.025 C 312.216 246.138,311.684 248.388,311.238 250.025 C 310.461 252.875,310.173 254.250,308.403 263.523 C 307.970 265.790,307.363 268.400,307.054 269.323 C 306.744 270.245,306.371 271.810,306.225 272.800 C 306.078 273.790,305.613 275.770,305.191 277.200 C 304.451 279.708,303.455 284.418,301.974 292.400 C 301.586 294.490,300.991 296.920,300.652 297.800 C 300.313 298.680,300.027 299.769,300.018 300.220 C 299.980 301.977,299.779 302.000,284.169 302.000 C 268.313 302.000,268.783 302.059,268.263 300.000 C 268.124 299.450,268.007 274.824,268.003 245.275 C 267.995 196.447,267.935 191.435,267.344 190.291 C 266.567 188.789,266.798 183.834,267.795 180.621 C 268.133 179.532,268.583 177.102,268.794 175.221 C 269.006 173.339,269.533 
170.270,269.966 168.400 C 270.398 166.530,271.019 163.020,271.346 160.600 C 272.908 149.041,273.318 146.343,274.025 143.000 C 274.443 141.020,274.971 137.979,275.197 136.242 C 275.423 134.506,275.867 132.076,276.185 130.842 C 276.502 129.609,276.959 126.980,277.200 125.000 C 277.441 123.020,277.981 119.420,278.399 117.000 C 278.817 114.580,279.276 111.340,279.419 109.800 C 279.562 108.260,280.021 105.661,280.439 104.025 C 280.858 102.388,281.200 100.825,281.200 100.551 C 281.200 100.276,281.376 99.590,281.590 99.026 L 281.980 98.000 312.714 98.000 C 337.088 98.000,343.592 98.106,344.149 98.513 M166.200 108.786 C 165.188 109.195,163.484 111.489,163.805 112.009 C 164.165 112.591,167.243 112.477,168.473 111.835 C 170.310 110.877,171.731 110.757,173.802 111.385 C 176.589 112.231,184.902 112.241,185.600 111.400 C 185.874 111.070,186.661 110.796,187.349 110.791 C 188.775 110.781,190.778 109.481,190.055 109.034 C 189.402 108.630,167.155 108.399,166.200 108.786 M205.505 108.848 C 205.146 109.855,206.004 110.790,208.386 111.993 C 209.682 112.647,210.855 113.366,210.994 113.591 C 211.140 113.826,212.977 114.000,215.324 113.999 C 217.566 113.998,222.246 114.297,225.725 114.663 C 233.206 115.450,234.171 115.144,233.226 112.279 C 232.606 110.400,232.607 110.400,224.267 110.397 C 218.348 110.395,216.371 110.244,213.609 109.582 C 208.787 108.426,205.753 108.151,205.505 108.848 M174.600 109.437 C 172.723 109.738,167.600 109.790,167.600 109.508 C 167.600 109.338,169.355 109.225,171.500 109.254 C 173.645 109.284,175.040 109.367,174.600 109.437 M170.700 116.865 C 168.223 117.770,170.786 118.678,174.681 118.276 C 177.222 118.014,177.503 117.847,176.808 117.010 C 176.222 116.304,172.479 116.215,170.700 116.865 M212.200 117.580 C 211.528 117.852,211.649 117.953,212.952 118.206 C 213.949 118.400,214.571 118.768,214.693 119.234 C 215.056 120.623,221.303 121.257,222.531 120.029 C 223.086 119.474,221.258 118.834,218.242 118.528 C 216.899 118.393,215.445 118.038,215.011 117.741 C 214.134 117.139,213.393 117.097,212.200 117.580 M189.292 119.068 C 187.786 119.673,186.916 125.711,188.100 127.331 C 188.895 128.417,190.255 127.184,190.989 124.712 C 192.235 120.515,191.530 118.167,189.292 119.068 M190.800 121.400 C 190.800 122.011,190.572 122.400,190.215 122.400 C 189.863 122.400,189.457 123.075,189.194 124.100 C 188.515 126.741,188.465 126.754,188.432 124.290 C 188.403 122.181,188.487 121.947,189.400 121.600 C 189.950 121.391,190.400 121.035,190.400 120.810 C 190.400 120.584,190.490 120.400,190.600 120.400 C 190.710 120.400,190.800 120.850,190.800 121.400 M187.944 134.729 C 186.538 138.364,187.145 139.741,189.988 139.364 C 191.643 139.144,192.000 139.239,192.992 140.157 C 194.350 141.416,194.969 141.465,195.734 140.372 C 196.238 139.653,196.661 139.560,198.952 139.663 C 202.012 139.800,203.080 139.169,202.654 137.474 C 202.226 135.766,198.766 134.968,198.000 136.401 C 196.649 138.925,192.634 138.687,191.343 136.007 C 190.234 133.704,188.581 133.083,187.944 134.729 M188.838 137.632 C 188.474 138.542,188.449 138.517,188.425 137.220 C 188.408 136.273,188.529 135.969,188.812 136.252 C 189.085 136.525,189.094 136.991,188.838 137.632 M183.703 150.664 C 183.334 150.813,183.316 151.070,183.635 151.665 C 184.045 152.432,184.097 152.436,184.841 151.763 C 185.839 150.859,185.066 150.113,183.703 150.664 M190.400 162.177 C 190.400 164.942,197.874 165.512,200.241 162.928 C 201.909 161.106,201.814 161.005,199.020 161.631 C 197.279 162.020,196.327 162.028,194.758 161.666 C 191.454 160.903,190.400 161.027,190.400 162.177 M158.400 190.800 C 157.624 191.301,157.200 191.301,157.200 190.800 C 157.200 190.580,157.605 190.403,158.100 190.406 C 158.828 190.411,158.885 190.486,158.400 190.800 M190.584 281.600 C 190.584 291.390,190.636 295.395,190.700 290.500 C 190.763 285.605,190.763 277.595,190.700 272.700 C 190.636 267.805,190.584 271.810,190.584 281.600 " stroke="none" fill="#a09494" fill-rule="evenodd"></path><path id="path4" d="M55.748 98.395 C 54.974 98.707,54.930 98.897,55.269 100.469 C 55.473 101.421,55.908 103.640,56.234 105.400 C 56.560 107.160,57.070 109.230,57.367 110.000 C 57.664 110.770,58.213 113.365,58.588 115.766 C 58.963 118.168,59.423 120.536,59.611 121.028 C 59.798 121.521,60.150 123.427,60.393 125.262 C 60.636 127.098,61.175 129.680,61.590 131.000 C 62.006 132.320,62.468 134.390,62.617 135.600 C 62.767 136.810,63.144 138.420,63.456 139.177 C 63.768 139.934,64.298 142.274,64.633 144.377 C 64.968 146.480,65.491 149.190,65.796 150.400 C 66.100 151.610,66.537 153.979,66.766 155.664 C 66.995 157.349,67.526 159.869,67.947 161.264 C 68.367 162.659,68.986 165.150,69.323 166.800 C 69.659 168.450,70.126 170.610,70.359 171.600 C 71.035 174.473,72.459 181.911,73.020 185.499 C 73.303 187.314,73.814 189.654,74.155 190.699 C 74.496 191.745,74.960 193.792,75.187 195.248 C 75.413 196.704,75.853 198.618,76.165 199.500 C 76.476 200.382,76.937 202.521,77.188 204.252 C 77.440 205.983,77.812 207.940,78.016 208.600 C 78.219 209.260,78.734 211.870,79.159 214.400 C 79.585 216.930,80.117 219.478,80.342 220.061 C 80.567 220.645,80.945 222.265,81.183 223.661 C 81.421 225.058,81.970 227.550,82.402 229.200 C 83.140 232.019,85.244 242.822,85.828 246.800 C 85.974 247.790,86.269 248.936,86.485 249.346 C 86.701 249.757,87.210 251.827,87.617 253.946 C 88.024 256.066,88.625 258.880,88.952 260.200 C 89.601 262.818,90.420 266.997,91.611 273.765 C 92.033 276.166,92.644 278.956,92.968 279.965 C 93.293 280.974,93.681 282.700,93.831 283.800 C 93.982 284.900,94.427 286.880,94.821 288.200 C 95.215 289.520,95.736 291.950,95.979 293.600 C 96.582 297.697,97.524 300.900,98.304 301.500 C 99.432 302.369,153.325 302.213,154.051 301.339 C 154.508 300.788,154.634 291.476,154.806 245.639 C 154.920 215.367,155.055 190.561,155.106 190.514 C 156.068 189.632,158.446 189.540,179.126 189.583 C 204.116 189.636,202.636 189.450,203.827 192.683 C 204.216 193.738,204.824 194.960,205.179 195.400 C 205.535 195.840,206.519 197.640,207.367 199.400 C 208.835 202.446,209.154 203.136,210.611 206.400 C 210.954 207.170,211.757 208.700,212.395 209.800 C 213.951 212.484,214.163 212.923,215.595 216.400 C 216.275 218.050,217.003 219.670,217.214 220.000 C 217.425 220.330,218.020 221.410,218.536 222.400 C 220.447 226.063,220.647 226.476,222.995 231.600 C 223.347 232.370,224.249 234.080,224.998 235.400 C 225.747 236.720,226.666 238.475,227.041 239.300 C 228.965 243.539,229.200 240.859,229.200 214.714 C 229.200 199.234,229.342 190.882,229.614 190.374 C 230.006 189.641,230.582 189.597,240.514 189.553 C 254.890 189.488,254.713 189.589,253.034 182.426 C 252.696 180.982,252.209 178.270,251.952 176.400 C 251.696 174.530,251.241 172.302,250.942 171.448 C 250.643 170.594,250.218 168.704,249.997 167.248 C 249.777 165.792,249.242 163.250,248.808 161.600 C 248.375 159.950,247.745 156.935,247.410 154.900 C 245.821 145.260,245.527 143.626,244.945 141.200 C 244.603 139.770,243.984 136.890,243.570 134.800 C 243.156 132.710,242.544 130.016,242.209 128.813 C 241.874 127.610,241.594 126.080,241.586 125.413 C 241.578 124.746,241.302 123.030,240.973 121.600 C 240.644 120.170,240.023 116.788,239.592 114.083 C 239.162 111.379,238.633 108.835,238.416 108.430 C 238.199 108.025,237.824 106.367,237.582 104.747 C 236.907 100.230,236.496 98.986,235.503 98.460 C 234.008 97.667,161.698 97.994,161.202 98.797 C 160.999 99.125,160.724 100.385,160.591 101.597 C 160.457 102.808,159.920 106.140,159.396 109.000 C 158.873 111.860,158.329 115.257,158.188 116.548 C 158.046 117.840,157.687 119.586,157.390 120.428 C 157.093 121.271,156.644 123.454,156.393 125.280 C 156.141 127.106,155.687 129.410,155.384 130.400 C 155.080 131.390,154.549 134.270,154.204 136.800 C 153.859 139.330,153.411 142.030,153.209 142.800 C 153.007 143.570,152.568 146.180,152.233 148.600 C 151.898 151.020,151.362 153.900,151.041 155.000 C 150.720 156.100,150.254 158.440,150.006 160.200 C 149.758 161.960,149.307 164.210,149.005 165.200 C 148.703 166.190,148.265 168.530,148.032 170.400 C 147.623 173.684,146.697 179.133,145.417 185.800 C 145.079 187.560,144.432 191.070,143.978 193.600 C 143.525 196.130,142.916 198.920,142.626 199.800 C 142.335 200.680,141.972 202.660,141.818 204.200 C 141.451 207.895,139.646 216.743,139.009 217.968 L 138.507 218.935 138.075 217.568 C 137.837 216.815,137.528 215.300,137.387 214.200 C 137.246 213.100,136.801 210.940,136.397 209.400 C 135.993 207.860,135.454 204.710,135.199 202.400 C 134.944 200.090,134.486 196.940,134.181 195.400 C 133.875 193.860,133.435 190.813,133.203 188.628 C 132.970 186.443,132.520 183.743,132.203 182.628 C 131.885 181.513,131.429 178.980,131.189 177.000 C 130.949 175.020,130.415 172.050,130.002 170.400 C 129.589 168.750,129.132 166.050,128.987 164.400 C 128.841 162.750,128.471 160.177,128.163 158.682 C 127.855 157.187,127.333 153.677,127.001 150.882 C 126.670 148.087,126.147 144.974,125.839 143.966 C 125.530 142.957,125.154 140.887,125.004 139.366 C 124.853 137.844,124.384 135.070,123.960 133.200 C 123.537 131.330,122.931 127.820,122.613 125.400 C 120.972 112.911,118.601 99.325,117.917 98.500 C 117.426 97.908,57.206 97.806,55.748 98.395 M281.590 99.026 C 281.376 99.590,281.200 100.276,281.200 100.551 C 281.200 100.825,280.858 102.388,280.439 104.025 C 280.021 105.661,279.562 108.260,279.419 109.800 C 279.276 111.340,278.817 114.580,278.399 117.000 C 277.981 119.420,277.441 123.020,277.200 125.000 C 276.959 126.980,276.502 129.609,276.185 130.842 C 275.867 132.076,275.423 134.506,275.197 136.242 C 274.971 137.979,274.443 141.020,274.025 143.000 C 273.318 146.343,272.908 149.041,271.346 160.600 C 271.019 163.020,270.398 166.530,269.966 168.400 C 269.533 170.270,269.006 173.339,268.794 175.221 C 268.583 177.102,268.133 179.532,267.795 180.621 C 266.798 183.834,266.567 188.789,267.344 190.291 C 267.935 191.435,267.995 196.447,268.003 245.275 C 268.007 274.824,268.124 299.450,268.263 300.000 C 268.783 302.059,268.313 302.000,284.169 302.000 C 299.779 302.000,299.980 301.977,300.018 300.220 C 300.027 299.769,300.313 298.680,300.652 297.800 C 300.
991 296.920,301.586 294.490,301.974 292.400 C 303.455 284.418,304.451 279.708,305.191 277.200 C 305.613 275.770,306.078 273.790,306.225 272.800 C 306.371 271.810,306.744 270.245,307.054 269.323 C 307.363 268.400,307.970 265.790,308.403 263.523 C 310.173 254.250,310.461 252.875,311.238 250.025 C 311.684 248.388,312.216 246.138,312.419 245.025 C 312.622 243.911,313.142 241.650,313.574 240.000 C 314.006 238.350,314.657 235.470,315.019 233.600 C 315.381 231.730,315.992 228.580,316.377 226.600 C 316.762 224.620,317.363 222.010,317.713 220.800 C 318.777 217.123,320.056 211.618,320.826 207.400 C 321.228 205.200,321.735 202.813,321.952 202.096 C 322.169 201.379,322.553 199.432,322.805 197.770 C 323.057 196.108,323.502 194.174,323.794 193.474 C 324.086 192.773,324.518 191.120,324.755 189.800 C 324.991 188.480,325.544 186.050,325.983 184.400 C 326.746 181.538,327.868 176.106,329.040 169.600 C 329.338 167.950,329.849 165.880,330.176 165.000 C 330.503 164.120,330.965 162.159,331.202 160.642 C 331.440 159.125,331.824 157.528,332.057 157.094 C 332.290 156.659,332.801 154.570,333.194 152.451 C 334.804 143.761,335.664 139.666,336.397 137.200 C 336.823 135.770,337.289 133.700,337.435 132.600 C 337.580 131.500,337.953 129.977,338.264 129.217 C 338.575 128.456,339.104 126.206,339.441 124.217 C 339.778 122.227,340.303 119.610,340.608 118.400 C 340.912 117.190,341.357 114.940,341.596 113.400 C 341.834 111.860,342.290 109.880,342.608 109.000 C 344.020 105.094,344.905 99.066,344.149 98.513 C 343.592 98.106,337.088 98.000,312.714 98.000 L 281.980 98.000 281.590 99.026 M117.337 99.394 C 117.701 99.758,118.033 101.191,118.196 103.094 C 118.342 104.802,118.725 107.190,119.047 108.400 C 119.368 109.610,119.891 113.106,120.208 116.170 C 120.525 119.233,121.046 122.653,121.367 123.770 C 121.688 124.886,122.154 127.690,122.402 130.000 C 122.650 132.310,123.107 134.714,123.417 135.343 C 123.728 135.972,124.175 138.402,124.412 140.743 C 124.648 143.084,125.102 145.900,125.419 147.000 C 125.736 148.100,126.254 151.700,126.570 155.000 C 126.885 158.300,127.357 161.540,127.619 162.200 C 127.880 162.860,128.336 165.536,128.631 168.146 C 128.926 170.756,129.426 173.285,129.741 173.767 C 130.072 174.271,130.496 176.628,130.743 179.331 C 130.979 181.910,131.429 184.600,131.744 185.310 C 132.058 186.019,132.527 189.176,132.784 192.324 C 133.042 195.472,133.507 198.892,133.819 199.924 C 134.130 200.956,134.587 203.690,134.834 206.000 C 135.081 208.310,135.550 210.920,135.877 211.800 C 136.204 212.680,136.636 214.480,136.837 215.800 C 138.065 223.875,140.954 219.993,142.195 208.600 C 142.506 205.740,143.027 202.500,143.352 201.400 C 143.677 200.300,144.124 197.870,144.347 196.000 C 144.569 194.130,145.030 191.935,145.371 191.123 C 145.712 190.311,146.183 187.924,146.418 185.818 C 146.653 183.713,147.088 181.407,147.385 180.695 C 147.682 179.983,148.134 177.240,148.391 174.600 C 148.647 171.960,149.115 169.117,149.432 168.283 C 149.748 167.449,150.206 164.929,150.450 162.683 C 150.694 160.437,151.214 157.786,151.605 156.791 C 151.997 155.795,152.440 153.725,152.592 152.191 C 152.743 150.656,153.201 148.140,153.610 146.600 C 154.018 145.060,154.547 141.788,154.785 139.329 C 155.022 136.870,155.464 134.260,155.766 133.529 C 156.068 132.798,156.509 130.392,156.747 128.183 C 156.984 125.974,157.444 123.633,157.769 122.982 C 158.094 122.331,158.560 120.089,158.804 117.999 C 159.049 115.910,159.505 113.480,159.819 112.600 C 160.419 110.916,161.200 105.299,161.200 102.672 C 161.200 101.748,161.533 100.655,162.027 99.962 L 162.854 98.800 198.762 98.800 L 234.669 98.800 235.702 100.900 C 236.354 102.228,236.828 104.029,236.989 105.800 C 237.130 107.340,237.586 109.680,238.003 111.000 C 238.420 112.320,238.962 115.273,239.209 117.562 C 239.455 119.851,239.898 122.371,240.194 123.162 C 240.490 123.953,240.921 126.170,241.150 128.089 C 241.380 130.008,241.837 132.097,242.164 132.731 C 242.492 133.365,242.941 135.327,243.163 137.090 C 243.384 138.854,243.922 141.625,244.358 143.248 C 244.795 144.872,245.338 147.910,245.566 150.000 C 245.793 152.090,246.235 154.520,246.549 155.400 C 246.862 156.280,247.314 158.512,247.553 160.361 C 247.792 162.209,248.247 164.117,248.564 164.601 C 248.881 165.084,249.264 166.812,249.416 168.440 C 249.568 170.068,250.015 172.390,250.408 173.600 C 250.802 174.810,251.325 177.707,251.572 180.038 C 251.819 182.369,252.180 184.831,252.374 185.509 C 253.053 187.876,252.534 188.000,241.928 188.000 C 232.149 188.000,230.375 188.234,229.100 189.689 C 228.450 190.431,228.398 192.236,228.375 214.744 C 228.357 231.245,228.222 238.680,227.952 238.000 C 227.733 237.450,227.135 236.550,226.622 236.000 C 226.109 235.450,225.555 234.550,225.390 234.000 C 225.225 233.450,224.755 232.571,224.345 232.046 C 223.935 231.521,223.600 230.889,223.600 230.640 C 223.600 230.181,221.641 225.825,220.614 224.000 C 220.074 223.040,217.785 218.414,215.762 214.194 C 215.233 213.091,214.800 211.994,214.800 211.756 C 214.800 211.519,214.456 211.013,214.036 210.633 C 213.616 210.252,213.154 209.470,213.009 208.895 C 212.865 208.320,212.419 207.388,212.019 206.824 C 211.618 206.261,211.099 205.104,210.865 204.253 C 210.630 203.402,210.182 202.412,209.870 202.053 C 209.557 201.694,209.092 200.747,208.836 199.948 C 208.579 199.150,208.017 198.177,207.585 197.786 C 207.153 197.396,206.800 196.805,206.800 196.473 C 206.800 196.142,206.374 195.134,205.854 194.235 C 205.334 193.336,204.696 191.944,204.437 191.142 C 203.432 188.034,203.149 187.999,178.726 188.007 L 157.400 188.013 155.828 188.907 C 153.529 190.212,153.629 187.631,153.612 246.319 C 153.603 276.110,153.496 300.645,153.374 300.842 C 153.247 301.047,141.554 301.200,125.995 301.200 L 98.838 301.200 98.421 299.700 C 98.192 298.875,98.003 297.879,98.002 297.487 C 98.001 297.095,97.738 296.148,97.418 295.382 C 97.099 294.617,96.641 292.558,96.401 290.806 C 96.161 289.055,95.632 286.852,95.225 285.911 C 94.818 284.970,94.358 282.944,94.201 281.409 C 94.045 279.875,93.600 277.805,93.212 276.809 C 92.824 275.814,92.378 273.470,92.220 271.600 C 92.063 269.730,91.610 267.210,91.214 266.000 C 90.818 264.790,90.293 262.395,90.046 260.679 C 89.800 258.962,89.338 257.053,89.019 256.437 C 88.700 255.820,88.260 253.895,88.041 252.158 C 87.821 250.421,87.361 248.209,87.018 247.242 C 86.675 246.275,86.213 243.845,85.991 241.842 C 85.768 239.839,85.244 237.030,84.826 235.600 C 84.407 234.170,83.948 232.010,83.806 230.800 C 83.664 229.590,83.224 227.867,82.828 226.972 C 82.432 226.076,81.978 224.096,81.818 222.572 C 81.658 221.047,81.203 218.810,80.807 217.600 C 80.411 216.390,79.884 213.631,79.636 211.470 C 79.388 209.308,78.923 206.911,78.602 206.142 C 78.281 205.374,77.835 203.288,77.612 201.507 C 77.389 199.726,76.944 197.869,76.624 197.381 C 76.304 196.892,75.833 194.897,75.577 192.946 C 75.321 190.996,74.871 188.815,74.576 188.100 C 74.282 187.384,73.757 184.623,73.411 181.962 C 73.065 179.302,72.539 176.647,72.241 176.063 C 71.944 175.478,71.575 173.740,71.421 172.200 C 71.267 170.660,70.810 168.680,70.405 167.800 C 70.001 166.920,69.476 164.701,69.239 162.870 C 69.003 161.038,68.556 158.968,68.246 158.270 C 67.936 157.571,67.472 155.141,67.215 152.868 C 66.957 150.596,66.424 147.716,66.029 146.468 C 65.635 145.221,65.184 143.043,65.028 141.629 C 64.872 140.216,64.420 138.416,64.023 137.629 C 63.626 136.843,63.171 134.940,63.011 133.400 C 62.851 131.860,62.460 129.880,62.140 129.000 C 61.821 128.120,61.297 125.373,60.975 122.896 C 60.653 120.419,60.137 117.719,59.827 116.896 C 59.518 116.073,59.066 113.970,58.823 112.223 C 58.581 110.476,58.106 108.496,57.769 107.823 C 57.056 106.399,56.254 100.689,56.610 99.567 C 56.944 98.515,116.289 98.346,117.337 99.394 M343.290 99.760 C 343.564 101.190,342.835 105.974,342.196 106.950 C 341.889 107.419,341.439 109.151,341.196 110.801 C 340.953 112.450,340.493 114.482,340.174 115.315 C 339.855 116.149,339.394 118.579,339.150 120.715 C 338.905 122.852,338.380 125.411,337.983 126.402 C 337.587 127.394,337.135 129.374,336.980 130.802 C 336.826 132.231,336.372 134.132,335.973 135.026 C 335.574 135.921,335.130 137.631,334.988 138.826 C 334.845 140.022,334.387 142.029,333.970 143.286 C 333.552 144.543,333.006 147.333,332.756 149.486 C 332.505 151.639,332.052 153.888,331.749 154.483 C 331.445 155.079,331.006 156.969,330.773 158.683 C 330.540 160.398,330.016 162.520,329.609 163.400 C 329.201 164.280,328.741 166.170,328.587 167.600 C 328.433 169.030,328.047 170.706,327.730 171.324 C 327.414 171.943,326.897 174.409,326.582 176.804 C 326.267 179.199,325.745 181.843,325.422 182.680 C 325.099 183.516,324.648 185.600,324.420 187.310 C 324.192 189.021,323.737 190.829,323.410 191.329 C 323.082 191.828,322.622 193.625,322.386 195.322 C 322.150 197.018,321.699 199.022,321.385 199.775 C 321.070 200.528,320.602 202.912,320.345 205.072 C 320.089 207.232,319.636 209.485,319.340 210.079 C 319.044 210.672,318.607 212.562,318.370 214.279 C 318.132 215.995,317.603 218.217,317.194 219.216 C 316.785 220.215,316.323 222.015,316.168 223.216 C 316.013 224.417,315.553 226.454,315.146 227.743 C 314.739 229.031,314.206 231.731,313.961 233.743 C 313.717 235.754,313.279 237.860,312.988 238.423 C 312.697 238.985,312.254 240.965,312.002 242.823 C 311.751 244.680,311.283 246.605,310.963 247.101 C 310.642 247.597,310.177 249.487,309.929 251.301 C 309.681 253.115,309.226 255.106,308.917 255.724 C 308.608 256.342,308.111 258.772,307.814 261.124 C 307.516 263.476,306.999 266.038,306.666 266.817 C 306.332 267.597,305.933 269.397,305.779 270.817 C 305.625 272.238,305.161 274.157,304.748 275.081 C 304.335 276.006,303.808 278.122,303.577 279.784 C 303.346 281.446,302.899 283.422,302.585 284.175 C 302.270 284.928,301.811 287.312,301.564 289.472 C 301.317 291.632,300.782 294.300,300.375 295.400 C 299.968 296.500,299.526 298.255,299.393 299.300 L 299.151 301.200 284.363 301.200 C 272.899 301.200,269.533 301.088,269.388 300.700 C 269.285 300.425,269.156 275.532,269.100 245.382 C 269.006 193.947,268.957 190.499,268.300 189.496 C 267.427 
188.164,267.379 184.967,268.206 183.308 C 268.539 182.640,268.997 180.047,269.224 177.547 C 269.457 174.973,269.902 172.518,270.248 171.888 C 270.584 171.277,271.044 168.937,271.269 166.688 C 271.495 164.440,271.944 161.791,272.268 160.802 C 272.592 159.814,273.109 156.394,273.416 153.202 C 273.724 150.011,274.239 146.500,274.560 145.400 C 274.882 144.300,275.335 141.461,275.566 139.092 C 275.798 136.723,276.252 134.274,276.574 133.650 C 276.897 133.026,277.353 130.644,277.587 128.357 C 277.821 126.071,278.281 123.311,278.610 122.224 C 278.938 121.138,279.396 118.078,279.627 115.424 C 279.858 112.771,280.379 109.250,280.785 107.600 C 281.191 105.950,281.629 103.460,281.759 102.066 C 281.889 100.672,282.097 99.367,282.221 99.166 C 282.355 98.950,294.869 98.800,312.777 98.800 L 343.107 98.800 343.290 99.760 M204.263 106.504 C 203.446 107.102,202.978 113.051,203.682 113.899 C 204.238 114.569,205.632 114.533,206.644 113.824 C 207.379 113.310,207.676 113.351,209.433 114.212 C 211.223 115.088,211.907 115.176,217.027 115.187 C 220.631 115.196,223.364 115.403,224.627 115.763 C 231.236 117.651,237.289 115.999,234.792 112.990 C 234.518 112.660,234.003 111.808,233.647 111.095 L 233.000 109.800 225.600 109.548 C 221.530 109.409,217.660 109.105,217.000 108.871 C 216.340 108.637,214.097 108.235,212.014 107.978 C 209.913 107.718,207.602 107.174,206.820 106.755 C 205.150 105.860,205.145 105.859,204.263 106.504 M189.200 106.869 C 185.992 107.756,183.457 107.899,177.200 107.549 C 167.841 107.024,165.839 107.286,163.915 109.288 C 160.859 112.469,162.100 114.992,166.034 113.600 C 168.820 112.614,169.811 112.559,178.156 112.931 C 184.298 113.204,184.631 113.304,183.194 114.443 C 182.382 115.087,181.871 115.179,180.400 114.946 C 178.458 114.639,171.151 114.676,169.732 115.001 C 168.512 115.280,168.078 117.381,169.024 118.427 C 170.298 119.834,182.977 119.183,185.206 117.596 C 187.030 116.297,187.291 116.847,186.833 121.032 C 186.205 126.772,186.980 129.200,189.440 129.200 C 191.568 129.200,192.067 128.040,192.139 122.922 L 192.200 118.624 191.100 118.090 C 190.300 117.702,190.000 117.259,190.000 116.467 C 190.000 115.868,189.723 114.983,189.384 114.499 C 188.632 113.424,189.370 111.631,191.008 110.558 C 192.310 109.705,191.981 105.690,190.671 106.441 C 190.632 106.463,189.970 106.656,189.200 106.869 M190.055 109.034 C 190.778 109.481,188.775 110.781,187.349 110.791 C 186.661 110.796,185.874 111.070,185.600 111.400 C 184.902 112.241,176.589 112.231,173.802 111.385 C 171.731 110.757,170.310 110.877,168.473 111.835 C 167.243 112.477,164.165 112.591,163.805 112.009 C 163.484 111.489,165.188 109.195,166.200 108.786 C 167.155 108.399,189.402 108.630,190.055 109.034 M213.609 109.582 C 216.371 110.244,218.348 110.395,224.267 110.397 C 232.607 110.400,232.606 110.400,233.226 112.279 C 234.171 115.144,233.206 115.450,225.725 114.663 C 222.246 114.297,217.566 113.998,215.324 113.999 C 212.977 114.000,211.140 113.826,210.994 113.591 C 210.855 113.366,209.682 112.647,208.386 111.993 C 202.204 108.872,205.091 107.540,213.609 109.582 M211.663 116.398 C 207.485 117.386,211.467 120.400,218.600 121.649 C 220.800 122.035,223.050 122.464,223.601 122.603 C 224.152 122.742,225.111 122.662,225.733 122.426 L 226.864 121.996 225.620 120.425 C 224.862 119.469,223.793 118.671,222.888 118.386 C 222.069 118.129,220.510 117.487,219.421 116.959 C 217.357 115.958,214.422 115.746,211.663 116.398 M176.808 117.010 C 177.503 117.847,177.222 118.014,174.681 118.276 C 172.290 118.523,169.600 118.173,169.600 117.615 C 169.600 116.477,175.925 115.946,176.808 117.010 M215.011 117.741 C 215.445 118.038,216.899 118.393,218.242 118.528 C 221.258 118.834,223.086 119.474,222.531 120.029 C 221.303 121.257,215.056 120.623,214.693 119.234 C 214.571 118.768,213.949 118.400,212.952 118.206 C 211.649 117.953,211.528 117.852,212.200 117.580 C 213.393 117.097,214.134 117.139,215.011 117.741 M191.120 119.280 C 192.259 120.419,191.082 126.277,189.489 127.393 C 188.190 128.303,187.600 127.276,187.600 124.104 C 187.600 120.136,189.446 117.606,191.120 119.280 M188.687 132.434 C 187.605 133.005,187.105 133.573,186.935 134.425 C 186.804 135.080,186.540 135.714,186.348 135.832 C 184.408 137.031,187.465 141.638,189.501 140.582 C 190.507 140.059,191.600 140.190,191.600 140.833 C 191.600 142.127,195.021 142.707,196.189 141.611 C 196.912 140.931,197.315 140.866,199.086 141.146 C 202.763 141.728,204.805 140.086,204.229 137.013 C 203.929 135.417,203.384 135.083,200.357 134.639 C 198.645 134.387,198.391 134.471,196.786 135.812 C 195.583 136.817,194.805 137.188,194.229 137.033 C 193.773 136.911,193.175 136.808,192.900 136.805 C 192.625 136.802,192.400 136.563,192.400 136.273 C 192.400 135.048,191.130 131.601,190.685 131.618 C 190.418 131.627,189.519 131.995,188.687 132.434 M191.343 136.007 C 192.634 138.687,196.649 138.925,198.000 136.401 C 198.766 134.968,202.226 135.766,202.654 137.474 C 203.080 139.169,202.012 139.800,198.952 139.663 C 196.661 139.560,196.238 139.653,195.734 140.372 C 194.969 141.465,194.350 141.416,192.992 140.157 C 192.000 139.239,191.643 139.144,189.988 139.364 C 187.145 139.741,186.538 138.364,187.944 134.729 C 188.581 133.083,190.234 133.704,191.343 136.007 M190.900 146.394 C 189.518 146.978,189.796 148.138,191.554 149.126 C 193.307 150.111,195.927 150.251,197.784 149.459 L 198.967 148.954 196.694 147.654 C 194.197 146.225,192.283 145.809,190.900 146.394 M201.852 148.343 C 201.077 149.199,201.413 149.643,203.413 150.407 C 204.982 151.006,203.834 152.000,201.573 152.000 C 199.680 152.000,198.670 153.023,200.057 153.535 C 202.244 154.344,207.840 154.440,208.526 153.681 C 209.287 152.840,208.149 150.400,206.996 150.400 C 206.657 150.400,206.208 149.947,205.997 149.393 C 205.357 147.709,202.972 147.105,201.852 148.343 M182.411 150.311 C 181.088 151.382,181.717 153.232,183.587 153.768 C 185.156 154.218,187.355 152.290,187.124 150.667 C 186.950 149.450,183.771 149.210,182.411 150.311 M185.109 150.736 C 185.500 150.984,185.438 151.223,184.841 151.763 C 184.097 152.436,184.045 152.432,183.635 151.665 C 183.316 151.070,183.334 150.813,183.703 150.664 C 184.426 150.372,184.546 150.378,185.109 150.736 M189.340 160.594 C 188.617 161.123,188.812 162.716,189.785 164.222 C 190.644 165.551,193.282 166.227,195.520 165.691 C 196.554 165.444,198.133 165.132,199.029 164.998 C 201.249 164.665,204.788 161.620,203.854 160.845 C 202.998 160.134,190.270 159.914,189.340 160.594 M194.758 161.666 C 196.327 162.028,197.279 162.020,199.020 161.631 C 201.814 161.005,201.909 161.106,200.241 162.928 C 197.874 165.512,190.400 164.942,190.400 162.177 C 190.400 161.027,191.454 160.903,194.758 161.666 M239.230 196.773 C 238.845 197.017,239.267 197.133,240.533 197.133 C 241.566 197.133,242.304 196.969,242.179 196.767 C 241.890 196.298,239.974 196.302,239.230 196.773 M248.100 197.076 C 248.485 197.176,249.115 197.176,249.500 197.076 C 249.885 196.975,249.570 196.893,248.800 196.893 C 248.030 196.893,247.715 196.975,248.100 197.076 M257.200 200.955 C 257.200 201.040,257.740 201.188,258.400 201.285 C 259.060 201.382,259.600 201.313,259.600 201.131 C 259.600 200.949,259.060 200.800,258.400 200.800 C 257.740 200.800,257.200 200.870,257.200 200.955 M187.964 204.918 C 187.689 205.524,187.057 206.121,186.560 206.246 C 185.391 206.539,185.038 207.485,185.921 207.957 C 187.207 208.646,189.606 205.854,188.865 204.530 C 188.505 203.887,188.417 203.925,187.964 204.918 M179.817 207.172 C 179.490 207.702,180.205 208.050,180.997 207.746 C 181.531 207.541,181.559 207.420,181.134 207.150 C 180.438 206.710,180.099 206.715,179.817 207.172 M187.123 207.230 C 187.044 207.466,186.809 207.660,186.600 207.660 C 186.391 207.660,186.156 207.466,186.077 207.230 C 185.998 206.994,186.233 206.800,186.600 206.800 C 186.967 206.800,187.202 206.994,187.123 207.230 M246.700 212.171 C 245.442 212.847,244.410 213.527,244.406 213.682 C 244.398 214.071,246.955 214.517,247.860 214.283 C 248.267 214.179,247.936 214.072,247.124 214.046 C 245.006 213.980,244.976 213.468,247.030 212.470 C 249.107 211.461,250.009 211.406,252.171 212.159 C 253.826 212.735,258.400 217.178,258.400 218.209 C 258.400 218.519,258.757 218.963,259.194 219.197 C 260.360 219.821,257.895 216.267,255.631 214.061 C 252.445 210.956,249.946 210.427,246.700 212.171 M250.600 214.692 C 251.547 214.928,254.705 216.685,255.700 217.530 C 256.088 217.859,256.400 217.935,256.400 217.699 C 256.400 217.146,251.381 214.386,250.486 214.446 C 249.950 214.483,249.974 214.536,250.600 214.692 M239.483 216.048 C 237.973 217.769,237.944 217.836,238.223 218.948 C 238.468 219.927,238.482 219.922,240.157 218.223 C 241.084 217.282,242.243 216.298,242.733 216.036 C 243.904 215.409,243.476 214.800,241.865 214.800 C 240.925 214.800,240.283 215.136,239.483 216.048 M242.400 215.600 C 242.400 215.820,242.113 216.000,241.763 216.000 C 241.412 216.000,241.033 216.354,240.919 216.787 C 240.806 217.219,240.328 217.694,239.857 217.841 C 239.386 217.988,238.868 218.309,238.706 218.554 C 238.520 218.836,238.410 218.753,238.406 218.328 C 238.403 217.933,238.771 217.603,239.300 217.528 C 239.944 217.436,240.236 217.088,240.327 216.300 C 240.451 215.220,242.400 214.562,242.400 215.600 M161.000 217.600 C 160.857 217.831,161.228 217.997,161.876 217.994 C 162.749 217.989,162.866 217.901,162.400 217.600 C 161.631 217.103,161.307 217.103,161.000 217.600 M256.400 218.480 C 256.400 218.571,256.850 219.255,257.400 220.000 C 257.950 220.745,258.397 221.095,258.393 220.778 C 258.389 220.460,257.939 219.776,257.393 219.258 C 256.847 218.740,256.400 218.390,256.400 218.480 M245.004 220.453 C 245.313 221.469,245.319 221.518,245.247 222.345 C 245.213 222.744,244.835 222.821,243.831 222.632 C 242.512 222.385,241.381 223.514,242.163 224.297 C 242.294 224.427,242.400 224.233,242.400 223.867 C 242.400 223.104,242.918 223.021,244.013 223.607 C 244.628 223.936,244.895 223.827,245.415 223.033 C 246.152 221.908,246.060 219.947,245.258 219.684 C 244.855 219.551,244.790 219.749,245.004 220.453 M249.527 220.600 C 250.181 221.150,250.838 221.600,
250.988 221.600 C 251.139 221.600,250.727 221.150,250.073 220.600 C 249.419 220.050,248.762 219.600,248.612 219.600 C 248.461 219.600,248.873 220.050,249.527 220.600 M260.000 220.161 C 260.000 220.334,260.334 220.954,260.743 221.538 C 261.152 222.122,261.587 222.870,261.711 223.200 C 261.907 223.719,261.941 223.716,261.968 223.178 C 261.986 222.835,261.550 221.945,261.000 221.200 C 260.450 220.455,260.000 219.987,260.000 220.161 M179.221 221.191 C 180.442 221.349,181.933 221.800,182.533 222.193 C 183.134 222.586,183.719 222.815,183.833 222.700 C 184.319 222.214,180.453 220.803,178.774 220.852 C 177.004 220.905,177.005 220.906,179.221 221.191 M174.400 222.200 C 174.400 222.627,174.834 222.800,175.903 222.800 C 177.980 222.800,179.990 223.433,180.612 224.284 C 180.900 224.677,181.237 224.896,181.363 224.770 C 181.993 224.141,179.882 222.843,177.807 222.584 C 176.588 222.431,175.491 222.148,175.371 221.953 C 175.022 221.388,174.400 221.546,174.400 222.200 M251.168 222.800 C 251.073 223.350,251.221 224.694,251.498 225.787 C 252.567 230.016,252.254 230.786,248.424 233.356 C 246.613 234.571,245.515 235.598,245.358 236.224 C 245.074 237.356,245.134 237.335,243.838 236.745 C 243.260 236.481,242.756 235.849,242.641 235.245 C 242.238 233.126,241.868 228.938,241.895 226.800 L 241.923 224.600 241.571 226.365 C 240.897 229.748,242.334 237.164,243.669 237.194 C 243.817 237.197,244.495 237.668,245.175 238.241 C 245.856 238.813,246.679 239.179,247.006 239.053 C 247.812 238.744,247.756 238.032,246.900 237.717 C 245.205 237.091,245.616 235.546,247.714 234.649 C 248.421 234.347,249.790 233.363,250.755 232.461 L 252.509 230.822 252.255 228.111 C 251.865 223.941,251.381 221.575,251.168 222.800 M171.000 223.600 C 170.852 224.065,170.297 224.611,169.766 224.813 C 169.235 225.015,168.800 225.386,168.800 225.637 C 168.800 225.889,168.260 226.709,167.600 227.461 C 166.940 228.213,166.407 229.047,166.416 229.314 C 166.425 229.581,166.701 229.305,167.029 228.700 C 167.357 228.095,167.795 227.600,168.003 227.600 C 168.210 227.600,168.662 227.054,169.007 226.387 C 169.690 225.066,170.385 225.133,170.425 226.524 C 170.449 227.357,170.470 227.351,170.845 226.411 C 171.062 225.868,171.456 225.285,171.720 225.117 C 172.087 224.884,172.083 224.811,171.700 224.806 C 171.006 224.798,171.071 223.624,171.781 223.352 C 172.736 222.985,173.319 223.575,172.719 224.301 C 172.257 224.862,172.301 224.877,173.124 224.438 C 174.345 223.788,174.043 223.030,172.503 222.877 C 171.537 222.781,171.210 222.939,171.000 223.600 M185.318 223.438 C 186.577 224.121,187.458 225.902,186.841 226.519 C 186.589 226.771,185.869 226.604,184.797 226.045 C 183.887 225.571,183.267 225.385,183.420 225.632 C 184.006 226.581,186.465 227.307,187.063 226.708 C 187.842 225.929,187.056 223.845,185.761 223.255 C 184.316 222.597,184.004 222.726,185.318 223.438 M262.432 226.024 C 262.414 226.366,262.653 226.993,262.962 227.416 C 263.473 228.115,263.418 228.229,262.354 228.676 C 260.769 229.342,260.137 229.011,259.674 227.270 L 259.283 225.800 259.241 227.420 C 259.219 228.311,259.416 229.256,259.680 229.520 C 260.053 229.893,260.053 230.107,259.680 230.480 C 258.484 231.676,259.367 231.519,260.818 230.278 C 261.707 229.516,263.010 228.778,263.713 228.637 L 264.990 228.382 263.935 227.491 C 263.355 227.001,262.786 226.330,262.671 226.000 C 262.492 225.483,262.459 225.486,262.432 226.024 M176.900 227.434 C 176.185 227.746,175.600 228.186,175.600 228.411 C 175.600 228.636,175.105 229.010,174.500 229.243 L 173.400 229.665 175.000 230.232 C 176.878 230.896,178.866 230.638,178.534 229.773 C 178.413 229.458,178.086 229.200,177.806 229.200 C 176.168 229.200,176.488 228.087,178.300 227.483 C 179.583 227.055,179.875 226.852,179.200 226.857 C 178.650 226.862,177.615 227.121,176.900 227.434 M181.269 227.413 C 182.906 228.301,183.679 230.109,182.899 231.223 C 182.351 232.005,182.350 232.211,182.888 233.149 C 184.975 236.786,182.912 240.384,178.732 240.398 C 178.319 240.399,177.965 240.848,177.806 241.572 C 177.232 244.184,175.961 244.118,175.210 241.436 C 174.935 240.454,174.438 239.547,174.105 239.419 C 173.568 239.213,173.566 239.289,174.089 240.093 C 174.413 240.592,174.900 241.675,175.170 242.500 C 175.505 243.522,175.900 244.000,176.408 244.000 C 176.819 244.000,177.435 244.400,177.777 244.889 C 178.379 245.748,178.400 245.715,178.400 243.912 C 178.400 241.815,179.326 240.800,181.240 240.800 C 183.098 240.800,184.716 237.121,184.117 234.262 C 183.864 233.056,183.755 231.694,183.875 231.236 C 184.184 230.054,183.017 227.827,181.796 227.271 C 180.350 226.612,179.979 226.712,181.269 227.413 M169.500 228.614 C 168.501 229.950,168.631 230.323,169.646 229.033 C 170.111 228.442,170.426 227.895,170.346 227.818 C 170.266 227.741,169.885 228.100,169.500 228.614 M265.600 229.786 C 265.600 230.133,265.947 230.400,266.400 230.400 C 266.840 230.400,267.200 230.316,267.200 230.214 C 267.200 230.112,266.840 229.835,266.400 229.600 C 265.761 229.258,265.600 229.296,265.600 229.786 M173.350 234.600 C 173.351 237.020,173.416 237.958,173.496 236.685 C 173.576 235.412,173.575 233.432,173.494 232.285 C 173.414 231.138,173.349 232.180,173.350 234.600 M167.467 233.467 C 167.320 233.613,167.221 234.378,167.246 235.167 L 167.292 236.600 167.604 235.000 C 167.931 233.319,167.905 233.028,167.467 233.467 M164.145 236.974 C 164.194 238.363,164.339 238.584,165.390 238.863 C 166.045 239.037,166.896 239.589,167.282 240.090 C 167.774 240.730,167.985 240.821,167.991 240.397 C 167.996 240.065,167.203 239.313,166.229 238.725 C 164.958 237.957,164.406 237.337,164.274 236.527 C 164.153 235.783,164.109 235.935,164.145 236.974 M250.557 240.167 C 250.092 241.379,250.760 242.332,251.434 241.416 C 251.751 240.985,251.952 240.456,251.880 240.241 C 251.652 239.557,250.810 239.510,250.557 240.167 M212.881 256.182 C 212.390 257.260,212.995 262.000,213.624 262.000 C 213.810 262.000,214.150 261.325,214.379 260.500 C 215.329 257.080,214.094 253.520,212.881 256.182 M214.000 258.176 C 214.000 259.153,213.820 260.064,213.600 260.200 C 213.353 260.352,213.200 259.671,213.200 258.424 C 213.200 257.311,213.380 256.400,213.600 256.400 C 213.820 256.400,214.000 257.199,214.000 258.176 " stroke="none" fill="#717171" fill-rule="evenodd"></path></g></svg>